STARTFONT 2.3
FONT -FontForge-Open Sans-Book-R-Normal-Sans--11-110-72-72-P-64-ISO10646-1
SIZE 11 72 72  2
FONTBOUNDINGBOX 19 16 -6 -3
COMMENT "Generated by fontforge, http://fontforge.sourceforge.net"
COMMENT "Digitized data copyright (c) 2010-2011, Google Corporation."
STARTPROPERTIES 41
FOUNDRY "FontForge"
FAMILY_NAME "Open Sans"
WEIGHT_NAME "Book"
SLANT "R"
SETWIDTH_NAME "Normal"
ADD_STYLE_NAME "Sans"
PIXEL_SIZE 11
POINT_SIZE 110
RESOLUTION_X 72
RESOLUTION_Y 72
SPACING "P"
AVERAGE_WIDTH 64
CHARSET_REGISTRY "ISO10646"
CHARSET_ENCODING "1"
FONTNAME_REGISTRY ""
CHARSET_COLLECTIONS "ISO8859-2 ISO8859-5 ISO8859-7 ISO8859-9 ISO8859-4 ISO10646-1"
BITS_PER_PIXEL 2
FONT_NAME "OpenSans-Regular"
FACE_NAME "Open Sans Regular"
COPYRIGHT "Digitized data copyright (c) 2010-2011, Google Corporation."
FONT_VERSION "1.10"
FONT_ASCENT 9
FONT_DESCENT 2
UNDERLINE_POSITION -1
UNDERLINE_THICKNESS 1
X_HEIGHT 5
CAP_HEIGHT 7
RAW_ASCENT 799
RAW_DESCENT 200
NORM_SPACE 3
RELATIVE_WEIGHT 40
RELATIVE_SETWIDTH 50
SUPERSCRIPT_X 0
SUPERSCRIPT_Y 5
SUPERSCRIPT_SIZE 7
SUBSCRIPT_X 0
SUBSCRIPT_Y 1
SUBSCRIPT_SIZE 7
FIGURE_WIDTH 6
AVG_LOWERCASE_WIDTH 63
AVG_UPPERCASE_WIDTH 73
ENDPROPERTIES
CHARS 938
STARTCHAR space
ENCODING 32
SWIDTH 259 0
DWIDTH 3 0
BBX 1 1 0 0
BITMAP
00
ENDCHAR
STARTCHAR exclam
ENCODING 33
SWIDTH 267 0
DWIDTH 3 0
BBX 1 8 1 0
BITMAP
C0
C0
C0
80
80
80
40
C0
ENDCHAR
STARTCHAR quotedbl
ENCODING 34
SWIDTH 400 0
DWIDTH 4 0
BBX 4 3 0 5
BITMAP
66
66
22
ENDCHAR
STARTCHAR numbersign
ENCODING 35
SWIDTH 645 0
DWIDTH 7 0
BBX 7 8 0 0
BITMAP
0520
0860
6EE8
0880
0880
6AE4
1480
2140
ENDCHAR
STARTCHAR dollar
ENCODING 36
SWIDTH 571 0
DWIDTH 6 0
BBX 6 9 0 -1
BITMAP
0500
1F90
2500
3500
0B40
0690
0550
6B80
0500
ENDCHAR
STARTCHAR percent
ENCODING 37
SWIDTH 823 0
DWIDTH 9 0
BBX 9 8 0 0
BITMAP
290800
522400
522000
529A00
29A140
022140
062140
081A00
ENDCHAR
STARTCHAR ampersand
ENCODING 38
SWIDTH 729 0
DWIDTH 8 0
BBX 8 8 0 0
BITMAP
1A80
2480
1980
0F00
2649
60AC
6078
2A9A
ENDCHAR
STARTCHAR quotesingle
ENCODING 39
SWIDTH 221 0
DWIDTH 2 0
BBX 2 3 0 5
BITMAP
60
60
20
ENDCHAR
STARTCHAR parenleft
ENCODING 40
SWIDTH 295 0
DWIDTH 3 0
BBX 3 10 0 -2
BITMAP
18
20
60
60
90
90
60
60
20
18
ENDCHAR
STARTCHAR parenright
ENCODING 41
SWIDTH 295 0
DWIDTH 3 0
BBX 3 10 0 -2
BITMAP
60
20
24
18
08
08
18
14
30
60
ENDCHAR
STARTCHAR asterisk
ENCODING 42
SWIDTH 551 0
DWIDTH 6 0
BBX 6 5 0 3
BITMAP
0500
1550
6F90
0A00
1580
ENDCHAR
STARTCHAR plus
ENCODING 43
SWIDTH 571 0
DWIDTH 6 0
BBX 6 5 0 1
BITMAP
0600
0600
6BA0
0600
0600
ENDCHAR
STARTCHAR comma
ENCODING 44
SWIDTH 245 0
DWIDTH 3 0
BBX 2 3 0 -2
BITMAP
70
60
90
ENDCHAR
STARTCHAR hyphen
ENCODING 45
SWIDTH 321 0
DWIDTH 4 0
BBX 3 1 0 2
BITMAP
68
ENDCHAR
STARTCHAR period
ENCODING 46
SWIDTH 266 0
DWIDTH 3 0
BBX 1 2 1 0
BITMAP
40
C0
ENDCHAR
STARTCHAR slash
ENCODING 47
SWIDTH 367 0
DWIDTH 4 0
BBX 4 8 0 0
BITMAP
02
09
0C
18
24
30
60
90
ENDCHAR
STARTCHAR zero
ENCODING 48
SWIDTH 571 0
DWIDTH 6 0
BBX 6 8 0 0
BITMAP
1A80
3090
6060
5060
5060
6060
3090
1A80
ENDCHAR
STARTCHAR one
ENCODING 49
SWIDTH 571 0
DWIDTH 6 0
BBX 3 8 1 0
BITMAP
2C
9C
0C
0C
0C
0C
0C
0C
ENDCHAR
STARTCHAR two
ENCODING 50
SWIDTH 571 0
DWIDTH 6 0
BBX 6 8 0 0
BITMAP
2A80
1090
0090
00C0
0240
0900
2400
7AA0
ENDCHAR
STARTCHAR three
ENCODING 51
SWIDTH 571 0
DWIDTH 6 0
BBX 6 8 0 0
BITMAP
2A80
1090
0180
1B40
0090
0060
0090
6A80
ENDCHAR
STARTCHAR four
ENCODING 52
SWIDTH 571 0
DWIDTH 6 0
BBX 6 8 0 0
BITMAP
01C0
0680
08C0
24C0
50C0
AAE0
00C0
00C0
ENDCHAR
STARTCHAR five
ENCODING 53
SWIDTH 571 0
DWIDTH 6 0
BBX 6 8 0 0
BITMAP
3A80
3000
2000
2A80
0090
0060
0090
6A80
ENDCHAR
STARTCHAR six
ENCODING 54
SWIDTH 571 0
DWIDTH 6 0
BBX 6 8 0 0
BITMAP
0A80
2400
2000
6A80
6060
6020
2060
1A80
ENDCHAR
STARTCHAR seven
ENCODING 55
SWIDTH 571 0
DWIDTH 6 0
BBX 6 8 0 0
BITMAP
6AE0
0090
00C0
0180
0300
0600
0900
1800
ENDCHAR
STARTCHAR eight
ENCODING 56
SWIDTH 571 0
DWIDTH 6 0
BBX 6 8 0 0
BITMAP
2A80
2090
2480
1F40
2090
5060
6060
2A80
ENDCHAR
STARTCHAR nine
ENCODING 57
SWIDTH 571 0
DWIDTH 6 0
BBX 6 8 0 0
BITMAP
1A80
6090
5060
60A0
2AA0
0050
00C0
2A40
ENDCHAR
STARTCHAR colon
ENCODING 58
SWIDTH 266 0
DWIDTH 3 0
BBX 1 6 1 0
BITMAP
C0
40
00
00
40
C0
ENDCHAR
STARTCHAR semicolon
ENCODING 59
SWIDTH 266 0
DWIDTH 3 0
BBX 2 8 0 -2
BITMAP
30
10
00
00
00
70
60
90
ENDCHAR
STARTCHAR less
ENCODING 60
SWIDTH 571 0
DWIDTH 6 0
BBX 6 6 0 1
BITMAP
0060
0680
2800
6400
0640
0060
ENDCHAR
STARTCHAR equal
ENCODING 61
SWIDTH 571 0
DWIDTH 6 0
BBX 6 3 0 2
BITMAP
6A90
0000
6A90
ENDCHAR
STARTCHAR greater
ENCODING 62
SWIDTH 571 0
DWIDTH 6 0
BBX 6 6 0 1
BITMAP
5000
1900
0190
0190
1A00
6000
ENDCHAR
STARTCHAR question
ENCODING 63
SWIDTH 429 0
DWIDTH 5 0
BBX 5 8 0 0
BITMAP
6A00
0240
0240
0600
0800
1400
1000
2400
ENDCHAR
STARTCHAR at
ENCODING 64
SWIDTH 898 0
DWIDTH 10 0
BBX 10 9 0 -1
BITMAP
02A900
180240
21A880
620880
520890
521880
21A640
240000
06A800
ENDCHAR
STARTCHAR A
ENCODING 65
SWIDTH 632 0
DWIDTH 7 0
BBX 7 8 0 0
BITMAP
0300
0640
0DC0
1890
2460
3AB0
6024
8018
ENDCHAR
STARTCHAR B
ENCODING 66
SWIDTH 647 0
DWIDTH 7 0
BBX 6 8 1 0
BITMAP
EA80
C090
C080
EB40
C090
C050
C090
EA40
ENDCHAR
STARTCHAR C
ENCODING 67
SWIDTH 630 0
DWIDTH 7 0
BBX 7 8 0 0
BITMAP
07B4
2800
3000
6000
6000
3000
2800
0BA4
ENDCHAR
STARTCHAR D
ENCODING 68
SWIDTH 729 0
DWIDTH 8 0
BBX 7 8 1 0
BITMAP
EB80
C0A0
C030
C024
C024
C030
C0A0
EF40
ENDCHAR
STARTCHAR E
ENCODING 69
SWIDTH 556 0
DWIDTH 6 0
BBX 5 8 1 0
BITMAP
EA40
C000
C000
EA40
C000
C000
C000
EA40
ENDCHAR
STARTCHAR F
ENCODING 70
SWIDTH 516 0
DWIDTH 6 0
BBX 5 8 1 0
BITMAP
EA40
C000
C000
C000
EA40
C000
C000
C000
ENDCHAR
STARTCHAR G
ENCODING 71
SWIDTH 728 0
DWIDTH 8 0
BBX 8 8 0 0
BITMAP
06B8
2800
3000
6000
606D
3009
2809
0BA8
ENDCHAR
STARTCHAR H
ENCODING 72
SWIDTH 737 0
DWIDTH 8 0
BBX 6 8 1 0
BITMAP
C030
C030
C030
EAB0
C030
C030
C030
C030
ENDCHAR
STARTCHAR I
ENCODING 73
SWIDTH 278 0
DWIDTH 3 0
BBX 1 8 1 0
BITMAP
C0
C0
C0
C0
C0
C0
C0
C0
ENDCHAR
STARTCHAR J
ENCODING 74
SWIDTH 267 0
DWIDTH 3 0
BBX 3 10 -1 -2
BITMAP
0C
0C
0C
0C
0C
0C
0C
0C
08
B4
ENDCHAR
STARTCHAR K
ENCODING 75
SWIDTH 613 0
DWIDTH 7 0
BBX 6 8 1 0
BITMAP
C090
C240
C900
E800
DD00
C700
C180
C090
ENDCHAR
STARTCHAR L
ENCODING 76
SWIDTH 519 0
DWIDTH 6 0
BBX 5 8 1 0
BITMAP
C000
C000
C000
C000
C000
C000
C000
EA40
ENDCHAR
STARTCHAR M
ENCODING 77
SWIDTH 902 0
DWIDTH 10 0
BBX 8 8 1 0
BITMAP
E00B
B00B
E417
C823
C863
C693
C383
C243
ENDCHAR
STARTCHAR N
ENCODING 78
SWIDTH 753 0
DWIDTH 8 0
BBX 7 8 1 0
BITMAP
D024
B024
9824
C924
C324
C1A4
C0B4
C074
ENDCHAR
STARTCHAR O
ENCODING 79
SWIDTH 778 0
DWIDTH 9 0
BBX 8 8 0 0
BITMAP
0BE4
280D
3006
6002
6002
3006
2809
0BA4
ENDCHAR
STARTCHAR P
ENCODING 80
SWIDTH 602 0
DWIDTH 7 0
BBX 5 8 1 0
BITMAP
EA40
C1C0
C0C0
C180
E900
C000
C000
C000
ENDCHAR
STARTCHAR Q
ENCODING 81
SWIDTH 778 0
DWIDTH 9 0
BBX 8 10 0 -2
BITMAP
0BE4
280D
3006
6002
6003
3006
2809
0BF4
0034
001C
ENDCHAR
STARTCHAR R
ENCODING 82
SWIDTH 618 0
DWIDTH 7 0
BBX 6 8 1 0
BITMAP
EA40
C1C0
C0C0
C180
EE00
C300
C180
C090
ENDCHAR
STARTCHAR S
ENCODING 83
SWIDTH 548 0
DWIDTH 6 0
BBX 6 8 0 0
BITMAP
2A80
6000
6000
2900
06C0
0090
0090
6A80
ENDCHAR
STARTCHAR T
ENCODING 84
SWIDTH 553 0
DWIDTH 6 0
BBX 6 8 0 0
BITMAP
AFA0
0600
0600
0600
0600
0600
0600
0600
ENDCHAR
STARTCHAR U
ENCODING 85
SWIDTH 728 0
DWIDTH 8 0
BBX 6 8 1 0
BITMAP
C030
C030
C030
C030
C030
C030
9060
2A80
ENDCHAR
STARTCHAR V
ENCODING 86
SWIDTH 595 0
DWIDTH 7 0
BBX 7 8 0 0
BITMAP
8024
5030
2060
2490
18C0
0D80
0A40
0700
ENDCHAR
STARTCHAR W
ENCODING 87
SWIDTH 925 0
DWIDTH 10 0
BBX 10 8 0 0
BITMAP
90A030
50A060
60A490
315880
260CC0
160980
0E0740
0D0300
ENDCHAR
STARTCHAR X
ENCODING 88
SWIDTH 577 0
DWIDTH 6 0
BBX 6 8 0 0
BITMAP
6060
2490
1980
0B00
0B00
1980
2090
9030
ENDCHAR
STARTCHAR Y
ENCODING 89
SWIDTH 560 0
DWIDTH 6 0
BBX 6 8 0 0
BITMAP
9030
6090
2480
0A40
0A00
0600
0600
0600
ENDCHAR
STARTCHAR Z
ENCODING 90
SWIDTH 570 0
DWIDTH 6 0
BBX 6 8 0 0
BITMAP
6AE0
0090
0180
0300
0900
1800
3000
BAA0
ENDCHAR
STARTCHAR bracketleft
ENCODING 91
SWIDTH 329 0
DWIDTH 4 0
BBX 3 10 1 -2
BITMAP
E4
80
80
80
80
80
80
80
80
E4
ENDCHAR
STARTCHAR backslash
ENCODING 92
SWIDTH 367 0
DWIDTH 4 0
BBX 4 8 0 0
BITMAP
90
60
30
24
18
08
09
02
ENDCHAR
STARTCHAR bracketright
ENCODING 93
SWIDTH 329 0
DWIDTH 4 0
BBX 3 10 0 -2
BITMAP
A8
18
18
18
18
18
18
18
18
A8
ENDCHAR
STARTCHAR asciicircum
ENCODING 94
SWIDTH 541 0
DWIDTH 6 0
BBX 6 5 0 3
BITMAP
0900
0A00
2540
2080
9050
ENDCHAR
STARTCHAR underscore
ENCODING 95
SWIDTH 448 0
DWIDTH 5 0
BBX 5 1 0 -2
BITMAP
AA80
ENDCHAR
STARTCHAR grave
ENCODING 96
SWIDTH 577 0
DWIDTH 6 0
BBX 2 2 2 7
BITMAP
90
20
ENDCHAR
STARTCHAR a
ENCODING 97
SWIDTH 556 0
DWIDTH 6 0
BBX 6 6 0 0
BITMAP
1A80
0080
2AD0
6090
60D0
2A90
ENDCHAR
STARTCHAR b
ENCODING 98
SWIDTH 612 0
DWIDTH 7 0
BBX 5 8 1 0
BITMAP
C000
C000
EA40
D180
C0C0
C0C0
D180
AA40
ENDCHAR
STARTCHAR c
ENCODING 99
SWIDTH 476 0
DWIDTH 5 0
BBX 5 6 0 0
BITMAP
1A80
3000
6000
6000
3000
1A80
ENDCHAR
STARTCHAR d
ENCODING 100
SWIDTH 612 0
DWIDTH 7 0
BBX 6 8 0 0
BITMAP
0020
0020
1AA0
3060
6020
6020
3060
1A60
ENDCHAR
STARTCHAR e
ENCODING 101
SWIDTH 561 0
DWIDTH 6 0
BBX 6 6 0 0
BITMAP
1A80
2090
7A90
6000
3000
1A90
ENDCHAR
STARTCHAR f
ENCODING 102
SWIDTH 338 0
DWIDTH 4 0
BBX 4 8 0 0
BITMAP
1A
20
79
20
20
20
20
20
ENDCHAR
STARTCHAR g
ENCODING 103
SWIDTH 547 0
DWIDTH 6 0
BBX 6 9 0 -3
BITMAP
2AD0
60C0
60C0
2A40
2000
2A90
9060
9060
6A80
ENDCHAR
STARTCHAR h
ENCODING 104
SWIDTH 613 0
DWIDTH 7 0
BBX 5 8 1 0
BITMAP
C000
C000
EA40
D180
C0C0
C0C0
C0C0
C0C0
ENDCHAR
STARTCHAR i
ENCODING 105
SWIDTH 252 0
DWIDTH 3 0
BBX 1 8 1 0
BITMAP
80
00
C0
C0
C0
C0
C0
C0
ENDCHAR
STARTCHAR j
ENCODING 106
SWIDTH 252 0
DWIDTH 3 0
BBX 3 11 -1 -3
BITMAP
08
00
0C
0C
0C
0C
0C
0C
0C
08
74
ENDCHAR
STARTCHAR k
ENCODING 107
SWIDTH 524 0
DWIDTH 6 0
BBX 5 8 1 0
BITMAP
8000
8000
8200
8800
F400
D800
8600
8240
ENDCHAR
STARTCHAR l
ENCODING 108
SWIDTH 252 0
DWIDTH 3 0
BBX 1 8 1 0
BITMAP
C0
C0
C0
C0
C0
C0
C0
C0
ENDCHAR
STARTCHAR m
ENCODING 109
SWIDTH 930 0
DWIDTH 10 0
BBX 9 6 1 0
BITMAP
AA6A00
C1C240
C18240
C18240
C18240
C18240
ENDCHAR
STARTCHAR n
ENCODING 110
SWIDTH 613 0
DWIDTH 7 0
BBX 5 6 1 0
BITMAP
AA40
D180
C0C0
C0C0
C0C0
C0C0
ENDCHAR
STARTCHAR o
ENCODING 111
SWIDTH 604 0
DWIDTH 7 0
BBX 6 6 0 0
BITMAP
1A80
3060
6030
6030
3060
1A80
ENDCHAR
STARTCHAR p
ENCODING 112
SWIDTH 612 0
DWIDTH 7 0
BBX 5 9 1 -3
BITMAP
AA40
D180
C0C0
C0C0
D180
EA40
C000
C000
C000
ENDCHAR
STARTCHAR q
ENCODING 113
SWIDTH 612 0
DWIDTH 7 0
BBX 6 9 0 -3
BITMAP
1A60
3060
6020
6020
3060
1AA0
0020
0020
0020
ENDCHAR
STARTCHAR r
ENCODING 114
SWIDTH 408 0
DWIDTH 4 0
BBX 4 6 1 0
BITMAP
A9
D0
C0
C0
C0
C0
ENDCHAR
STARTCHAR s
ENCODING 115
SWIDTH 477 0
DWIDTH 5 0
BBX 5 6 0 0
BITMAP
2A40
6000
2800
0640
0180
6A40
ENDCHAR
STARTCHAR t
ENCODING 116
SWIDTH 353 0
DWIDTH 4 0
BBX 4 7 0 0
BITMAP
20
79
30
30
30
30
19
ENDCHAR
STARTCHAR u
ENCODING 117
SWIDTH 613 0
DWIDTH 7 0
BBX 5 6 1 0
BITMAP
8080
8080
8080
8080
C180
6980
ENDCHAR
STARTCHAR v
ENCODING 118
SWIDTH 500 0
DWIDTH 6 0
BBX 6 6 0 0
BITMAP
8090
50C0
2180
2640
1A00
0D00
ENDCHAR
STARTCHAR w
ENCODING 119
SWIDTH 777 0
DWIDTH 9 0
BBX 9 6 0 0
BITMAP
91C240
529300
626200
362500
292900
1C1C00
ENDCHAR
STARTCHAR x
ENCODING 120
SWIDTH 523 0
DWIDTH 6 0
BBX 6 6 0 0
BITMAP
6080
2640
0A00
0A00
2540
6090
ENDCHAR
STARTCHAR y
ENCODING 121
SWIDTH 503 0
DWIDTH 6 0
BBX 6 9 0 -3
BITMAP
8090
60C0
3180
2640
1B00
0E00
0900
0800
A400
ENDCHAR
STARTCHAR z
ENCODING 122
SWIDTH 467 0
DWIDTH 5 0
BBX 5 6 0 0
BITMAP
6A80
0200
0900
1800
2000
BA40
ENDCHAR
STARTCHAR braceleft
ENCODING 123
SWIDTH 378 0
DWIDTH 4 0
BBX 4 10 0 -2
BITMAP
0A
18
18
18
64
64
18
18
18
0A
ENDCHAR
STARTCHAR bar
ENCODING 124
SWIDTH 550 0
DWIDTH 6 0
BBX 2 11 2 -3
BITMAP
50
50
50
50
50
50
50
50
50
50
50
ENDCHAR
STARTCHAR braceright
ENCODING 125
SWIDTH 378 0
DWIDTH 4 0
BBX 4 10 0 -2
BITMAP
60
24
18
18
09
09
18
18
14
60
ENDCHAR
STARTCHAR asciitilde
ENCODING 126
SWIDTH 571 0
DWIDTH 6 0
BBX 6 2 0 3
BITMAP
6910
4290
ENDCHAR
STARTCHAR nonbreakingspace
ENCODING 160
SWIDTH 259 0
DWIDTH 3 0
BBX 1 1 0 0
BITMAP
00
ENDCHAR
STARTCHAR exclamdown
ENCODING 161
SWIDTH 267 0
DWIDTH 3 0
BBX 1 8 1 -2
BITMAP
C0
40
80
80
80
C0
C0
C0
ENDCHAR
STARTCHAR cent
ENCODING 162
SWIDTH 571 0
DWIDTH 6 0
BBX 4 8 1 0
BITMAP
08
2A
90
C0
C0
90
2E
08
ENDCHAR
STARTCHAR sterling
ENCODING 163
SWIDTH 571 0
DWIDTH 6 0
BBX 6 8 0 0
BITMAP
0A90
1800
2400
2400
7A40
2400
2000
BAA0
ENDCHAR
STARTCHAR currency
ENCODING 164
SWIDTH 571 0
DWIDTH 6 0
BBX 5 4 1 2
BITMAP
AA40
8240
8240
AA40
ENDCHAR
STARTCHAR yen
ENCODING 165
SWIDTH 571 0
DWIDTH 6 0
BBX 6 8 0 0
BITMAP
9020
2090
1580
0A40
2B90
0600
2B90
0600
ENDCHAR
STARTCHAR brokenbar
ENCODING 166
SWIDTH 550 0
DWIDTH 6 0
BBX 2 11 2 -3
BITMAP
50
50
50
50
00
00
00
50
50
50
50
ENDCHAR
STARTCHAR section
ENCODING 167
SWIDTH 516 0
DWIDTH 6 0
BBX 5 8 0 0
BITMAP
2A80
2000
2E00
2180
2480
0B40
00C0
6A40
ENDCHAR
STARTCHAR dieresis
ENCODING 168
SWIDTH 577 0
DWIDTH 6 0
BBX 4 1 1 7
BITMAP
56
ENDCHAR
STARTCHAR copyright
ENCODING 169
SWIDTH 832 0
DWIDTH 9 0
BBX 9 8 0 0
BITMAP
06A400
140600
12A140
460080
460080
12A140
240600
06A400
ENDCHAR
STARTCHAR ordfeminine
ENCODING 170
SWIDTH 354 0
DWIDTH 4 0
BBX 4 4 0 4
BITMAP
68
05
69
69
ENDCHAR
STARTCHAR guillemotleft
ENCODING 171
SWIDTH 497 0
DWIDTH 5 0
BBX 5 4 0 1
BITMAP
1880
6600
6600
1880
ENDCHAR
STARTCHAR logicalnot
ENCODING 172
SWIDTH 571 0
DWIDTH 6 0
BBX 6 3 0 1
BITMAP
6AA0
0020
0020
ENDCHAR
STARTCHAR uni00AD
ENCODING 173
SWIDTH 321 0
DWIDTH 4 0
BBX 3 1 0 2
BITMAP
68
ENDCHAR
STARTCHAR registered
ENCODING 174
SWIDTH 832 0
DWIDTH 9 0
BBX 9 8 0 0
BITMAP
06A400
140600
13A140
422080
43A080
122540
240600
06A400
ENDCHAR
STARTCHAR overscore
ENCODING 175
SWIDTH 500 0
DWIDTH 6 0
BBX 6 1 0 8
BITMAP
AA90
ENDCHAR
STARTCHAR degree
ENCODING 176
SWIDTH 428 0
DWIDTH 5 0
BBX 4 3 0 5
BITMAP
29
52
29
ENDCHAR
STARTCHAR plusminus
ENCODING 177
SWIDTH 571 0
DWIDTH 6 0
BBX 6 6 0 0
BITMAP
0600
0600
6BA0
0600
0600
6AA0
ENDCHAR
STARTCHAR twosuperior
ENCODING 178
SWIDTH 347 0
DWIDTH 4 0
BBX 4 5 0 3
BITMAP
68
05
08
20
A9
ENDCHAR
STARTCHAR threesuperior
ENCODING 179
SWIDTH 347 0
DWIDTH 4 0
BBX 4 5 0 3
BITMAP
68
09
28
05
A8
ENDCHAR
STARTCHAR acute
ENCODING 180
SWIDTH 577 0
DWIDTH 6 0
BBX 2 2 2 7
BITMAP
30
90
ENDCHAR
STARTCHAR mu
ENCODING 181
SWIDTH 619 0
DWIDTH 7 0
BBX 5 9 1 -3
BITMAP
C0C0
C0C0
C0C0
C0C0
C1C0
EA80
C000
C000
C000
ENDCHAR
STARTCHAR paragraph
ENCODING 182
SWIDTH 654 0
DWIDTH 7 0
BBX 6 10 0 -1
BITMAP
1FA0
3F60
7F60
7F60
3F60
2F60
0160
0160
0160
0160
ENDCHAR
STARTCHAR periodcentered
ENCODING 183
SWIDTH 266 0
DWIDTH 3 0
BBX 1 2 1 3
BITMAP
C0
40
ENDCHAR
STARTCHAR cedilla
ENCODING 184
SWIDTH 227 0
DWIDTH 3 0
BBX 2 3 0 -3
BITMAP
20
20
60
ENDCHAR
STARTCHAR onesuperior
ENCODING 185
SWIDTH 347 0
DWIDTH 4 0
BBX 3 5 0 3
BITMAP
28
58
08
08
08
ENDCHAR
STARTCHAR ordmasculine
ENCODING 186
SWIDTH 375 0
DWIDTH 4 0
BBX 4 4 0 4
BITMAP
29
82
82
29
ENDCHAR
STARTCHAR guillemotright
ENCODING 187
SWIDTH 497 0
DWIDTH 5 0
BBX 5 4 0 1
BITMAP
6200
1580
1580
6200
ENDCHAR
STARTCHAR onequarter
ENCODING 188
SWIDTH 779 0
DWIDTH 9 0
BBX 8 8 0 0
BITMAP
2808
5820
0850
0889
0A59
0255
086A
1405
ENDCHAR
STARTCHAR onehalf
ENCODING 189
SWIDTH 779 0
DWIDTH 9 0
BBX 8 8 0 0
BITMAP
2414
5420
1480
15AA
1602
0505
0818
203A
ENDCHAR
STARTCHAR threequarters
ENCODING 190
SWIDTH 779 0
DWIDTH 9 0
BBX 9 8 0 0
BITMAP
680900
091800
282000
055600
A98A00
026200
062B40
080200
ENDCHAR
STARTCHAR questiondown
ENCODING 191
SWIDTH 429 0
DWIDTH 5 0
BBX 5 8 0 -2
BITMAP
0900
0400
0800
1800
2000
9000
9000
2A40
ENDCHAR
STARTCHAR Agrave
ENCODING 192
SWIDTH 632 0
DWIDTH 7 0
BBX 7 11 0 0
BITMAP
0C00
0600
0000
0300
0640
0DC0
1890
2460
3AB0
6024
8018
ENDCHAR
STARTCHAR Aacute
ENCODING 193
SWIDTH 632 0
DWIDTH 7 0
BBX 7 11 0 0
BITMAP
0180
0200
0000
0300
0640
0DC0
1890
2460
3AB0
6024
8018
ENDCHAR
STARTCHAR Acircumflex
ENCODING 194
SWIDTH 632 0
DWIDTH 7 0
BBX 7 11 0 0
BITMAP
0740
0880
0000
0300
0640
0DC0
1890
2460
3AB0
6024
8018
ENDCHAR
STARTCHAR Atilde
ENCODING 195
SWIDTH 632 0
DWIDTH 7 0
BBX 7 11 0 0
BITMAP
0950
1180
0000
0300
0640
0DC0
1890
2460
3AB0
6024
8018
ENDCHAR
STARTCHAR Adieresis
ENCODING 196
SWIDTH 632 0
DWIDTH 7 0
BBX 7 10 0 0
BITMAP
0880
0000
0300
0640
0DC0
1890
2460
3AB0
6024
8018
ENDCHAR
STARTCHAR Aring
ENCODING 197
SWIDTH 632 0
DWIDTH 7 0
BBX 7 10 0 0
BITMAP
0640
0640
0300
0640
0DC0
1890
2460
3AB0
6024
8018
ENDCHAR
STARTCHAR AE
ENCODING 198
SWIDTH 873 0
DWIDTH 10 0
BBX 9 8 0 0
BITMAP
02FA80
032000
062000
0C3A80
182000
3EE000
602000
903A80
ENDCHAR
STARTCHAR Ccedilla
ENCODING 199
SWIDTH 630 0
DWIDTH 7 0
BBX 7 11 0 -3
BITMAP
07B4
2800
3000
6000
6000
3000
2800
0BA4
0140
0180
0280
ENDCHAR
STARTCHAR Egrave
ENCODING 200
SWIDTH 556 0
DWIDTH 6 0
BBX 5 11 1 0
BITMAP
3000
1800
0000
EA40
C000
C000
EA40
C000
C000
C000
EA40
ENDCHAR
STARTCHAR Eacute
ENCODING 201
SWIDTH 556 0
DWIDTH 6 0
BBX 5 11 1 0
BITMAP
0900
1800
0000
EA40
C000
C000
EA40
C000
C000
C000
EA40
ENDCHAR
STARTCHAR Ecircumflex
ENCODING 202
SWIDTH 556 0
DWIDTH 6 0
BBX 5 11 1 0
BITMAP
2C00
6600
0000
EA40
C000
C000
EA40
C000
C000
C000
EA40
ENDCHAR
STARTCHAR Edieresis
ENCODING 203
SWIDTH 556 0
DWIDTH 6 0
BBX 5 10 1 0
BITMAP
2200
0000
EA40
C000
C000
EA40
C000
C000
C000
EA40
ENDCHAR
STARTCHAR Igrave
ENCODING 204
SWIDTH 278 0
DWIDTH 3 0
BBX 2 11 0 0
BITMAP
90
20
00
30
30
30
30
30
30
30
30
ENDCHAR
STARTCHAR Iacute
ENCODING 205
SWIDTH 278 0
DWIDTH 3 0
BBX 2 11 1 0
BITMAP
60
80
00
C0
C0
C0
C0
C0
C0
C0
C0
ENDCHAR
STARTCHAR Icircumflex
ENCODING 206
SWIDTH 278 0
DWIDTH 3 0
BBX 3 11 0 0
BITMAP
74
88
00
30
30
30
30
30
30
30
30
ENDCHAR
STARTCHAR Idieresis
ENCODING 207
SWIDTH 278 0
DWIDTH 3 0
BBX 3 10 0 0
BITMAP
88
00
30
30
30
30
30
30
30
30
ENDCHAR
STARTCHAR Eth
ENCODING 208
SWIDTH 722 0
DWIDTH 8 0
BBX 8 8 0 0
BITMAP
3AD0
3028
300C
BA09
3009
300C
3028
3B90
ENDCHAR
STARTCHAR Ntilde
ENCODING 209
SWIDTH 753 0
DWIDTH 8 0
BBX 7 11 1 0
BITMAP
1940
2280
0000
D024
B024
9824
C924
C324
C1A4
C0B4
C074
ENDCHAR
STARTCHAR Ograve
ENCODING 210
SWIDTH 778 0
DWIDTH 9 0
BBX 8 11 0 0
BITMAP
0300
0180
0000
0BE4
280D
3006
6002
6002
3006
2809
0BA4
ENDCHAR
STARTCHAR Oacute
ENCODING 211
SWIDTH 778 0
DWIDTH 9 0
BBX 8 11 0 0
BITMAP
0090
0180
0000
0BE4
280D
3006
6002
6002
3006
2809
0BA4
ENDCHAR
STARTCHAR Ocircumflex
ENCODING 212
SWIDTH 778 0
DWIDTH 9 0
BBX 8 11 0 0
BITMAP
02C0
0660
0000
0BE4
280D
3006
6002
6002
3006
2809
0BA4
ENDCHAR
STARTCHAR Otilde
ENCODING 213
SWIDTH 778 0
DWIDTH 9 0
BBX 8 11 0 0
BITMAP
0654
08A0
0000
0BE4
280D
3006
6002
6002
3006
2809
0BA4
ENDCHAR
STARTCHAR Odieresis
ENCODING 214
SWIDTH 778 0
DWIDTH 9 0
BBX 8 10 0 0
BITMAP
0220
0000
0BE4
280D
3006
6002
6002
3006
2809
0BA4
ENDCHAR
STARTCHAR multiply
ENCODING 215
SWIDTH 571 0
DWIDTH 6 0
BBX 5 5 1 1
BITMAP
8140
6600
2C00
6600
8140
ENDCHAR
STARTCHAR Oslash
ENCODING 216
SWIDTH 778 0
DWIDTH 9 0
BBX 8 8 0 0
BITMAP
0BA8
281D
3066
6083
6242
3606
2C09
2AA4
ENDCHAR
STARTCHAR Ugrave
ENCODING 217
SWIDTH 728 0
DWIDTH 8 0
BBX 6 11 1 0
BITMAP
1800
0500
0000
C030
C030
C030
C030
C030
C030
9060
2A80
ENDCHAR
STARTCHAR Uacute
ENCODING 218
SWIDTH 728 0
DWIDTH 8 0
BBX 6 11 1 0
BITMAP
0300
0900
0000
C030
C030
C030
C030
C030
C030
9060
2A80
ENDCHAR
STARTCHAR Ucircumflex
ENCODING 219
SWIDTH 728 0
DWIDTH 8 0
BBX 6 11 1 0
BITMAP
0A00
2540
0000
C030
C030
C030
C030
C030
C030
9060
2A80
ENDCHAR
STARTCHAR Udieresis
ENCODING 220
SWIDTH 728 0
DWIDTH 8 0
BBX 6 10 1 0
BITMAP
1540
0000
C030
C030
C030
C030
C030
C030
9060
2A80
ENDCHAR
STARTCHAR Yacute
ENCODING 221
SWIDTH 560 0
DWIDTH 6 0
BBX 6 11 0 0
BITMAP
0240
0500
0000
9030
6090
2480
0A40
0A00
0600
0600
0600
ENDCHAR
STARTCHAR Thorn
ENCODING 222
SWIDTH 610 0
DWIDTH 7 0
BBX 5 8 1 0
BITMAP
C000
EA40
C0C0
C0C0
C180
EA00
C000
C000
ENDCHAR
STARTCHAR germandbls
ENCODING 223
SWIDTH 622 0
DWIDTH 7 0
BBX 6 8 1 0
BITMAP
6A40
C180
C240
C900
C600
C1C0
C090
DA80
ENDCHAR
STARTCHAR agrave
ENCODING 224
SWIDTH 556 0
DWIDTH 6 0
BBX 6 9 0 0
BITMAP
1800
0500
0000
1A80
0080
2AD0
6090
60D0
2A90
ENDCHAR
STARTCHAR aacute
ENCODING 225
SWIDTH 556 0
DWIDTH 6 0
BBX 6 9 0 0
BITMAP
0340
0500
0000
1A80
0080
2AD0
6090
60D0
2A90
ENDCHAR
STARTCHAR acircumflex
ENCODING 226
SWIDTH 556 0
DWIDTH 6 0
BBX 6 9 0 0
BITMAP
0A00
1580
0000
1A80
0080
2AD0
6090
60D0
2A90
ENDCHAR
STARTCHAR atilde
ENCODING 227
SWIDTH 556 0
DWIDTH 6 0
BBX 6 9 0 0
BITMAP
1880
2280
0000
1A80
0080
2AD0
6090
60D0
2A90
ENDCHAR
STARTCHAR adieresis
ENCODING 228
SWIDTH 556 0
DWIDTH 6 0
BBX 6 8 0 0
BITMAP
1540
0000
1A80
0080
2AD0
6090
60D0
2A90
ENDCHAR
STARTCHAR aring
ENCODING 229
SWIDTH 556 0
DWIDTH 6 0
BBX 6 9 0 0
BITMAP
0A00
0A00
0000
1A80
0080
2AD0
6090
60D0
2A90
ENDCHAR
STARTCHAR ae
ENCODING 230
SWIDTH 857 0
DWIDTH 9 0
BBX 9 6 0 0
BITMAP
2AAA00
00D180
2AEA80
60D000
61E000
2A2A40
ENDCHAR
STARTCHAR ccedilla
ENCODING 231
SWIDTH 476 0
DWIDTH 5 0
BBX 5 9 0 -3
BITMAP
1A80
3000
6000
6000
3000
1A80
0500
0600
0A00
ENDCHAR
STARTCHAR egrave
ENCODING 232
SWIDTH 561 0
DWIDTH 6 0
BBX 6 9 0 0
BITMAP
0C00
0600
0000
1A80
2090
7A90
6000
3000
1A90
ENDCHAR
STARTCHAR eacute
ENCODING 233
SWIDTH 561 0
DWIDTH 6 0
BBX 6 9 0 0
BITMAP
0240
0600
0000
1A80
2090
7A90
6000
3000
1A90
ENDCHAR
STARTCHAR ecircumflex
ENCODING 234
SWIDTH 561 0
DWIDTH 6 0
BBX 6 9 0 0
BITMAP
0B00
1980
0000
1A80
2090
7A90
6000
3000
1A90
ENDCHAR
STARTCHAR edieresis
ENCODING 235
SWIDTH 561 0
DWIDTH 6 0
BBX 6 8 0 0
BITMAP
1880
0000
1A80
2090
7A90
6000
3000
1A90
ENDCHAR
STARTCHAR igrave
ENCODING 236
SWIDTH 252 0
DWIDTH 3 0
BBX 2 9 0 0
BITMAP
C0
60
00
30
30
30
30
30
30
ENDCHAR
STARTCHAR iacute
ENCODING 237
SWIDTH 252 0
DWIDTH 3 0
BBX 2 9 1 0
BITMAP
60
80
00
C0
C0
C0
C0
C0
C0
ENDCHAR
STARTCHAR icircumflex
ENCODING 238
SWIDTH 252 0
DWIDTH 3 0
BBX 4 9 -1 0
BITMAP
1D
62
00
0C
0C
0C
0C
0C
0C
ENDCHAR
STARTCHAR idieresis
ENCODING 239
SWIDTH 252 0
DWIDTH 3 0
BBX 3 8 0 0
BITMAP
88
00
30
30
30
30
30
30
ENDCHAR
STARTCHAR eth
ENCODING 240
SWIDTH 596 0
DWIDTH 7 0
BBX 6 8 0 0
BITMAP
0990
0A80
0090
1AA0
6030
6030
2060
1A80
ENDCHAR
STARTCHAR ntilde
ENCODING 241
SWIDTH 613 0
DWIDTH 7 0
BBX 5 9 1 0
BITMAP
2440
4600
0000
AA40
D180
C0C0
C0C0
C0C0
C0C0
ENDCHAR
STARTCHAR ograve
ENCODING 242
SWIDTH 604 0
DWIDTH 7 0
BBX 6 9 0 0
BITMAP
0900
0200
0000
1A80
3060
6030
6030
3060
1A80
ENDCHAR
STARTCHAR oacute
ENCODING 243
SWIDTH 604 0
DWIDTH 7 0
BBX 6 9 0 0
BITMAP
0240
0600
0000
1A80
3060
6030
6030
3060
1A80
ENDCHAR
STARTCHAR ocircumflex
ENCODING 244
SWIDTH 604 0
DWIDTH 7 0
BBX 6 9 0 0
BITMAP
0700
1880
0000
1A80
3060
6030
6030
3060
1A80
ENDCHAR
STARTCHAR otilde
ENCODING 245
SWIDTH 604 0
DWIDTH 7 0
BBX 6 9 0 0
BITMAP
1950
2280
0000
1A80
3060
6030
6030
3060
1A80
ENDCHAR
STARTCHAR odieresis
ENCODING 246
SWIDTH 604 0
DWIDTH 7 0
BBX 6 8 0 0
BITMAP
0880
0000
1A80
3060
6030
6030
3060
1A80
ENDCHAR
STARTCHAR divide
ENCODING 247
SWIDTH 571 0
DWIDTH 6 0
BBX 6 5 0 1
BITMAP
0600
0000
6AA0
0000
0600
ENDCHAR
STARTCHAR oslash
ENCODING 248
SWIDTH 604 0
DWIDTH 7 0
BBX 6 6 0 0
BITMAP
1AA0
30E0
6270
6530
3860
2A80
ENDCHAR
STARTCHAR ugrave
ENCODING 249
SWIDTH 613 0
DWIDTH 7 0
BBX 5 9 1 0
BITMAP
3000
1800
0000
8080
8080
8080
8080
C180
6980
ENDCHAR
STARTCHAR uacute
ENCODING 250
SWIDTH 613 0
DWIDTH 7 0
BBX 5 9 1 0
BITMAP
0A00
0800
0000
8080
8080
8080
8080
C180
6980
ENDCHAR
STARTCHAR ucircumflex
ENCODING 251
SWIDTH 613 0
DWIDTH 7 0
BBX 5 9 1 0
BITMAP
1C00
6200
0000
8080
8080
8080
8080
C180
6980
ENDCHAR
STARTCHAR udieresis
ENCODING 252
SWIDTH 613 0
DWIDTH 7 0
BBX 5 8 1 0
BITMAP
2200
0000
8080
8080
8080
8080
C180
6980
ENDCHAR
STARTCHAR yacute
ENCODING 253
SWIDTH 503 0
DWIDTH 6 0
BBX 6 12 0 -3
BITMAP
0300
0900
0000
8090
60C0
3180
2640
1B00
0E00
0900
0800
A400
ENDCHAR
STARTCHAR thorn
ENCODING 254
SWIDTH 612 0
DWIDTH 7 0
BBX 5 11 1 -3
BITMAP
C000
C000
EA40
C080
C0C0
C0C0
D180
EA40
C000
C000
C000
ENDCHAR
STARTCHAR ydieresis
ENCODING 255
SWIDTH 503 0
DWIDTH 6 0
BBX 6 11 0 -3
BITMAP
2200
0000
8090
60C0
3180
2640
1B00
0E00
0900
0800
A400
ENDCHAR
STARTCHAR Amacron
ENCODING 256
SWIDTH 632 0
DWIDTH 7 0
BBX 7 10 0 0
BITMAP
0A80
0000
0300
0640
0DC0
1890
2460
3AB0
6024
8018
ENDCHAR
STARTCHAR amacron
ENCODING 257
SWIDTH 556 0
DWIDTH 6 0
BBX 6 8 0 0
BITMAP
1A80
0000
1A80
0080
2AD0
6090
60D0
2A90
ENDCHAR
STARTCHAR Abreve
ENCODING 258
SWIDTH 632 0
DWIDTH 7 0
BBX 7 11 0 0
BITMAP
0480
0A40
0000
0300
0640
0DC0
1890
2460
3AB0
6024
8018
ENDCHAR
STARTCHAR abreve
ENCODING 259
SWIDTH 556 0
DWIDTH 6 0
BBX 6 9 0 0
BITMAP
1080
0A40
0000
1A80
0080
2AD0
6090
60D0
2A90
ENDCHAR
STARTCHAR Aogonek
ENCODING 260
SWIDTH 632 0
DWIDTH 7 0
BBX 7 10 0 -2
BITMAP
0300
0640
0DC0
1890
2460
3AB0
6024
801C
0020
0028
ENDCHAR
STARTCHAR aogonek
ENCODING 261
SWIDTH 556 0
DWIDTH 6 0
BBX 6 8 0 -2
BITMAP
1A80
0080
2AD0
6090
60D0
2AD0
0080
0090
ENDCHAR
STARTCHAR Cacute
ENCODING 262
SWIDTH 630 0
DWIDTH 7 0
BBX 7 11 0 0
BITMAP
0090
0180
0000
07B4
2800
3000
6000
6000
3000
2800
0BA4
ENDCHAR
STARTCHAR cacute
ENCODING 263
SWIDTH 476 0
DWIDTH 5 0
BBX 5 9 0 0
BITMAP
0240
0600
0000
1A80
3000
6000
6000
3000
1A80
ENDCHAR
STARTCHAR Ccircumflex
ENCODING 264
SWIDTH 630 0
DWIDTH 7 0
BBX 7 11 0 0
BITMAP
0280
0560
0000
07B4
2800
3000
6000
6000
3000
2800
0BA4
ENDCHAR
STARTCHAR ccircumflex
ENCODING 265
SWIDTH 476 0
DWIDTH 5 0
BBX 5 9 0 0
BITMAP
0A00
1580
0000
1A80
3000
6000
6000
3000
1A80
ENDCHAR
STARTCHAR Cdot
ENCODING 266
SWIDTH 630 0
DWIDTH 7 0
BBX 7 10 0 0
BITMAP
0080
0000
07B4
2800
3000
6000
6000
3000
2800
0BA4
ENDCHAR
STARTCHAR cdot
ENCODING 267
SWIDTH 476 0
DWIDTH 5 0
BBX 5 8 0 0
BITMAP
0600
0000
1A80
3000
6000
6000
3000
1A80
ENDCHAR
STARTCHAR Ccaron
ENCODING 268
SWIDTH 630 0
DWIDTH 7 0
BBX 7 11 0 0
BITMAP
0620
02C0
0000
07B4
2800
3000
6000
6000
3000
2800
0BA4
ENDCHAR
STARTCHAR ccaron
ENCODING 269
SWIDTH 476 0
DWIDTH 5 0
BBX 5 9 0 0
BITMAP
1980
0A00
0000
1A80
3000
6000
6000
3000
1A80
ENDCHAR
STARTCHAR Dcaron
ENCODING 270
SWIDTH 729 0
DWIDTH 8 0
BBX 7 11 1 0
BITMAP
2240
0D00
0000
EB80
C0A0
C030
C024
C024
C030
C0A0
EF40
ENDCHAR
STARTCHAR dcaron
ENCODING 271
SWIDTH 612 0
DWIDTH 7 0
BBX 8 8 0 0
BITMAP
0025
0028
1AA0
3060
6020
6020
3060
1A60
ENDCHAR
STARTCHAR Dcroat
ENCODING 272
SWIDTH 722 0
DWIDTH 8 0
BBX 8 8 0 0
BITMAP
3AD0
3028
300C
BA09
3009
300C
3028
3B90
ENDCHAR
STARTCHAR dcroat
ENCODING 273
SWIDTH 612 0
DWIDTH 7 0
BBX 7 8 0 0
BITMAP
06B4
0020
1AA0
3060
6020
6020
3060
1A60
ENDCHAR
STARTCHAR Emacron
ENCODING 274
SWIDTH 556 0
DWIDTH 6 0
BBX 5 10 1 0
BITMAP
6A00
0000
EA40
C000
C000
EA40
C000
C000
C000
EA40
ENDCHAR
STARTCHAR emacron
ENCODING 275
SWIDTH 561 0
DWIDTH 6 0
BBX 6 8 0 0
BITMAP
1A80
0000
1A80
2090
7A90
6000
3000
1A90
ENDCHAR
STARTCHAR Ebreve
ENCODING 276
SWIDTH 556 0
DWIDTH 6 0
BBX 5 11 1 0
BITMAP
5200
2900
0000
EA40
C000
C000
EA40
C000
C000
C000
EA40
ENDCHAR
STARTCHAR ebreve
ENCODING 277
SWIDTH 561 0
DWIDTH 6 0
BBX 6 9 0 0
BITMAP
1480
0A40
0000
1A80
2090
7A90
6000
3000
1A90
ENDCHAR
STARTCHAR Edotaccent
ENCODING 278
SWIDTH 556 0
DWIDTH 6 0
BBX 5 10 1 0
BITMAP
0800
0000
EA40
C000
C000
EA40
C000
C000
C000
EA40
ENDCHAR
STARTCHAR edotaccent
ENCODING 279
SWIDTH 561 0
DWIDTH 6 0
BBX 6 8 0 0
BITMAP
0600
0000
1A80
2090
7A90
6000
3000
1A90
ENDCHAR
STARTCHAR Eogonek
ENCODING 280
SWIDTH 556 0
DWIDTH 6 0
BBX 5 10 1 -2
BITMAP
EA40
C000
C000
EA40
C000
C000
C000
EB40
0500
0640
ENDCHAR
STARTCHAR eogonek
ENCODING 281
SWIDTH 561 0
DWIDTH 6 0
BBX 6 8 0 -2
BITMAP
1A80
2090
7A90
6000
3000
1AD0
0140
0180
ENDCHAR
STARTCHAR Ecaron
ENCODING 282
SWIDTH 556 0
DWIDTH 6 0
BBX 5 11 1 0
BITMAP
6200
1C00
0000
EA40
C000
C000
EA40
C000
C000
C000
EA40
ENDCHAR
STARTCHAR ecaron
ENCODING 283
SWIDTH 561 0
DWIDTH 6 0
BBX 6 9 0 0
BITMAP
1980
0B00
0000
1A80
2090
7A90
6000
3000
1A90
ENDCHAR
STARTCHAR Gcircumflex
ENCODING 284
SWIDTH 728 0
DWIDTH 8 0
BBX 8 11 0 0
BITMAP
01D0
0220
0000
06B8
2800
3000
6000
606D
3009
2809
0BA8
ENDCHAR
STARTCHAR gcircumflex
ENCODING 285
SWIDTH 547 0
DWIDTH 6 0
BBX 6 12 0 -3
BITMAP
0A00
2540
0000
2AD0
60C0
60C0
2A40
2000
2A90
9060
9060
6A80
ENDCHAR
STARTCHAR Gbreve
ENCODING 286
SWIDTH 728 0
DWIDTH 8 0
BBX 8 11 0 0
BITMAP
0214
01A0
0000
06B8
2800
3000
6000
606D
3009
2809
0BA8
ENDCHAR
STARTCHAR gbreve
ENCODING 287
SWIDTH 547 0
DWIDTH 6 0
BBX 6 12 0 -3
BITMAP
2080
1A00
0000
2AD0
60C0
60C0
2A40
2000
2A90
9060
9060
6A80
ENDCHAR
STARTCHAR Gdot
ENCODING 288
SWIDTH 728 0
DWIDTH 8 0
BBX 8 10 0 0
BITMAP
0080
0000
06B8
2800
3000
6000
606D
3009
2809
0BA8
ENDCHAR
STARTCHAR gdot
ENCODING 289
SWIDTH 547 0
DWIDTH 6 0
BBX 6 11 0 -3
BITMAP
0500
0000
2AD0
60C0
60C0
2A40
2000
2A90
9060
9060
6A80
ENDCHAR
STARTCHAR Gcommaaccent
ENCODING 290
SWIDTH 728 0
DWIDTH 8 0
BBX 8 11 0 -3
BITMAP
06B8
2800
3000
6000
606D
3009
2809
0BA8
0000
0080
0140
ENDCHAR
STARTCHAR gcommaaccent
ENCODING 291
SWIDTH 547 0
DWIDTH 6 0
BBX 6 12 0 -3
BITMAP
0200
0500
0000
2AD0
60C0
60C0
2A40
2000
2A90
9060
9060
6A80
ENDCHAR
STARTCHAR Hcircumflex
ENCODING 292
SWIDTH 737 0
DWIDTH 8 0
BBX 6 11 1 0
BITMAP
0A00
1580
0000
C030
C030
C030
EAB0
C030
C030
C030
C030
ENDCHAR
STARTCHAR hcircumflex
ENCODING 293
SWIDTH 613 0
DWIDTH 7 0
BBX 5 11 1 0
BITMAP
1D00
2200
0000
C000
C000
EA40
D180
C0C0
C0C0
C0C0
C0C0
ENDCHAR
STARTCHAR Hbar
ENCODING 294
SWIDTH 737 0
DWIDTH 8 0
BBX 8 8 0 0
BITMAP
300C
BAAE
300C
3AAC
300C
300C
300C
300C
ENDCHAR
STARTCHAR hbar
ENCODING 295
SWIDTH 613 0
DWIDTH 7 0
BBX 6 8 0 0
BITMAP
BA40
3000
3A90
3460
3030
3030
3030
3030
ENDCHAR
STARTCHAR Itilde
ENCODING 296
SWIDTH 278 0
DWIDTH 3 0
BBX 5 11 -1 0
BITMAP
2440
5600
0000
0C00
0C00
0C00
0C00
0C00
0C00
0C00
0C00
ENDCHAR
STARTCHAR itilde
ENCODING 297
SWIDTH 252 0
DWIDTH 3 0
BBX 5 9 -1 0
BITMAP
6540
8A00
0000
0C00
0C00
0C00
0C00
0C00
0C00
ENDCHAR
STARTCHAR Imacron
ENCODING 298
SWIDTH 278 0
DWIDTH 3 0
BBX 3 10 0 0
BITMAP
A8
00
30
30
30
30
30
30
30
30
ENDCHAR
STARTCHAR imacron
ENCODING 299
SWIDTH 252 0
DWIDTH 3 0
BBX 3 8 0 0
BITMAP
A8
00
30
30
30
30
30
30
ENDCHAR
STARTCHAR Ibreve
ENCODING 300
SWIDTH 278 0
DWIDTH 3 0
BBX 3 11 0 0
BITMAP
84
A8
00
30
30
30
30
30
30
30
30
ENDCHAR
STARTCHAR ibreve
ENCODING 301
SWIDTH 252 0
DWIDTH 3 0
BBX 4 9 -1 0
BITMAP
52
29
00
0C
0C
0C
0C
0C
0C
ENDCHAR
STARTCHAR Iogonek
ENCODING 302
SWIDTH 278 0
DWIDTH 3 0
BBX 2 10 0 -2
BITMAP
30
30
30
30
30
30
30
30
50
60
ENDCHAR
STARTCHAR iogonek
ENCODING 303
SWIDTH 252 0
DWIDTH 3 0
BBX 2 10 0 -2
BITMAP
20
00
30
30
30
30
30
30
90
A0
ENDCHAR
STARTCHAR Idotaccent
ENCODING 304
SWIDTH 278 0
DWIDTH 3 0
BBX 1 10 1 0
BITMAP
80
00
C0
C0
C0
C0
C0
C0
C0
C0
ENDCHAR
STARTCHAR dotlessi
ENCODING 305
SWIDTH 252 0
DWIDTH 3 0
BBX 1 6 1 0
BITMAP
C0
C0
C0
C0
C0
C0
ENDCHAR
STARTCHAR IJ
ENCODING 306
SWIDTH 545 0
DWIDTH 6 0
BBX 4 10 1 -2
BITMAP
C3
C3
C3
C3
C3
C3
C3
C3
03
2D
ENDCHAR
STARTCHAR ij
ENCODING 307
SWIDTH 505 0
DWIDTH 6 0
BBX 4 11 1 -3
BITMAP
86
00
C6
C6
C6
C6
C6
C6
06
06
2D
ENDCHAR
STARTCHAR Jcircumflex
ENCODING 308
SWIDTH 267 0
DWIDTH 3 0
BBX 4 13 -1 -2
BITMAP
1D
22
00
0C
0C
0C
0C
0C
0C
0C
0C
08
B4
ENDCHAR
STARTCHAR jcircumflex
ENCODING 309
SWIDTH 252 0
DWIDTH 3 0
BBX 4 12 -1 -3
BITMAP
1C
62
00
0C
0C
0C
0C
0C
0C
0C
08
74
ENDCHAR
STARTCHAR Kcommaaccent
ENCODING 310
SWIDTH 613 0
DWIDTH 7 0
BBX 6 11 1 -3
BITMAP
C090
C240
C900
E800
DD00
C700
C180
C090
0000
0C00
1400
ENDCHAR
STARTCHAR kcommaaccent
ENCODING 311
SWIDTH 524 0
DWIDTH 6 0
BBX 5 11 1 -3
BITMAP
8000
8000
8200
8800
F400
D800
8600
8240
0000
1400
2000
ENDCHAR
STARTCHAR kgreenlandic
ENCODING 312
SWIDTH 518 0
DWIDTH 6 0
BBX 5 6 1 0
BITMAP
C300
C900
E400
E800
C600
C240
ENDCHAR
STARTCHAR Lacute
ENCODING 313
SWIDTH 519 0
DWIDTH 6 0
BBX 5 11 1 0
BITMAP
3000
9000
0000
C000
C000
C000
C000
C000
C000
C000
EA40
ENDCHAR
STARTCHAR lacute
ENCODING 314
SWIDTH 252 0
DWIDTH 3 0
BBX 2 11 1 0
BITMAP
60
80
00
C0
C0
C0
C0
C0
C0
C0
C0
ENDCHAR
STARTCHAR Lcommaaccent
ENCODING 315
SWIDTH 519 0
DWIDTH 6 0
BBX 5 11 1 -3
BITMAP
C000
C000
C000
C000
C000
C000
C000
EA40
0000
1400
2000
ENDCHAR
STARTCHAR lcommaaccent
ENCODING 316
SWIDTH 252 0
DWIDTH 3 0
BBX 2 11 0 -3
BITMAP
30
30
30
30
30
30
30
30
00
20
50
ENDCHAR
STARTCHAR Lcaron
ENCODING 317
SWIDTH 519 0
DWIDTH 6 0
BBX 5 8 1 0
BITMAP
C200
C500
C000
C000
C000
C000
C000
EA40
ENDCHAR
STARTCHAR lcaron
ENCODING 318
SWIDTH 252 0
DWIDTH 3 0
BBX 3 8 1 0
BITMAP
D4
E0
C0
C0
C0
C0
C0
C0
ENDCHAR
STARTCHAR Ldot
ENCODING 319
SWIDTH 519 0
DWIDTH 6 0
BBX 5 8 1 0
BITMAP
C000
C000
C000
C000
C600
C000
C000
EA40
ENDCHAR
STARTCHAR ldot
ENCODING 320
SWIDTH 313 0
DWIDTH 3 0
BBX 3 8 1 0
BITMAP
C0
C0
C0
C0
D8
C0
C0
C0
ENDCHAR
STARTCHAR Lslash
ENCODING 321
SWIDTH 522 0
DWIDTH 6 0
BBX 6 8 0 0
BITMAP
3000
3000
3000
3600
3800
B000
3000
3A90
ENDCHAR
STARTCHAR lslash
ENCODING 322
SWIDTH 261 0
DWIDTH 3 0
BBX 3 8 0 0
BITMAP
30
30
30
38
B0
30
30
30
ENDCHAR
STARTCHAR Nacute
ENCODING 323
SWIDTH 753 0
DWIDTH 8 0
BBX 7 11 1 0
BITMAP
0240
0600
0000
D024
B024
9824
C924
C324
C1A4
C0B4
C074
ENDCHAR
STARTCHAR nacute
ENCODING 324
SWIDTH 613 0
DWIDTH 7 0
BBX 5 9 1 0
BITMAP
0600
0800
0000
AA40
D180
C0C0
C0C0
C0C0
C0C0
ENDCHAR
STARTCHAR Ncommaaccent
ENCODING 325
SWIDTH 753 0
DWIDTH 8 0
BBX 7 11 1 -3
BITMAP
D024
B024
9824
C924
C324
C1A4
C0B4
C074
0000
0900
0800
ENDCHAR
STARTCHAR ncommaaccent
ENCODING 326
SWIDTH 613 0
DWIDTH 7 0
BBX 5 9 1 -3
BITMAP
AA40
D180
C0C0
C0C0
C0C0
C0C0
0000
1800
1400
ENDCHAR
STARTCHAR Ncaron
ENCODING 327
SWIDTH 753 0
DWIDTH 8 0
BBX 7 11 1 0
BITMAP
1580
0A00
0000
D024
B024
9824
C924
C324
C1A4
C0B4
C074
ENDCHAR
STARTCHAR ncaron
ENCODING 328
SWIDTH 613 0
DWIDTH 7 0
BBX 5 9 1 0
BITMAP
2200
1D00
0000
AA40
D180
C0C0
C0C0
C0C0
C0C0
ENDCHAR
STARTCHAR napostrophe
ENCODING 329
SWIDTH 681 0
DWIDTH 8 0
BBX 7 8 0 0
BITMAP
9000
9000
9AA0
1C14
1818
1818
1818
1818
ENDCHAR
STARTCHAR Eng
ENCODING 330
SWIDTH 753 0
DWIDTH 8 0
BBX 7 10 1 -2
BITMAP
D024
F024
9824
C924
C224
C1A4
C0B4
C034
0020
01A0
ENDCHAR
STARTCHAR eng
ENCODING 331
SWIDTH 613 0
DWIDTH 7 0
BBX 5 9 1 -3
BITMAP
AA40
D180
C0C0
C0C0
C0C0
C0C0
00C0
0080
0640
ENDCHAR
STARTCHAR Omacron
ENCODING 332
SWIDTH 778 0
DWIDTH 9 0
BBX 8 10 0 0
BITMAP
06A0
0000
0BE4
280D
3006
6002
6002
3006
2809
0BA4
ENDCHAR
STARTCHAR omacron
ENCODING 333
SWIDTH 604 0
DWIDTH 7 0
BBX 6 8 0 0
BITMAP
1A80
0000
1A80
3060
6030
6030
3060
1A80
ENDCHAR
STARTCHAR Obreve
ENCODING 334
SWIDTH 778 0
DWIDTH 9 0
BBX 8 11 0 0
BITMAP
0520
0290
0000
0BE4
280D
3006
6002
6002
3006
2809
0BA4
ENDCHAR
STARTCHAR obreve
ENCODING 335
SWIDTH 604 0
DWIDTH 7 0
BBX 6 9 0 0
BITMAP
1480
0A40
0000
1A80
3060
6030
6030
3060
1A80
ENDCHAR
STARTCHAR Ohungarumlaut
ENCODING 336
SWIDTH 778 0
DWIDTH 9 0
BBX 8 11 0 0
BITMAP
0264
0260
0000
0BE4
280D
3006
6002
6002
3006
2809
0BA4
ENDCHAR
STARTCHAR ohungarumlaut
ENCODING 337
SWIDTH 604 0
DWIDTH 7 0
BBX 6 9 0 0
BITMAP
0990
0980
0000
1A80
3060
6030
6030
3060
1A80
ENDCHAR
STARTCHAR OE
ENCODING 338
SWIDTH 922 0
DWIDTH 10 0
BBX 10 8 0 0
BITMAP
0BFE90
282400
302400
602E90
602400
302400
282400
0BFE90
ENDCHAR
STARTCHAR oe
ENCODING 339
SWIDTH 941 0
DWIDTH 10 0
BBX 10 6 0 0
BITMAP
1A9A80
207060
603AA0
603000
207400
1A8A90
ENDCHAR
STARTCHAR Racute
ENCODING 340
SWIDTH 618 0
DWIDTH 7 0
BBX 6 11 1 0
BITMAP
0600
0800
0000
EA40
C1C0
C0C0
C180
EE00
C300
C180
C090
ENDCHAR
STARTCHAR racute
ENCODING 341
SWIDTH 408 0
DWIDTH 4 0
BBX 4 9 1 0
BITMAP
18
20
00
A9
D0
C0
C0
C0
C0
ENDCHAR
STARTCHAR Rcommaaccent
ENCODING 342
SWIDTH 618 0
DWIDTH 7 0
BBX 6 11 1 -3
BITMAP
EA40
C1C0
C0C0
C180
EE00
C300
C180
C090
0000
0C00
1400
ENDCHAR
STARTCHAR rcommaaccent
ENCODING 343
SWIDTH 408 0
DWIDTH 4 0
BBX 5 9 0 -3
BITMAP
2A40
3400
3000
3000
3000
3000
0000
2000
5000
ENDCHAR
STARTCHAR Rcaron
ENCODING 344
SWIDTH 618 0
DWIDTH 7 0
BBX 6 11 1 0
BITMAP
6200
1D00
0000
EA40
C1C0
C0C0
C180
EE00
C300
C180
C090
ENDCHAR
STARTCHAR rcaron
ENCODING 345
SWIDTH 408 0
DWIDTH 4 0
BBX 4 9 1 0
BITMAP
88
74
00
A9
D0
C0
C0
C0
C0
ENDCHAR
STARTCHAR Sacute
ENCODING 346
SWIDTH 548 0
DWIDTH 6 0
BBX 6 11 0 0
BITMAP
0240
0600
0000
2A80
6000
6000
2900
06C0
0090
0090
6A80
ENDCHAR
STARTCHAR sacute
ENCODING 347
SWIDTH 477 0
DWIDTH 5 0
BBX 5 9 0 0
BITMAP
0600
0800
0000
2A40
6000
2800
0640
0180
6A40
ENDCHAR
STARTCHAR Scircumflex
ENCODING 348
SWIDTH 548 0
DWIDTH 6 0
BBX 6 11 0 0
BITMAP
0A00
1580
0000
2A80
6000
6000
2900
06C0
0090
0090
6A80
ENDCHAR
STARTCHAR scircumflex
ENCODING 349
SWIDTH 477 0
DWIDTH 5 0
BBX 5 9 0 0
BITMAP
0D00
2240
0000
2A40
6000
2800
0640
0180
6A40
ENDCHAR
STARTCHAR Scedilla
ENCODING 350
SWIDTH 548 0
DWIDTH 6 0
BBX 6 11 0 -3
BITMAP
2A80
6000
6000
2900
06C0
0090
0090
6A80
0800
0600
0A00
ENDCHAR
STARTCHAR scedilla
ENCODING 351
SWIDTH 477 0
DWIDTH 5 0
BBX 5 9 0 -3
BITMAP
2A40
6000
2800
0640
0180
6A40
0800
0900
1900
ENDCHAR
STARTCHAR Scaron
ENCODING 352
SWIDTH 548 0
DWIDTH 6 0
BBX 6 11 0 0
BITMAP
1580
0A00
0000
2A80
6000
6000
2900
06C0
0090
0090
6A80
ENDCHAR
STARTCHAR scaron
ENCODING 353
SWIDTH 477 0
DWIDTH 5 0
BBX 5 9 0 0
BITMAP
2240
0D00
0000
2A40
6000
2800
0640
0180
6A40
ENDCHAR
STARTCHAR Tcedilla
ENCODING 354
SWIDTH 553 0
DWIDTH 6 0
BBX 6 11 0 -3
BITMAP
AFA0
0600
0600
0600
0600
0600
0600
0600
0500
0600
0A00
ENDCHAR
STARTCHAR tcedilla
ENCODING 355
SWIDTH 353 0
DWIDTH 4 0
BBX 4 10 0 -3
BITMAP
20
79
30
30
30
30
19
08
09
19
ENDCHAR
STARTCHAR Tcaron
ENCODING 356
SWIDTH 553 0
DWIDTH 6 0
BBX 6 11 0 0
BITMAP
1580
0A00
0000
AFA0
0600
0600
0600
0600
0600
0600
0600
ENDCHAR
STARTCHAR tcaron
ENCODING 357
SWIDTH 353 0
DWIDTH 4 0
BBX 4 8 0 0
BITMAP
02
25
79
30
30
30
30
19
ENDCHAR
STARTCHAR Tbar
ENCODING 358
SWIDTH 553 0
DWIDTH 6 0
BBX 6 8 0 0
BITMAP
AFA0
0600
0600
0600
2F80
0600
0600
0600
ENDCHAR
STARTCHAR tbar
ENCODING 359
SWIDTH 353 0
DWIDTH 4 0
BBX 4 7 0 0
BITMAP
20
79
30
B9
30
30
19
ENDCHAR
STARTCHAR Utilde
ENCODING 360
SWIDTH 728 0
DWIDTH 8 0
BBX 6 11 1 0
BITMAP
1880
2280
0000
C030
C030
C030
C030
C030
C030
9060
2A80
ENDCHAR
STARTCHAR utilde
ENCODING 361
SWIDTH 613 0
DWIDTH 7 0
BBX 5 9 1 0
BITMAP
6540
8A00
0000
8080
8080
8080
8080
C180
6980
ENDCHAR
STARTCHAR Umacron
ENCODING 362
SWIDTH 728 0
DWIDTH 8 0
BBX 6 10 1 0
BITMAP
1A40
0000
C030
C030
C030
C030
C030
C030
9060
2A80
ENDCHAR
STARTCHAR umacron
ENCODING 363
SWIDTH 613 0
DWIDTH 7 0
BBX 5 8 1 0
BITMAP
6A00
0000
8080
8080
8080
8080
C180
6980
ENDCHAR
STARTCHAR Ubreve
ENCODING 364
SWIDTH 728 0
DWIDTH 8 0
BBX 6 11 1 0
BITMAP
2080
1A00
0000
C030
C030
C030
C030
C030
C030
9060
2A80
ENDCHAR
STARTCHAR ubreve
ENCODING 365
SWIDTH 613 0
DWIDTH 7 0
BBX 5 9 1 0
BITMAP
5200
2900
0000
8080
8080
8080
8080
C180
6980
ENDCHAR
STARTCHAR Uring
ENCODING 366
SWIDTH 728 0
DWIDTH 8 0
BBX 6 11 1 0
BITMAP
0A00
0A00
0000
C030
C030
C030
C030
C030
C030
9060
2A80
ENDCHAR
STARTCHAR uring
ENCODING 367
SWIDTH 613 0
DWIDTH 7 0
BBX 5 9 1 0
BITMAP
2900
2900
0000
8080
8080
8080
8080
C180
6980
ENDCHAR
STARTCHAR Uhungarumlaut
ENCODING 368
SWIDTH 728 0
DWIDTH 8 0
BBX 6 11 1 0
BITMAP
09C0
1540
0000
C030
C030
C030
C030
C030
C030
9060
2A80
ENDCHAR
STARTCHAR uhungarumlaut
ENCODING 369
SWIDTH 613 0
DWIDTH 7 0
BBX 5 9 1 0
BITMAP
1A40
2200
0000
8080
8080
8080
8080
C180
6980
ENDCHAR
STARTCHAR Uogonek
ENCODING 370
SWIDTH 728 0
DWIDTH 8 0
BBX 6 10 1 -2
BITMAP
C030
C030
C030
C030
C030
C030
9060
2F80
0800
0A00
ENDCHAR
STARTCHAR uogonek
ENCODING 371
SWIDTH 613 0
DWIDTH 7 0
BBX 5 8 1 -2
BITMAP
8080
8080
8080
8080
C180
69C0
0200
0280
ENDCHAR
STARTCHAR Wcircumflex
ENCODING 372
SWIDTH 925 0
DWIDTH 10 0
BBX 10 11 0 0
BITMAP
00A000
015800
000000
90A030
50A060
60A490
315880
260CC0
160980
0E0740
0D0300
ENDCHAR
STARTCHAR wcircumflex
ENCODING 373
SWIDTH 777 0
DWIDTH 9 0
BBX 9 9 0 0
BITMAP
01C000
062000
000000
91C240
529300
626200
362500
292900
1C1C00
ENDCHAR
STARTCHAR Ycircumflex
ENCODING 374
SWIDTH 560 0
DWIDTH 6 0
BBX 6 11 0 0
BITMAP
0A00
1580
0000
9030
6090
2480
0A40
0A00
0600
0600
0600
ENDCHAR
STARTCHAR ycircumflex
ENCODING 375
SWIDTH 503 0
DWIDTH 6 0
BBX 6 12 0 -3
BITMAP
0E00
2640
0000
8090
60C0
3180
2640
1B00
0E00
0900
0800
A400
ENDCHAR
STARTCHAR Ydieresis
ENCODING 376
SWIDTH 560 0
DWIDTH 6 0
BBX 6 10 0 0
BITMAP
1540
0000
9030
6090
2480
0A40
0A00
0600
0600
0600
ENDCHAR
STARTCHAR Zacute
ENCODING 377
SWIDTH 570 0
DWIDTH 6 0
BBX 6 11 0 0
BITMAP
0240
0600
0000
6AE0
0090
0180
0300
0900
1800
3000
BAA0
ENDCHAR
STARTCHAR zacute
ENCODING 378
SWIDTH 467 0
DWIDTH 5 0
BBX 5 9 0 0
BITMAP
0600
0800
0000
6A80
0200
0900
1800
2000
BA40
ENDCHAR
STARTCHAR Zdotaccent
ENCODING 379
SWIDTH 570 0
DWIDTH 6 0
BBX 6 10 0 0
BITMAP
0600
0000
6AE0
0090
0180
0300
0900
1800
3000
BAA0
ENDCHAR
STARTCHAR zdotaccent
ENCODING 380
SWIDTH 467 0
DWIDTH 5 0
BBX 5 8 0 0
BITMAP
0800
0000
6A80
0200
0900
1800
2000
BA40
ENDCHAR
STARTCHAR Zcaron
ENCODING 381
SWIDTH 570 0
DWIDTH 6 0
BBX 6 11 0 0
BITMAP
1580
0A00
0000
6AE0
0090
0180
0300
0900
1800
3000
BAA0
ENDCHAR
STARTCHAR zcaron
ENCODING 382
SWIDTH 467 0
DWIDTH 5 0
BBX 5 9 0 0
BITMAP
2200
1D00
0000
6A80
0200
0900
1800
2000
BA40
ENDCHAR
STARTCHAR longs
ENCODING 383
SWIDTH 319 0
DWIDTH 4 0
BBX 3 8 1 0
BITMAP
68
C0
C0
C0
C0
C0
C0
C0
ENDCHAR
STARTCHAR florin
ENCODING 402
SWIDTH 577 0
DWIDTH 6 0
BBX 5 11 1 -3
BITMAP
0A40
1800
1800
6E00
1800
1800
1800
1800
1800
1800
A400
ENDCHAR
STARTCHAR Ohorn
ENCODING 416
SWIDTH 779 0
DWIDTH 9 0
BBX 9 8 0 0
BITMAP
0BE580
280A00
300600
600300
600200
300600
280900
0BA400
ENDCHAR
STARTCHAR ohorn
ENCODING 417
SWIDTH 608 0
DWIDTH 7 0
BBX 7 7 0 0
BITMAP
000C
1AA8
2060
6030
6030
3060
1A80
ENDCHAR
STARTCHAR Uhorn
ENCODING 431
SWIDTH 768 0
DWIDTH 8 0
BBX 8 9 1 0
BITMAP
0002
C035
C038
C030
C030
C030
C030
9060
2A80
ENDCHAR
STARTCHAR uhorn
ENCODING 432
SWIDTH 665 0
DWIDTH 7 0
BBX 7 7 1 0
BITMAP
0018
80E4
80C0
8080
8080
C180
6A80
ENDCHAR
STARTCHAR uni01F0
ENCODING 496
SWIDTH 252 0
DWIDTH 3 0
BBX 4 12 -1 -3
BITMAP
22
1D
00
0C
0C
0C
0C
0C
0C
0C
08
74
ENDCHAR
STARTCHAR Aringacute
ENCODING 506
SWIDTH 634 0
DWIDTH 7 0
BBX 7 11 0 0
BITMAP
0240
0000
0640
0980
0740
0980
0880
2460
3AB0
6024
8018
ENDCHAR
STARTCHAR aringacute
ENCODING 507
SWIDTH 556 0
DWIDTH 6 0
BBX 6 11 0 0
BITMAP
0240
0000
0A00
0A00
0000
2A80
0080
2AD0
6090
60D0
2A90
ENDCHAR
STARTCHAR AEacute
ENCODING 508
SWIDTH 873 0
DWIDTH 10 0
BBX 9 11 0 0
BITMAP
000C00
002400
000000
02FA80
032000
062000
0C3A80
182000
3EE000
602000
903A80
ENDCHAR
STARTCHAR aeacute
ENCODING 509
SWIDTH 857 0
DWIDTH 9 0
BBX 9 9 0 0
BITMAP
003000
009000
000000
2AAA00
00D180
2AEA80
60D000
61E000
2A2A40
ENDCHAR
STARTCHAR Oslashacute
ENCODING 510
SWIDTH 778 0
DWIDTH 9 0
BBX 8 11 0 0
BITMAP
0090
0180
0000
0BA8
281D
3066
6083
6242
3606
2C09
2AA4
ENDCHAR
STARTCHAR oslashacute
ENCODING 511
SWIDTH 604 0
DWIDTH 7 0
BBX 6 9 0 0
BITMAP
0240
0600
0000
1AA0
30E0
6270
6530
3860
2A80
ENDCHAR
STARTCHAR Scommaaccent
ENCODING 536
SWIDTH 548 0
DWIDTH 6 0
BBX 6 11 0 -3
BITMAP
2A80
6000
6000
2900
06C0
0090
0090
6A80
0000
0900
0800
ENDCHAR
STARTCHAR scommaaccent
ENCODING 537
SWIDTH 477 0
DWIDTH 5 0
BBX 5 9 0 -3
BITMAP
2A40
6000
2800
0640
0180
6A40
0000
0800
1400
ENDCHAR
STARTCHAR Tcommaaccent
ENCODING 538
SWIDTH 553 0
DWIDTH 6 0
BBX 6 11 0 -3
BITMAP
AFA0
0600
0600
0600
0600
0600
0600
0600
0000
0900
0800
ENDCHAR
STARTCHAR tcommaaccent
ENCODING 539
SWIDTH 353 0
DWIDTH 4 0
BBX 4 10 0 -3
BITMAP
20
79
30
30
30
30
19
00
18
20
ENDCHAR
STARTCHAR dotlessj
ENCODING 567
SWIDTH 252 0
DWIDTH 3 0
BBX 3 9 -1 -3
BITMAP
0C
0C
0C
0C
0C
0C
0C
08
74
ENDCHAR
STARTCHAR uni02BC
ENCODING 700
SWIDTH 169 0
DWIDTH 2 0
BBX 2 3 0 5
BITMAP
60
90
80
ENDCHAR
STARTCHAR circumflex
ENCODING 710
SWIDTH 591 0
DWIDTH 7 0
BBX 4 2 1 7
BITMAP
2C
66
ENDCHAR
STARTCHAR caron
ENCODING 711
SWIDTH 591 0
DWIDTH 7 0
BBX 4 2 1 7
BITMAP
62
2C
ENDCHAR
STARTCHAR macron
ENCODING 713
SWIDTH 586 0
DWIDTH 6 0
BBX 4 1 1 7
BITMAP
6A
ENDCHAR
STARTCHAR breve
ENCODING 728
SWIDTH 591 0
DWIDTH 7 0
BBX 4 2 1 7
BITMAP
52
29
ENDCHAR
STARTCHAR dotaccent
ENCODING 729
SWIDTH 252 0
DWIDTH 3 0
BBX 1 1 1 7
BITMAP
80
ENDCHAR
STARTCHAR ring
ENCODING 730
SWIDTH 577 0
DWIDTH 6 0
BBX 3 2 2 7
BITMAP
A4
A4
ENDCHAR
STARTCHAR ogonek
ENCODING 731
SWIDTH 196 0
DWIDTH 2 0
BBX 2 3 0 -2
BITMAP
10
80
A0
ENDCHAR
STARTCHAR tilde
ENCODING 732
SWIDTH 591 0
DWIDTH 7 0
BBX 5 2 1 7
BITMAP
2540
4A00
ENDCHAR
STARTCHAR hungarumlaut
ENCODING 733
SWIDTH 577 0
DWIDTH 6 0
BBX 4 2 1 7
BITMAP
36
99
ENDCHAR
STARTCHAR uni02F3
ENCODING 755
SWIDTH 333 0
DWIDTH 4 0
BBX 3 2 0 -3
BITMAP
68
68
ENDCHAR
STARTCHAR uni0300
ENCODING 768
SWIDTH 0 0
DWIDTH 0 0
BBX 2 2 -5 7
BITMAP
90
20
ENDCHAR
STARTCHAR uni0301
ENCODING 769
SWIDTH 0 0
DWIDTH 0 0
BBX 2 2 -4 7
BITMAP
60
80
ENDCHAR
STARTCHAR uni0303
ENCODING 771
SWIDTH 0 0
DWIDTH 0 0
BBX 5 2 -6 7
BITMAP
2880
5640
ENDCHAR
STARTCHAR hook
ENCODING 777
SWIDTH 0 0
DWIDTH 0 0
BBX 2 3 -4 6
BITMAP
A0
60
80
ENDCHAR
STARTCHAR uni030F
ENCODING 783
SWIDTH 0 0
DWIDTH 0 0
BBX 4 2 -6 7
BITMAP
65
22
ENDCHAR
STARTCHAR dotbelow
ENCODING 803
SWIDTH 0 0
DWIDTH 0 0
BBX 1 1 -4 -2
BITMAP
80
ENDCHAR
STARTCHAR tonos
ENCODING 900
SWIDTH 577 0
DWIDTH 6 0
BBX 1 2 3 7
BITMAP
C0
80
ENDCHAR
STARTCHAR dieresistonos
ENCODING 901
SWIDTH 577 0
DWIDTH 6 0
BBX 4 2 1 7
BITMAP
0C
5A
ENDCHAR
STARTCHAR Alphatonos
ENCODING 902
SWIDTH 632 0
DWIDTH 7 0
BBX 7 8 0 0
BITMAP
5300
8640
0DC0
1890
2460
3AB0
6024
8018
ENDCHAR
STARTCHAR anoteleia
ENCODING 903
SWIDTH 266 0
DWIDTH 3 0
BBX 1 2 1 3
BITMAP
C0
40
ENDCHAR
STARTCHAR Epsilontonos
ENCODING 904
SWIDTH 618 0
DWIDTH 7 0
BBX 6 8 0 0
BITMAP
9EA0
9800
1800
1EA0
1800
1800
1800
1EA0
ENDCHAR
STARTCHAR Etatonos
ENCODING 905
SWIDTH 811 0
DWIDTH 9 0
BBX 8 8 0 0
BITMAP
9803
8803
0803
0EAB
0803
0803
0803
0803
ENDCHAR
STARTCHAR Iotatonos
ENCODING 906
SWIDTH 361 0
DWIDTH 4 0
BBX 3 8 0 0
BITMAP
9C
8C
0C
0C
0C
0C
0C
0C
ENDCHAR
STARTCHAR Omicrontonos
ENCODING 908
SWIDTH 812 0
DWIDTH 9 0
BBX 9 8 0 0
BITMAP
96F800
980A00
240300
300240
300240
240300
180A00
06B800
ENDCHAR
STARTCHAR Upsilontonos
ENCODING 910
SWIDTH 689 0
DWIDTH 8 0
BBX 8 8 0 0
BITMAP
9809
8918
0624
0260
01D0
00C0
00C0
00C0
ENDCHAR
STARTCHAR Omegatonos
ENCODING 911
SWIDTH 812 0
DWIDTH 9 0
BBX 9 8 0 0
BITMAP
96A800
980A00
240300
300240
200300
240200
090900
6F2E40
ENDCHAR
STARTCHAR iotadieresistonos
ENCODING 912
SWIDTH 338 0
DWIDTH 4 0
BBX 4 9 0 0
BITMAP
24
A8
00
20
20
20
20
30
29
ENDCHAR
STARTCHAR Alpha
ENCODING 913
SWIDTH 632 0
DWIDTH 7 0
BBX 7 8 0 0
BITMAP
0300
0640
0DC0
1890
2460
3AB0
6024
8018
ENDCHAR
STARTCHAR Beta
ENCODING 914
SWIDTH 647 0
DWIDTH 7 0
BBX 6 8 1 0
BITMAP
EA80
C090
C080
EB40
C090
C050
C090
EA40
ENDCHAR
STARTCHAR Gamma
ENCODING 915
SWIDTH 520 0
DWIDTH 6 0
BBX 5 8 1 0
BITMAP
EA40
C000
C000
C000
C000
C000
C000
C000
ENDCHAR
STARTCHAR uni0394
ENCODING 916
SWIDTH 571 0
DWIDTH 6 0
BBX 6 8 0 0
BITMAP
0600
0A00
0940
1480
2080
2050
5020
BAB0
ENDCHAR
STARTCHAR Epsilon
ENCODING 917
SWIDTH 556 0
DWIDTH 6 0
BBX 5 8 1 0
BITMAP
EA40
C000
C000
EA40
C000
C000
C000
EA40
ENDCHAR
STARTCHAR Zeta
ENCODING 918
SWIDTH 570 0
DWIDTH 6 0
BBX 6 8 0 0
BITMAP
6AE0
0090
0180
0300
0900
1800
3000
BAA0
ENDCHAR
STARTCHAR Eta
ENCODING 919
SWIDTH 737 0
DWIDTH 8 0
BBX 6 8 1 0
BITMAP
C030
C030
C030
EAB0
C030
C030
C030
C030
ENDCHAR
STARTCHAR Theta
ENCODING 920
SWIDTH 778 0
DWIDTH 9 0
BBX 8 8 0 0
BITMAP
0BE4
280D
3006
6002
66A2
3006
2809
0BA4
ENDCHAR
STARTCHAR Iota
ENCODING 921
SWIDTH 278 0
DWIDTH 3 0
BBX 1 8 1 0
BITMAP
C0
C0
C0
C0
C0
C0
C0
C0
ENDCHAR
STARTCHAR Kappa
ENCODING 922
SWIDTH 613 0
DWIDTH 7 0
BBX 6 8 1 0
BITMAP
C090
C240
C900
E800
DD00
C700
C180
C090
ENDCHAR
STARTCHAR Lambda
ENCODING 923
SWIDTH 603 0
DWIDTH 7 0
BBX 7 8 0 0
BITMAP
0700
0A40
0D80
18C0
2490
3060
6030
8024
ENDCHAR
STARTCHAR Mu
ENCODING 924
SWIDTH 902 0
DWIDTH 10 0
BBX 8 8 1 0
BITMAP
E00B
B00B
E417
C823
C863
C693
C383
C243
ENDCHAR
STARTCHAR Nu
ENCODING 925
SWIDTH 753 0
DWIDTH 8 0
BBX 7 8 1 0
BITMAP
D024
B024
9824
C924
C324
C1A4
C0B4
C074
ENDCHAR
STARTCHAR Xi
ENCODING 926
SWIDTH 553 0
DWIDTH 6 0
BBX 6 8 0 0
BITMAP
6A90
0000
0000
2A80
0000
0000
0000
6AA0
ENDCHAR
STARTCHAR Omicron
ENCODING 927
SWIDTH 778 0
DWIDTH 9 0
BBX 8 8 0 0
BITMAP
0BE4
280D
3006
6002
6002
3006
2809
0BA4
ENDCHAR
STARTCHAR Pi
ENCODING 928
SWIDTH 729 0
DWIDTH 8 0
BBX 6 8 1 0
BITMAP
EAB0
C030
C030
C030
C030
C030
C030
C030
ENDCHAR
STARTCHAR Rho
ENCODING 929
SWIDTH 602 0
DWIDTH 7 0
BBX 5 8 1 0
BITMAP
EA40
C1C0
C0C0
C180
E900
C000
C000
C000
ENDCHAR
STARTCHAR Sigma
ENCODING 931
SWIDTH 566 0
DWIDTH 6 0
BBX 6 8 0 0
BITMAP
BAA0
2000
0800
0600
0900
1800
2000
BAA0
ENDCHAR
STARTCHAR Tau
ENCODING 932
SWIDTH 553 0
DWIDTH 6 0
BBX 6 8 0 0
BITMAP
AFA0
0600
0600
0600
0600
0600
0600
0600
ENDCHAR
STARTCHAR Upsilon
ENCODING 933
SWIDTH 560 0
DWIDTH 6 0
BBX 6 8 0 0
BITMAP
9030
6090
2480
0A40
0A00
0600
0600
0600
ENDCHAR
STARTCHAR Phi
ENCODING 934
SWIDTH 797 0
DWIDTH 9 0
BBX 8 8 0 0
BITMAP
00C0
1AE8
30C6
60C2
60C2
30C6
1AE8
00C0
ENDCHAR
STARTCHAR Chi
ENCODING 935
SWIDTH 577 0
DWIDTH 6 0
BBX 6 8 0 0
BITMAP
6060
2490
1980
0B00
0B00
1980
2090
9030
ENDCHAR
STARTCHAR Psi
ENCODING 936
SWIDTH 795 0
DWIDTH 9 0
BBX 9 8 0 0
BITMAP
608240
608240
608240
608300
348A00
0AE800
008000
008000
ENDCHAR
STARTCHAR uni03A9
ENCODING 937
SWIDTH 782 0
DWIDTH 9 0
BBX 8 8 0 0
BITMAP
0AA4
2409
3006
6003
6006
3005
1818
6E3E
ENDCHAR
STARTCHAR Iotadieresis
ENCODING 938
SWIDTH 278 0
DWIDTH 3 0
BBX 3 10 0 0
BITMAP
88
00
30
30
30
30
30
30
30
30
ENDCHAR
STARTCHAR Upsilondieresis
ENCODING 939
SWIDTH 560 0
DWIDTH 6 0
BBX 6 10 0 0
BITMAP
1540
0000
9030
6090
2480
0A40
0A00
0600
0600
0600
ENDCHAR
STARTCHAR alphatonos
ENCODING 940
SWIDTH 610 0
DWIDTH 7 0
BBX 7 9 0 0
BITMAP
0240
0200
0000
1A60
3060
6020
6020
2060
1A64
ENDCHAR
STARTCHAR epsilontonos
ENCODING 941
SWIDTH 475 0
DWIDTH 5 0
BBX 5 9 0 0
BITMAP
0600
0500
0000
2A80
6000
2A00
6000
6000
2A80
ENDCHAR
STARTCHAR etatonos
ENCODING 942
SWIDTH 613 0
DWIDTH 7 0
BBX 5 12 1 -3
BITMAP
0900
0800
0000
AA40
D180
C0C0
C0C0
C0C0
C0C0
00C0
00C0
00C0
ENDCHAR
STARTCHAR iotatonos
ENCODING 943
SWIDTH 338 0
DWIDTH 4 0
BBX 3 9 1 0
BITMAP
90
80
00
80
80
80
80
C0
A4
ENDCHAR
STARTCHAR upsilondieresistonos
ENCODING 944
SWIDTH 608 0
DWIDTH 7 0
BBX 5 9 1 0
BITMAP
0900
2A00
0000
80C0
80C0
8080
80C0
C180
6A00
ENDCHAR
STARTCHAR alpha
ENCODING 945
SWIDTH 610 0
DWIDTH 7 0
BBX 7 6 0 0
BITMAP
1A60
3060
6020
6020
2060
1A64
ENDCHAR
STARTCHAR beta
ENCODING 946
SWIDTH 627 0
DWIDTH 7 0
BBX 6 11 1 -3
BITMAP
6A40
80C0
C1C0
CA40
C080
C090
C090
FA40
C000
C000
C000
ENDCHAR
STARTCHAR gamma
ENCODING 947
SWIDTH 512 0
DWIDTH 6 0
BBX 6 9 0 -3
BITMAP
9090
60C0
3180
2640
1B00
0A00
0900
0C00
0C00
ENDCHAR
STARTCHAR delta
ENCODING 948
SWIDTH 580 0
DWIDTH 6 0
BBX 6 8 0 0
BITMAP
0A90
1800
0900
0A80
2060
6030
6060
1A80
ENDCHAR
STARTCHAR epsilon
ENCODING 949
SWIDTH 475 0
DWIDTH 5 0
BBX 5 6 0 0
BITMAP
2A80
6000
2A00
6000
6000
2A80
ENDCHAR
STARTCHAR zeta
ENCODING 950
SWIDTH 482 0
DWIDTH 5 0
BBX 5 10 0 -2
BITMAP
2AC0
0200
0800
2400
6000
6000
7000
1A40
00C0
0180
ENDCHAR
STARTCHAR eta
ENCODING 951
SWIDTH 613 0
DWIDTH 7 0
BBX 5 9 1 -3
BITMAP
AA40
D180
C0C0
C0C0
C0C0
C0C0
00C0
00C0
00C0
ENDCHAR
STARTCHAR theta
ENCODING 952
SWIDTH 591 0
DWIDTH 7 0
BBX 6 8 0 0
BITMAP
1A80
2050
6020
7AB0
6030
6060
3090
1A80
ENDCHAR
STARTCHAR iota
ENCODING 953
SWIDTH 338 0
DWIDTH 4 0
BBX 3 6 1 0
BITMAP
80
80
80
80
C0
A4
ENDCHAR
STARTCHAR kappa
ENCODING 954
SWIDTH 518 0
DWIDTH 6 0
BBX 5 6 1 0
BITMAP
C300
C900
E400
E800
C600
C240
ENDCHAR
STARTCHAR lambda
ENCODING 955
SWIDTH 534 0
DWIDTH 6 0
BBX 6 8 0 0
BITMAP
6400
0C00
0900
0A00
1600
2180
60C0
8060
ENDCHAR
STARTCHAR uni03BC
ENCODING 956
SWIDTH 619 0
DWIDTH 7 0
BBX 5 9 1 -3
BITMAP
C0C0
C0C0
C0C0
C0C0
C1C0
EA80
C000
C000
C000
ENDCHAR
STARTCHAR nu
ENCODING 957
SWIDTH 541 0
DWIDTH 6 0
BBX 6 6 0 0
BITMAP
8050
5050
2090
2480
1A40
0E00
ENDCHAR
STARTCHAR xi
ENCODING 958
SWIDTH 475 0
DWIDTH 5 0
BBX 5 10 0 -2
BITMAP
2E40
2400
3400
1E40
2000
6000
3400
1B80
00C0
0180
ENDCHAR
STARTCHAR omicron
ENCODING 959
SWIDTH 604 0
DWIDTH 7 0
BBX 6 6 0 0
BITMAP
1A80
3060
6030
6030
3060
1A80
ENDCHAR
STARTCHAR pi
ENCODING 960
SWIDTH 649 0
DWIDTH 7 0
BBX 7 6 0 0
BITMAP
BAB8
2460
2460
2460
2460
2434
ENDCHAR
STARTCHAR rho
ENCODING 961
SWIDTH 604 0
DWIDTH 7 0
BBX 5 9 1 -3
BITMAP
2A00
8180
C0C0
80C0
C180
EA00
8000
8000
8000
ENDCHAR
STARTCHAR sigma1
ENCODING 962
SWIDTH 481 0
DWIDTH 5 0
BBX 5 8 0 -2
BITMAP
1A80
3000
6000
6000
3400
1B40
00C0
0180
ENDCHAR
STARTCHAR sigma
ENCODING 963
SWIDTH 612 0
DWIDTH 7 0
BBX 7 6 0 0
BITMAP
1AE4
3060
6030
6030
3060
1A80
ENDCHAR
STARTCHAR tau
ENCODING 964
SWIDTH 473 0
DWIDTH 5 0
BBX 5 6 0 0
BITMAP
BE80
1800
1800
1800
1800
0A40
ENDCHAR
STARTCHAR upsilon
ENCODING 965
SWIDTH 608 0
DWIDTH 7 0
BBX 5 6 1 0
BITMAP
80C0
80C0
8080
80C0
C180
6A00
ENDCHAR
STARTCHAR phi
ENCODING 966
SWIDTH 717 0
DWIDTH 8 0
BBX 8 9 0 -3
BITMAP
24A4
214C
6249
6249
325C
1BE0
0240
0240
0240
ENDCHAR
STARTCHAR chi
ENCODING 967
SWIDTH 545 0
DWIDTH 6 0
BBX 6 9 0 -3
BITMAP
A090
2480
1A40
0E00
0900
1A00
2240
6180
80A0
ENDCHAR
STARTCHAR psi
ENCODING 968
SWIDTH 752 0
DWIDTH 8 0
BBX 7 11 1 -3
BITMAP
0600
0600
8624
8618
8618
C614
9624
2B90
0600
0600
0600
ENDCHAR
STARTCHAR omega
ENCODING 969
SWIDTH 772 0
DWIDTH 9 0
BBX 8 6 0 0
BITMAP
3009
6006
6183
6183
21C6
1A68
ENDCHAR
STARTCHAR iotadieresis
ENCODING 970
SWIDTH 338 0
DWIDTH 4 0
BBX 4 8 0 0
BITMAP
88
00
20
20
20
20
30
29
ENDCHAR
STARTCHAR upsilondieresis
ENCODING 971
SWIDTH 608 0
DWIDTH 7 0
BBX 5 8 1 0
BITMAP
2200
0000
80C0
80C0
8080
80C0
C180
6A00
ENDCHAR
STARTCHAR omicrontonos
ENCODING 972
SWIDTH 604 0
DWIDTH 7 0
BBX 6 9 0 0
BITMAP
0240
0200
0000
1A80
3060
6030
6030
3060
1A80
ENDCHAR
STARTCHAR upsilontonos
ENCODING 973
SWIDTH 608 0
DWIDTH 7 0
BBX 5 9 1 0
BITMAP
0900
0800
0000
80C0
80C0
8080
80C0
C180
6A00
ENDCHAR
STARTCHAR omegatonos
ENCODING 974
SWIDTH 772 0
DWIDTH 9 0
BBX 8 9 0 0
BITMAP
0080
0080
0000
3009
6006
6183
6183
21C6
1A68
ENDCHAR
STARTCHAR uni03D1
ENCODING 977
SWIDTH 622 0
DWIDTH 7 0
BBX 7 8 0 0
BITMAP
1A80
2490
1920
06B4
A030
3020
3090
2A80
ENDCHAR
STARTCHAR uni03D2
ENCODING 978
SWIDTH 564 0
DWIDTH 6 0
BBX 6 8 0 0
BITMAP
9070
6080
2580
1A00
0A00
0500
0500
0500
ENDCHAR
STARTCHAR uni03D6
ENCODING 982
SWIDTH 839 0
DWIDTH 9 0
BBX 9 6 0 0
BITMAP
BEAF80
240200
300300
30C200
30C300
1A6900
ENDCHAR
STARTCHAR uni0400
ENCODING 1024
SWIDTH 556 0
DWIDTH 6 0
BBX 5 11 1 0
BITMAP
2400
0800
0000
EA40
C000
C000
EA40
C000
C000
C000
EA40
ENDCHAR
STARTCHAR afii10023
ENCODING 1025
SWIDTH 556 0
DWIDTH 6 0
BBX 5 10 1 0
BITMAP
2200
0000
EA40
C000
C000
EA40
C000
C000
C000
EA40
ENDCHAR
STARTCHAR afii10051
ENCODING 1026
SWIDTH 733 0
DWIDTH 8 0
BBX 8 8 0 0
BITMAP
AE80
0800
0800
0EB4
080C
0809
0808
0878
ENDCHAR
STARTCHAR afii10052
ENCODING 1027
SWIDTH 520 0
DWIDTH 6 0
BBX 5 11 1 0
BITMAP
0900
1800
0000
EA40
C000
C000
C000
C000
C000
C000
C000
ENDCHAR
STARTCHAR afii10053
ENCODING 1028
SWIDTH 639 0
DWIDTH 7 0
BBX 7 8 0 0
BITMAP
0BF4
2800
2000
7A90
6000
3000
2800
0BA4
ENDCHAR
STARTCHAR afii10054
ENCODING 1029
SWIDTH 548 0
DWIDTH 6 0
BBX 6 8 0 0
BITMAP
2A80
6000
6000
2900
06C0
0090
0090
6A80
ENDCHAR
STARTCHAR afii10055
ENCODING 1030
SWIDTH 278 0
DWIDTH 3 0
BBX 1 8 1 0
BITMAP
C0
C0
C0
C0
C0
C0
C0
C0
ENDCHAR
STARTCHAR afii10056
ENCODING 1031
SWIDTH 278 0
DWIDTH 3 0
BBX 3 10 0 0
BITMAP
88
00
30
30
30
30
30
30
30
30
ENDCHAR
STARTCHAR afii10057
ENCODING 1032
SWIDTH 267 0
DWIDTH 3 0
BBX 3 10 -1 -2
BITMAP
0C
0C
0C
0C
0C
0C
0C
0C
08
B4
ENDCHAR
STARTCHAR afii10058
ENCODING 1033
SWIDTH 929 0
DWIDTH 10 0
BBX 10 8 0 0
BITMAP
0BB000
082000
0C2000
0C2E80
182060
182060
2420A0
A02A80
ENDCHAR
STARTCHAR afii10059
ENCODING 1034
SWIDTH 953 0
DWIDTH 10 0
BBX 9 8 1 0
BITMAP
C09000
C09000
C09000
EAFA40
C091C0
C090C0
C091C0
C0BA40
ENDCHAR
STARTCHAR afii10060
ENCODING 1035
SWIDTH 733 0
DWIDTH 8 0
BBX 8 8 0 0
BITMAP
AE90
0800
0800
0EB4
080C
0809
0809
0809
ENDCHAR
STARTCHAR afii10061
ENCODING 1036
SWIDTH 611 0
DWIDTH 7 0
BBX 6 11 1 0
BITMAP
0600
0800
0000
C090
C240
C900
E400
E800
CA00
C240
C090
ENDCHAR
STARTCHAR uni040D
ENCODING 1037
SWIDTH 762 0
DWIDTH 8 0
BBX 7 11 1 0
BITMAP
0C00
0600
0000
C034
C0A4
C1A4
C324
C924
9824
F024
D024
ENDCHAR
STARTCHAR afii10062
ENCODING 1038
SWIDTH 621 0
DWIDTH 7 0
BBX 7 11 0 0
BITMAP
1450
0A80
0000
9018
3020
2460
0C90
0A80
0340
0700
7900
ENDCHAR
STARTCHAR afii10145
ENCODING 1039
SWIDTH 729 0
DWIDTH 8 0
BBX 6 10 1 -2
BITMAP
C030
C030
C030
C030
C030
C030
C030
EAB0
0900
0900
ENDCHAR
STARTCHAR afii10017
ENCODING 1040
SWIDTH 632 0
DWIDTH 7 0
BBX 7 8 0 0
BITMAP
0300
0640
0DC0
1890
2460
3AB0
6024
8018
ENDCHAR
STARTCHAR afii10018
ENCODING 1041
SWIDTH 612 0
DWIDTH 7 0
BBX 5 8 1 0
BITMAP
EA80
C000
C000
EA40
C0C0
C080
C0C0
EA40
ENDCHAR
STARTCHAR afii10019
ENCODING 1042
SWIDTH 647 0
DWIDTH 7 0
BBX 6 8 1 0
BITMAP
EA80
C090
C080
EB40
C090
C050
C090
EA40
ENDCHAR
STARTCHAR afii10020
ENCODING 1043
SWIDTH 520 0
DWIDTH 6 0
BBX 5 8 1 0
BITMAP
EA40
C000
C000
C000
C000
C000
C000
C000
ENDCHAR
STARTCHAR afii10021
ENCODING 1044
SWIDTH 683 0
DWIDTH 8 0
BBX 8 10 0 -2
BITMAP
07B4
0524
0924
0C24
1824
2424
3024
BABD
C009
C009
ENDCHAR
STARTCHAR afii10022
ENCODING 1045
SWIDTH 556 0
DWIDTH 6 0
BBX 5 8 1 0
BITMAP
EA40
C000
C000
EA40
C000
C000
C000
EA40
ENDCHAR
STARTCHAR afii10024
ENCODING 1046
SWIDTH 844 0
DWIDTH 9 0
BBX 9 8 0 0
BITMAP
608180
248200
088900
02E400
06A800
088900
248200
908180
ENDCHAR
STARTCHAR afii10025
ENCODING 1047
SWIDTH 581 0
DWIDTH 6 0
BBX 6 8 0 0
BITMAP
6A80
0060
0090
2B80
00A0
0060
00A0
6A80
ENDCHAR
STARTCHAR afii10026
ENCODING 1048
SWIDTH 762 0
DWIDTH 8 0
BBX 7 8 1 0
BITMAP
C034
C0A4
C1A4
C324
C924
9824
F024
D024
ENDCHAR
STARTCHAR afii10027
ENCODING 1049
SWIDTH 762 0
DWIDTH 8 0
BBX 7 11 1 0
BITMAP
2490
0A80
0000
C034
C0A4
C1A4
C324
C924
9824
F024
D024
ENDCHAR
STARTCHAR afii10028
ENCODING 1050
SWIDTH 611 0
DWIDTH 7 0
BBX 6 8 1 0
BITMAP
C090
C240
C900
E400
E800
CA00
C240
C090
ENDCHAR
STARTCHAR afii10029
ENCODING 1051
SWIDTH 704 0
DWIDTH 8 0
BBX 7 8 0 0
BITMAP
0BB8
0818
0C18
0C18
1818
1818
2418
A018
ENDCHAR
STARTCHAR afii10030
ENCODING 1052
SWIDTH 902 0
DWIDTH 10 0
BBX 8 8 1 0
BITMAP
E00B
B00B
E417
C823
C863
C693
C383
C243
ENDCHAR
STARTCHAR afii10031
ENCODING 1053
SWIDTH 737 0
DWIDTH 8 0
BBX 6 8 1 0
BITMAP
C030
C030
C030
EAB0
C030
C030
C030
C030
ENDCHAR
STARTCHAR afii10032
ENCODING 1054
SWIDTH 778 0
DWIDTH 9 0
BBX 8 8 0 0
BITMAP
0BE4
280D
3006
6002
6002
3006
2809
0BA4
ENDCHAR
STARTCHAR afii10033
ENCODING 1055
SWIDTH 729 0
DWIDTH 8 0
BBX 6 8 1 0
BITMAP
EAB0
C030
C030
C030
C030
C030
C030
C030
ENDCHAR
STARTCHAR afii10034
ENCODING 1056
SWIDTH 602 0
DWIDTH 7 0
BBX 5 8 1 0
BITMAP
EA40
C1C0
C0C0
C180
E900
C000
C000
C000
ENDCHAR
STARTCHAR afii10035
ENCODING 1057
SWIDTH 630 0
DWIDTH 7 0
BBX 7 8 0 0
BITMAP
07B4
2800
3000
6000
6000
3000
2800
0BA4
ENDCHAR
STARTCHAR afii10036
ENCODING 1058
SWIDTH 553 0
DWIDTH 6 0
BBX 6 8 0 0
BITMAP
AFA0
0600
0600
0600
0600
0600
0600
0600
ENDCHAR
STARTCHAR afii10037
ENCODING 1059
SWIDTH 621 0
DWIDTH 7 0
BBX 7 8 0 0
BITMAP
9018
3020
2460
0C90
0A80
0340
0700
7900
ENDCHAR
STARTCHAR afii10038
ENCODING 1060
SWIDTH 797 0
DWIDTH 9 0
BBX 8 8 0 0
BITMAP
00C0
1AE8
30C6
60C2
60C2
30C6
1AE8
00C0
ENDCHAR
STARTCHAR afii10039
ENCODING 1061
SWIDTH 577 0
DWIDTH 6 0
BBX 6 8 0 0
BITMAP
6060
2490
1980
0B00
0B00
1980
2090
9030
ENDCHAR
STARTCHAR afii10040
ENCODING 1062
SWIDTH 736 0
DWIDTH 8 0
BBX 7 10 1 -2
BITMAP
C030
C030
C030
C030
C030
C030
C030
EAB8
000C
000C
ENDCHAR
STARTCHAR afii10041
ENCODING 1063
SWIDTH 694 0
DWIDTH 8 0
BBX 6 8 1 0
BITMAP
8060
8060
8060
C060
7AA0
0060
0060
0060
ENDCHAR
STARTCHAR afii10042
ENCODING 1064
SWIDTH 1032 0
DWIDTH 11 0
BBX 10 8 1 0
BITMAP
C08090
C08090
C08090
C08090
C08090
C08090
C08090
EAFAD0
ENDCHAR
STARTCHAR afii10043
ENCODING 1065
SWIDTH 1033 0
DWIDTH 11 0
BBX 10 10 1 -2
BITMAP
C0C080
C0C080
C0C080
C0C080
C0C080
C0C080
C0C080
EAFAF0
000030
000030
ENDCHAR
STARTCHAR afii10044
ENCODING 1066
SWIDTH 687 0
DWIDTH 8 0
BBX 7 8 0 0
BITMAP
A800
0800
0800
0EA4
0818
080C
0818
0EA0
ENDCHAR
STARTCHAR afii10045
ENCODING 1067
SWIDTH 853 0
DWIDTH 9 0
BBX 8 8 1 0
BITMAP
C009
C009
C009
EA49
C0C9
C0C9
C0C9
EA49
ENDCHAR
STARTCHAR afii10046
ENCODING 1068
SWIDTH 643 0
DWIDTH 7 0
BBX 6 8 1 0
BITMAP
C000
C000
C000
EA40
C090
C050
C090
EA40
ENDCHAR
STARTCHAR afii10047
ENCODING 1069
SWIDTH 629 0
DWIDTH 7 0
BBX 7 8 0 0
BITMAP
7A40
00A0
0030
1AB4
0030
0030
0090
6F40
ENDCHAR
STARTCHAR afii10048
ENCODING 1070
SWIDTH 1049 0
DWIDTH 12 0
BBX 10 8 1 0
BITMAP
C0BE40
C28090
C30060
EB0020
C30020
C20060
C18090
C06A40
ENDCHAR
STARTCHAR afii10049
ENCODING 1071
SWIDTH 636 0
DWIDTH 7 0
BBX 6 8 0 0
BITMAP
1AB0
3030
2030
3430
1EB0
0C30
2430
6030
ENDCHAR
STARTCHAR afii10065
ENCODING 1072
SWIDTH 556 0
DWIDTH 6 0
BBX 6 6 0 0
BITMAP
1A80
0080
2AD0
6090
60D0
2A90
ENDCHAR
STARTCHAR afii10066
ENCODING 1073
SWIDTH 596 0
DWIDTH 7 0
BBX 6 8 0 0
BITMAP
06A0
2900
3000
6A90
6060
6030
2060
1A80
ENDCHAR
STARTCHAR afii10067
ENCODING 1074
SWIDTH 568 0
DWIDTH 6 0
BBX 5 6 1 0
BITMAP
EA40
C180
EB40
C080
C080
EA40
ENDCHAR
STARTCHAR afii10068
ENCODING 1075
SWIDTH 428 0
DWIDTH 5 0
BBX 4 6 1 0
BITMAP
E9
C0
C0
C0
C0
C0
ENDCHAR
STARTCHAR afii10069
ENCODING 1076
SWIDTH 571 0
DWIDTH 6 0
BBX 6 8 0 -2
BITMAP
0AD0
0C90
0890
1490
2090
BAE0
8020
8020
ENDCHAR
STARTCHAR afii10070
ENCODING 1077
SWIDTH 561 0
DWIDTH 6 0
BBX 6 6 0 0
BITMAP
1A80
2090
7A90
6000
3000
1A90
ENDCHAR
STARTCHAR afii10072
ENCODING 1078
SWIDTH 735 0
DWIDTH 8 0
BBX 8 6 0 0
BITMAP
6149
2558
0AA0
0AA0
2558
9146
ENDCHAR
STARTCHAR afii10073
ENCODING 1079
SWIDTH 482 0
DWIDTH 5 0
BBX 5 6 0 0
BITMAP
6A40
0180
1B00
0180
0180
6A40
ENDCHAR
STARTCHAR afii10074
ENCODING 1080
SWIDTH 633 0
DWIDTH 7 0
BBX 5 6 1 0
BITMAP
81C0
8280
8980
9880
A080
D080
ENDCHAR
STARTCHAR afii10075
ENCODING 1081
SWIDTH 633 0
DWIDTH 7 0
BBX 5 9 1 0
BITMAP
5140
2A00
0000
81C0
8280
8980
9880
A080
D080
ENDCHAR
STARTCHAR afii10076
ENCODING 1082
SWIDTH 519 0
DWIDTH 6 0
BBX 5 6 1 0
BITMAP
C200
C800
E400
E400
C900
C240
ENDCHAR
STARTCHAR afii10077
ENCODING 1083
SWIDTH 570 0
DWIDTH 6 0
BBX 6 6 0 0
BITMAP
0ED0
1890
1490
2490
3090
9090
ENDCHAR
STARTCHAR afii10078
ENCODING 1084
SWIDTH 734 0
DWIDTH 8 0
BBX 6 6 1 0
BITMAP
D070
E0A0
A0A0
9560
8A20
8A20
ENDCHAR
STARTCHAR afii10079
ENCODING 1085
SWIDTH 633 0
DWIDTH 7 0
BBX 5 6 1 0
BITMAP
C0C0
C0C0
EAC0
C0C0
C0C0
C0C0
ENDCHAR
STARTCHAR afii10080
ENCODING 1086
SWIDTH 604 0
DWIDTH 7 0
BBX 6 6 0 0
BITMAP
1A80
3060
6030
6030
3060
1A80
ENDCHAR
STARTCHAR afii10081
ENCODING 1087
SWIDTH 621 0
DWIDTH 7 0
BBX 5 6 1 0
BITMAP
EAC0
C0C0
C0C0
C0C0
C0C0
C0C0
ENDCHAR
STARTCHAR afii10082
ENCODING 1088
SWIDTH 612 0
DWIDTH 7 0
BBX 5 9 1 -3
BITMAP
AA40
D180
C0C0
C0C0
D180
EA40
C000
C000
C000
ENDCHAR
STARTCHAR afii10083
ENCODING 1089
SWIDTH 476 0
DWIDTH 5 0
BBX 5 6 0 0
BITMAP
1A80
3000
6000
6000
3000
1A80
ENDCHAR
STARTCHAR afii10084
ENCODING 1090
SWIDTH 466 0
DWIDTH 5 0
BBX 5 6 0 0
BITMAP
AE80
0C00
0C00
0C00
0C00
0C00
ENDCHAR
STARTCHAR afii10085
ENCODING 1091
SWIDTH 503 0
DWIDTH 6 0
BBX 6 9 0 -3
BITMAP
8090
60C0
3180
2640
1B00
0E00
0900
0800
A400
ENDCHAR
STARTCHAR afii10086
ENCODING 1092
SWIDTH 714 0
DWIDTH 8 0
BBX 8 11 0 -3
BITMAP
0140
0140
1BE0
3158
6148
6149
3158
1BE0
0240
0240
0240
ENDCHAR
STARTCHAR afii10087
ENCODING 1093
SWIDTH 523 0
DWIDTH 6 0
BBX 6 6 0 0
BITMAP
6080
2640
0A00
0A00
2540
6090
ENDCHAR
STARTCHAR afii10088
ENCODING 1094
SWIDTH 625 0
DWIDTH 7 0
BBX 6 8 1 -2
BITMAP
C0C0
C0C0
C0C0
C0C0
C0C0
EAE0
0060
0060
ENDCHAR
STARTCHAR afii10089
ENCODING 1095
SWIDTH 607 0
DWIDTH 7 0
BBX 5 6 1 0
BITMAP
8080
8080
C280
6980
0080
0080
ENDCHAR
STARTCHAR afii10090
ENCODING 1096
SWIDTH 890 0
DWIDTH 10 0
BBX 8 6 1 0
BITMAP
C243
C243
C243
C243
C243
EBEB
ENDCHAR
STARTCHAR afii10091
ENCODING 1097
SWIDTH 896 0
DWIDTH 10 0
BBX 9 8 1 -2
BITMAP
C24200
C24200
C24200
C24200
C24200
EBEB80
000180
000180
ENDCHAR
STARTCHAR afii10092
ENCODING 1098
SWIDTH 694 0
DWIDTH 8 0
BBX 7 6 0 0
BITMAP
AC00
0C00
0EA4
0C0C
0C0C
0EA4
ENDCHAR
STARTCHAR afii10093
ENCODING 1099
SWIDTH 770 0
DWIDTH 8 0
BBX 7 6 1 0
BITMAP
C018
C018
EA18
C198
C198
EA18
ENDCHAR
STARTCHAR afii10094
ENCODING 1100
SWIDTH 591 0
DWIDTH 7 0
BBX 5 6 1 0
BITMAP
C000
C000
EA40
C080
C080
EA40
ENDCHAR
STARTCHAR afii10095
ENCODING 1101
SWIDTH 492 0
DWIDTH 5 0
BBX 5 6 0 0
BITMAP
6A00
0140
2A80
0180
0240
AA00
ENDCHAR
STARTCHAR afii10096
ENCODING 1102
SWIDTH 831 0
DWIDTH 9 0
BBX 8 6 1 0
BITMAP
C2A4
C609
ED05
C905
C609
C1A4
ENDCHAR
STARTCHAR afii10097
ENCODING 1103
SWIDTH 555 0
DWIDTH 6 0
BBX 5 6 0 0
BITMAP
2AC0
5080
6080
2AC0
2480
6080
ENDCHAR
STARTCHAR uni0450
ENCODING 1104
SWIDTH 561 0
DWIDTH 6 0
BBX 6 9 0 0
BITMAP
0C00
0600
0000
1A80
2090
7A90
6000
3000
1A90
ENDCHAR
STARTCHAR afii10071
ENCODING 1105
SWIDTH 561 0
DWIDTH 6 0
BBX 6 8 0 0
BITMAP
1880
0000
1A80
2090
7A90
6000
3000
1A90
ENDCHAR
STARTCHAR afii10099
ENCODING 1106
SWIDTH 613 0
DWIDTH 7 0
BBX 6 11 0 -3
BITMAP
BA00
3000
3A90
3460
3030
3030
3030
3030
0030
0020
01D0
ENDCHAR
STARTCHAR afii10100
ENCODING 1107
SWIDTH 428 0
DWIDTH 5 0
BBX 4 9 1 0
BITMAP
1C
20
00
E9
C0
C0
C0
C0
C0
ENDCHAR
STARTCHAR afii10101
ENCODING 1108
SWIDTH 492 0
DWIDTH 5 0
BBX 5 6 0 0
BITMAP
1A80
2000
7A40
6000
3000
1A80
ENDCHAR
STARTCHAR afii10102
ENCODING 1109
SWIDTH 477 0
DWIDTH 5 0
BBX 5 6 0 0
BITMAP
2A40
6000
2800
0640
0180
6A40
ENDCHAR
STARTCHAR afii10103
ENCODING 1110
SWIDTH 252 0
DWIDTH 3 0
BBX 1 8 1 0
BITMAP
80
00
C0
C0
C0
C0
C0
C0
ENDCHAR
STARTCHAR afii10104
ENCODING 1111
SWIDTH 252 0
DWIDTH 3 0
BBX 3 8 0 0
BITMAP
88
00
30
30
30
30
30
30
ENDCHAR
STARTCHAR afii10105
ENCODING 1112
SWIDTH 252 0
DWIDTH 3 0
BBX 3 11 -1 -3
BITMAP
08
00
0C
0C
0C
0C
0C
0C
0C
08
74
ENDCHAR
STARTCHAR afii10106
ENCODING 1113
SWIDTH 836 0
DWIDTH 9 0
BBX 9 6 0 0
BITMAP
0EC000
18C000
14EA00
24C180
20C180
90EA00
ENDCHAR
STARTCHAR afii10107
ENCODING 1114
SWIDTH 886 0
DWIDTH 10 0
BBX 8 6 1 0
BITMAP
C180
C180
EBE9
C143
C143
C1E9
ENDCHAR
STARTCHAR afii10108
ENCODING 1115
SWIDTH 613 0
DWIDTH 7 0
BBX 6 8 0 0
BITMAP
BA40
3000
3A90
3460
3030
3030
3030
3030
ENDCHAR
STARTCHAR afii10109
ENCODING 1116
SWIDTH 519 0
DWIDTH 6 0
BBX 5 9 1 0
BITMAP
0900
1400
0000
C200
C800
E400
E400
C900
C240
ENDCHAR
STARTCHAR uni045D
ENCODING 1117
SWIDTH 633 0
DWIDTH 7 0
BBX 5 9 1 0
BITMAP
2400
0800
0000
81C0
8280
8980
9880
A080
D080
ENDCHAR
STARTCHAR afii10110
ENCODING 1118
SWIDTH 503 0
DWIDTH 6 0
BBX 6 12 0 -3
BITMAP
2180
2A40
0000
8090
60C0
3180
2640
1B00
0E00
0900
0800
A400
ENDCHAR
STARTCHAR afii10193
ENCODING 1119
SWIDTH 621 0
DWIDTH 7 0
BBX 5 8 1 -2
BITMAP
C0C0
C0C0
C0C0
C0C0
C0C0
EAC0
0C00
0C00
ENDCHAR
STARTCHAR uni0460
ENCODING 1120
SWIDTH 1011 0
DWIDTH 11 0
BBX 11 8 0 0
BITMAP
0B8790
240070
300024
600024
603024
303024
243060
0BAB80
ENDCHAR
STARTCHAR uni0461
ENCODING 1121
SWIDTH 818 0
DWIDTH 9 0
BBX 9 6 0 0
BITMAP
824240
518240
20C200
21D200
166900
0D3800
ENDCHAR
STARTCHAR uni0462
ENCODING 1122
SWIDTH 674 0
DWIDTH 7 0
BBX 7 8 0 0
BITMAP
0800
AE80
0800
0800
0EA4
0818
0818
0EA4
ENDCHAR
STARTCHAR uni0463
ENCODING 1123
SWIDTH 631 0
DWIDTH 7 0
BBX 7 7 0 0
BITMAP
2400
BA00
2400
2AA0
2424
2424
2AA0
ENDCHAR
STARTCHAR uni0464
ENCODING 1124
SWIDTH 918 0
DWIDTH 10 0
BBX 9 8 1 0
BITMAP
C06B40
C28000
C30000
EFAA00
C30000
C34000
C18000
C07E40
ENDCHAR
STARTCHAR uni0465
ENCODING 1125
SWIDTH 735 0
DWIDTH 8 0
BBX 7 6 1 0
BITMAP
C2A4
C600
EEA0
C900
C600
C1A4
ENDCHAR
STARTCHAR uni0466
ENCODING 1126
SWIDTH 678 0
DWIDTH 7 0
BBX 8 8 0 0
BITMAP
0340
0680
0890
0FA0
2620
2214
6208
8209
ENDCHAR
STARTCHAR uni0467
ENCODING 1127
SWIDTH 563 0
DWIDTH 6 0
BBX 6 6 0 0
BITMAP
0A00
0A40
1980
3BC0
66A0
9630
ENDCHAR
STARTCHAR uni0468
ENCODING 1128
SWIDTH 920 0
DWIDTH 10 0
BBX 9 8 1 0
BITMAP
C07000
C0A400
C18800
EBFD00
C32200
C62200
C92180
CC20C0
ENDCHAR
STARTCHAR uni0469
ENCODING 1129
SWIDTH 766 0
DWIDTH 8 0
BBX 7 6 1 0
BITMAP
C1C0
C250
EFE0
CC94
D888
E488
ENDCHAR
STARTCHAR uni046A
ENCODING 1130
SWIDTH 721 0
DWIDTH 8 0
BBX 8 8 0 0
BITMAP
3EBC
1824
0690
1BE4
3248
6248
5249
9246
ENDCHAR
STARTCHAR uni046B
ENCODING 1131
SWIDTH 642 0
DWIDTH 7 0
BBX 7 6 0 0
BITMAP
3AB0
0990
1BA0
2220
5214
8208
ENDCHAR
STARTCHAR uni046C
ENCODING 1132
SWIDTH 974 0
DWIDTH 11 0
BBX 10 8 1 0
BITMAP
C7ABC0
C24240
C09900
EBFA00
C32580
C624C0
C92490
CC2460
ENDCHAR
STARTCHAR uni046D
ENCODING 1133
SWIDTH 846 0
DWIDTH 9 0
BBX 8 6 1 0
BITMAP
CBAD
C264
EFE8
CC99
D896
E492
ENDCHAR
STARTCHAR uni046E
ENCODING 1134
SWIDTH 582 0
DWIDTH 6 0
BBX 6 12 0 -2
BITMAP
2580
0A00
6A80
0060
0090
2B80
00A0
0060
00A0
2A80
9000
7AA0
ENDCHAR
STARTCHAR uni046F
ENCODING 1135
SWIDTH 482 0
DWIDTH 5 0
BBX 5 10 0 -2
BITMAP
2240
2900
6A40
0180
1B00
0180
0180
6A00
8000
6A80
ENDCHAR
STARTCHAR uni0470
ENCODING 1136
SWIDTH 795 0
DWIDTH 9 0
BBX 9 8 0 0
BITMAP
608240
608240
608240
608300
348A00
0AE800
008000
008000
ENDCHAR
STARTCHAR uni0471
ENCODING 1137
SWIDTH 752 0
DWIDTH 8 0
BBX 7 11 1 -3
BITMAP
0600
0600
8624
8618
8618
C614
9624
2B90
0600
0600
0600
ENDCHAR
STARTCHAR uni0472
ENCODING 1138
SWIDTH 779 0
DWIDTH 9 0
BBX 8 8 0 0
BITMAP
0BA4
2409
2006
7AAA
6006
3006
280D
0BA4
ENDCHAR
STARTCHAR uni0473
ENCODING 1139
SWIDTH 604 0
DWIDTH 7 0
BBX 6 6 0 0
BITMAP
1A80
2020
7AB0
6030
3060
1A80
ENDCHAR
STARTCHAR uni0474
ENCODING 1140
SWIDTH 625 0
DWIDTH 7 0
BBX 8 8 0 0
BITMAP
8019
5030
3060
2490
18C0
0D80
0A40
0700
ENDCHAR
STARTCHAR uni0475
ENCODING 1141
SWIDTH 505 0
DWIDTH 6 0
BBX 6 6 0 0
BITMAP
80A0
5080
2140
2640
1A00
0E00
ENDCHAR
STARTCHAR uni0476
ENCODING 1142
SWIDTH 625 0
DWIDTH 7 0
BBX 8 11 0 0
BITMAP
2600
0880
0000
8019
5030
3060
2490
18C0
0D80
0A40
0700
ENDCHAR
STARTCHAR uni0477
ENCODING 1143
SWIDTH 505 0
DWIDTH 6 0
BBX 6 9 0 0
BITMAP
6600
2200
0000
80A0
5080
2140
2640
1A00
0E00
ENDCHAR
STARTCHAR uni0478
ENCODING 1144
SWIDTH 1208 0
DWIDTH 13 0
BBX 13 11 0 -3
BITMAP
0BE00000
24180000
300DC0C0
60099180
60096240
300C3300
24182A00
0BE01D00
00000C00
00001800
0000A000
ENDCHAR
STARTCHAR uni0479
ENCODING 1145
SWIDTH 1061 0
DWIDTH 12 0
BBX 12 9 0 -3
BITMAP
1A8905
306608
603308
603254
3060A0
1A80A0
000090
000080
000A40
ENDCHAR
STARTCHAR uni047A
ENCODING 1146
SWIDTH 818 0
DWIDTH 9 0
BBX 9 10 0 -1
BITMAP
008000
0BF800
284A00
300300
600240
600240
300300
284A00
0BF800
008000
ENDCHAR
STARTCHAR uni047B
ENCODING 1147
SWIDTH 657 0
DWIDTH 7 0
BBX 7 8 0 -1
BITMAP
0100
1B90
3024
6018
6018
2024
1B90
0100
ENDCHAR
STARTCHAR uni047C
ENCODING 1148
SWIDTH 999 0
DWIDTH 11 0
BBX 11 11 0 0
BITMAP
00A900
002000
002000
1B4B90
340060
600020
600024
600024
300030
241060
0BAB80
ENDCHAR
STARTCHAR uni047D
ENCODING 1149
SWIDTH 808 0
DWIDTH 9 0
BBX 9 10 0 0
BITMAP
06A400
008000
004000
000000
1A2900
200300
600240
600240
300300
1AA900
ENDCHAR
STARTCHAR uni047E
ENCODING 1150
SWIDTH 983 0
DWIDTH 11 0
BBX 11 11 0 0
BITMAP
02AA00
011100
000000
1B4B90
300070
600020
600024
603024
603030
343060
1AAB80
ENDCHAR
STARTCHAR uni047F
ENCODING 1151
SWIDTH 818 0
DWIDTH 9 0
BBX 9 9 0 0
BITMAP
0AA400
045400
000000
824240
518240
20C200
21D200
166900
0D3800
ENDCHAR
STARTCHAR uni0480
ENCODING 1152
SWIDTH 639 0
DWIDTH 7 0
BBX 7 11 0 -3
BITMAP
06B4
2800
3000
6000
6000
3000
2800
0BD0
0090
0090
0090
ENDCHAR
STARTCHAR uni0481
ENCODING 1153
SWIDTH 487 0
DWIDTH 5 0
BBX 5 9 0 -3
BITMAP
1A80
3000
6000
6000
3000
1A40
0240
0240
0240
ENDCHAR
STARTCHAR uni0482
ENCODING 1154
SWIDTH 608 0
DWIDTH 7 0
BBX 5 7 1 0
BITMAP
0140
2A00
0A40
4840
B400
6900
8000
ENDCHAR
STARTCHAR uni0483
ENCODING 1155
SWIDTH 557 0
DWIDTH 6 0
BBX 4 2 1 6
BITMAP
01
AA
ENDCHAR
STARTCHAR uni0484
ENCODING 1156
SWIDTH 577 0
DWIDTH 6 0
BBX 5 2 1 7
BITMAP
0A00
6140
ENDCHAR
STARTCHAR uni0485
ENCODING 1157
SWIDTH 577 0
DWIDTH 6 0
BBX 2 2 2 7
BITMAP
60
10
ENDCHAR
STARTCHAR uni0486
ENCODING 1158
SWIDTH 577 0
DWIDTH 6 0
BBX 2 2 2 7
BITMAP
20
50
ENDCHAR
STARTCHAR uni0488
ENCODING 1160
SWIDTH 988 0
DWIDTH 11 0
BBX 11 10 0 -2
BITMAP
006400
000000
190190
000000
600064
440044
000000
190190
000000
006400
ENDCHAR
STARTCHAR uni0489
ENCODING 1161
SWIDTH 956 0
DWIDTH 11 0
BBX 10 10 0 -2
BITMAP
002000
045040
080240
000000
500050
100010
000000
080140
142080
005000
ENDCHAR
STARTCHAR uni048A
ENCODING 1162
SWIDTH 770 0
DWIDTH 8 0
BBX 7 13 1 -2
BITMAP
2080
1A80
0000
C034
C0A4
C1A4
C324
C924
D824
F024
D02C
0008
0018
ENDCHAR
STARTCHAR uni048B
ENCODING 1163
SWIDTH 643 0
DWIDTH 7 0
BBX 6 11 1 -2
BITMAP
6140
2A00
0000
81C0
8280
8980
9880
A080
D0A0
0020
0050
ENDCHAR
STARTCHAR uni048C
ENCODING 1164
SWIDTH 612 0
DWIDTH 7 0
BBX 6 8 0 0
BITMAP
3000
BA00
3000
3A90
3030
3020
3070
3A90
ENDCHAR
STARTCHAR uni048D
ENCODING 1165
SWIDTH 591 0
DWIDTH 7 0
BBX 6 8 0 0
BITMAP
3000
B900
3000
3000
3000
3A90
3030
3A90
ENDCHAR
STARTCHAR uni048E
ENCODING 1166
SWIDTH 610 0
DWIDTH 7 0
BBX 5 8 1 0
BITMAP
EA40
C1C0
C0C0
C9C0
EB40
C140
C000
C000
ENDCHAR
STARTCHAR uni048F
ENCODING 1167
SWIDTH 612 0
DWIDTH 7 0
BBX 5 9 1 -3
BITMAP
AA40
D080
C0C0
C0C0
D6C0
EB40
C040
C000
C000
ENDCHAR
STARTCHAR afii10050
ENCODING 1168
SWIDTH 526 0
DWIDTH 6 0
BBX 5 10 1 0
BITMAP
0180
0180
EA40
C000
C000
C000
C000
C000
C000
C000
ENDCHAR
STARTCHAR afii10098
ENCODING 1169
SWIDTH 428 0
DWIDTH 5 0
BBX 4 8 1 0
BITMAP
05
05
E9
C0
C0
C0
C0
C0
ENDCHAR
STARTCHAR uni0492
ENCODING 1170
SWIDTH 526 0
DWIDTH 6 0
BBX 6 8 0 0
BITMAP
3A90
3000
3000
3000
BA40
3000
3000
3000
ENDCHAR
STARTCHAR uni0493
ENCODING 1171
SWIDTH 428 0
DWIDTH 5 0
BBX 5 6 0 0
BITMAP
3A40
3000
3000
B900
3000
3000
ENDCHAR
STARTCHAR uni0494
ENCODING 1172
SWIDTH 642 0
DWIDTH 7 0
BBX 6 11 1 -3
BITMAP
EA40
C000
C000
C000
EA40
C1C0
C060
C060
0060
0090
2A40
ENDCHAR
STARTCHAR uni0495
ENCODING 1173
SWIDTH 524 0
DWIDTH 6 0
BBX 5 9 1 -3
BITMAP
E900
C000
C000
E900
C340
C240
0240
0240
2900
ENDCHAR
STARTCHAR uni0496
ENCODING 1174
SWIDTH 890 0
DWIDTH 10 0
BBX 10 10 0 -2
BITMAP
608180
248200
088900
02E400
06A800
088900
248200
9081D0
000060
000060
ENDCHAR
STARTCHAR uni0497
ENCODING 1175
SWIDTH 779 0
DWIDTH 9 0
BBX 9 8 0 -2
BITMAP
614900
255800
0AA000
0AA000
255800
914740
000140
000140
ENDCHAR
STARTCHAR uni0498
ENCODING 1176
SWIDTH 581 0
DWIDTH 6 0
BBX 6 10 0 -2
BITMAP
6A80
0060
0090
2B80
00A0
0060
00A0
6A80
0500
0A00
ENDCHAR
STARTCHAR uni0499
ENCODING 1177
SWIDTH 482 0
DWIDTH 5 0
BBX 5 8 0 -2
BITMAP
6A40
0180
1B00
0180
0180
6A40
0800
1900
ENDCHAR
STARTCHAR uni049A
ENCODING 1178
SWIDTH 661 0
DWIDTH 7 0
BBX 6 10 1 -2
BITMAP
C090
C240
C900
E800
DD00
C700
C180
C0B0
0020
0020
ENDCHAR
STARTCHAR uni049B
ENCODING 1179
SWIDTH 544 0
DWIDTH 6 0
BBX 5 8 1 -2
BITMAP
C200
C800
E400
E400
C900
C280
0080
0080
ENDCHAR
STARTCHAR uni049C
ENCODING 1180
SWIDTH 613 0
DWIDTH 7 0
BBX 6 8 1 0
BITMAP
C090
D640
DD00
E800
ED00
D600
C180
C090
ENDCHAR
STARTCHAR uni049D
ENCODING 1181
SWIDTH 533 0
DWIDTH 6 0
BBX 5 6 1 0
BITMAP
D240
E900
E400
E400
E900
D240
ENDCHAR
STARTCHAR uni049E
ENCODING 1182
SWIDTH 613 0
DWIDTH 7 0
BBX 7 8 0 0
BITMAP
3024
B990
3240
3A00
3740
31C0
3060
3024
ENDCHAR
STARTCHAR uni049F
ENCODING 1183
SWIDTH 517 0
DWIDTH 6 0
BBX 6 8 0 0
BITMAP
BA00
2000
2080
2200
3900
3600
2280
2090
ENDCHAR
STARTCHAR uni04A0
ENCODING 1184
SWIDTH 688 0
DWIDTH 8 0
BBX 8 8 0 0
BITMAP
B808
0820
0890
0E40
0DC0
0860
0824
0809
ENDCHAR
STARTCHAR uni04A1
ENCODING 1185
SWIDTH 615 0
DWIDTH 7 0
BBX 7 6 0 0
BITMAP
AC20
0C90
0E40
0E40
0C90
0C24
ENDCHAR
STARTCHAR uni04A2
ENCODING 1186
SWIDTH 746 0
DWIDTH 8 0
BBX 7 10 1 -2
BITMAP
C030
C030
C030
EAB0
C030
C030
C030
C038
000C
000C
ENDCHAR
STARTCHAR uni04A3
ENCODING 1187
SWIDTH 647 0
DWIDTH 7 0
BBX 6 8 1 -2
BITMAP
C0C0
C0C0
EAC0
C0C0
C0C0
C0E0
0020
0020
ENDCHAR
STARTCHAR uni04A4
ENCODING 1188
SWIDTH 812 0
DWIDTH 9 0
BBX 8 8 1 0
BITMAP
C03E
C030
C030
EAB0
C030
C030
C030
C030
ENDCHAR
STARTCHAR uni04A5
ENCODING 1189
SWIDTH 735 0
DWIDTH 8 0
BBX 7 6 1 0
BITMAP
C0E8
C0C0
EAC0
C0C0
C0C0
C0C0
ENDCHAR
STARTCHAR uni04A6
ENCODING 1190
SWIDTH 1066 0
DWIDTH 12 0
BBX 10 11 1 -3
BITMAP
EAE000
C06000
C06000
C06000
C07A80
C060A0
C06030
C06030
000030
000060
001A80
ENDCHAR
STARTCHAR uni04A7
ENCODING 1191
SWIDTH 865 0
DWIDTH 10 0
BBX 8 9 1 -3
BITMAP
EB80
C180
C180
C1E9
C186
C182
0002
0003
0029
ENDCHAR
STARTCHAR uni04A8
ENCODING 1192
SWIDTH 778 0
DWIDTH 9 0
BBX 8 8 0 0
BITMAP
0B80
2400
3069
60C6
60C2
30C6
28A8
0BBF
ENDCHAR
STARTCHAR uni04A9
ENCODING 1193
SWIDTH 640 0
DWIDTH 7 0
BBX 7 6 0 0
BITMAP
1A00
21A0
6224
6224
32A0
1AA4
ENDCHAR
STARTCHAR uni04AA
ENCODING 1194
SWIDTH 630 0
DWIDTH 7 0
BBX 7 10 0 -2
BITMAP
07B4
2800
3000
6000
6000
3000
2800
0BA4
0080
0180
ENDCHAR
STARTCHAR uni04AB
ENCODING 1195
SWIDTH 476 0
DWIDTH 5 0
BBX 5 8 0 -2
BITMAP
1A80
3000
6000
6000
3000
1A80
0200
0600
ENDCHAR
STARTCHAR uni04AC
ENCODING 1196
SWIDTH 553 0
DWIDTH 6 0
BBX 6 10 0 -2
BITMAP
AFA0
0600
0600
0600
0600
0600
0600
0740
0240
0240
ENDCHAR
STARTCHAR uni04AD
ENCODING 1197
SWIDTH 466 0
DWIDTH 5 0
BBX 5 8 0 -2
BITMAP
AE80
0C00
0C00
0C00
0C00
0E00
0200
0200
ENDCHAR
STARTCHAR uni04AE
ENCODING 1198
SWIDTH 560 0
DWIDTH 6 0
BBX 6 8 0 0
BITMAP
9030
6090
2480
0A40
0A00
0600
0600
0600
ENDCHAR
STARTCHAR uni04AF
ENCODING 1199
SWIDTH 500 0
DWIDTH 6 0
BBX 6 9 0 -3
BITMAP
8090
50C0
2180
2600
1A00
0D00
0900
0900
0900
ENDCHAR
STARTCHAR uni04B0
ENCODING 1200
SWIDTH 560 0
DWIDTH 6 0
BBX 6 8 0 0
BITMAP
9020
6090
2580
0E40
0A00
2F80
0600
0600
ENDCHAR
STARTCHAR uni04B1
ENCODING 1201
SWIDTH 500 0
DWIDTH 6 0
BBX 6 9 0 -3
BITMAP
8090
50C0
2180
2640
1A00
0D00
2E40
0900
0900
ENDCHAR
STARTCHAR uni04B2
ENCODING 1202
SWIDTH 619 0
DWIDTH 7 0
BBX 7 10 0 -2
BITMAP
6060
2490
1980
0B00
0B00
1980
2090
9038
0018
0018
ENDCHAR
STARTCHAR uni04B3
ENCODING 1203
SWIDTH 541 0
DWIDTH 6 0
BBX 6 8 0 -2
BITMAP
6080
2640
0A00
0A00
2540
60A0
0020
0020
ENDCHAR
STARTCHAR uni04B4
ENCODING 1204
SWIDTH 854 0
DWIDTH 9 0
BBX 9 10 0 -2
BITMAP
AFA240
090240
090240
090240
090240
090240
090240
0BABC0
000080
000080
ENDCHAR
STARTCHAR uni04B5
ENCODING 1205
SWIDTH 716 0
DWIDTH 8 0
BBX 8 8 0 -2
BITMAP
AE8C
0C0C
0C0C
0C0C
0C0C
0EAE
0006
0006
ENDCHAR
STARTCHAR uni04B6
ENCODING 1206
SWIDTH 691 0
DWIDTH 8 0
BBX 7 10 1 -2
BITMAP
8060
8060
8060
C0A0
6AA0
0060
0060
0074
0014
0014
ENDCHAR
STARTCHAR uni04B7
ENCODING 1207
SWIDTH 608 0
DWIDTH 7 0
BBX 6 8 1 -2
BITMAP
8080
8080
C280
6980
0080
00D0
0060
0060
ENDCHAR
STARTCHAR uni04B8
ENCODING 1208
SWIDTH 694 0
DWIDTH 8 0
BBX 6 8 1 0
BITMAP
8060
8060
8860
D9A0
6EA0
0860
0860
0060
ENDCHAR
STARTCHAR uni04B9
ENCODING 1209
SWIDTH 600 0
DWIDTH 7 0
BBX 5 6 1 0
BITMAP
8180
8180
DA80
6980
1580
0180
ENDCHAR
STARTCHAR uni04BA
ENCODING 1210
SWIDTH 694 0
DWIDTH 8 0
BBX 6 8 1 0
BITMAP
C000
C000
C000
EA80
C060
C060
C060
C060
ENDCHAR
STARTCHAR uni04BB
ENCODING 1211
SWIDTH 584 0
DWIDTH 6 0
BBX 5 6 1 0
BITMAP
C000
C000
EA40
C080
C0C0
C0C0
ENDCHAR
STARTCHAR uni04BC
ENCODING 1212
SWIDTH 837 0
DWIDTH 9 0
BBX 9 8 0 0
BITMAP
01B900
060700
990240
9C0180
2EAA40
0C0000
0A0000
01AA00
ENDCHAR
STARTCHAR uni04BD
ENCODING 1213
SWIDTH 659 0
DWIDTH 7 0
BBX 7 6 0 0
BITMAP
06A0
9818
6EA4
1800
0800
06A4
ENDCHAR
STARTCHAR uni04BE
ENCODING 1214
SWIDTH 837 0
DWIDTH 9 0
BBX 9 10 0 -2
BITMAP
01B900
060700
990240
9C0180
2EAA40
0C0000
0A0000
02AA00
003000
003000
ENDCHAR
STARTCHAR uni04BF
ENCODING 1215
SWIDTH 659 0
DWIDTH 7 0
BBX 7 8 0 -2
BITMAP
06A0
9818
6EA4
1800
0C00
06A4
0080
0080
ENDCHAR
STARTCHAR uni04C0
ENCODING 1216
SWIDTH 278 0
DWIDTH 3 0
BBX 1 8 1 0
BITMAP
C0
C0
C0
C0
C0
C0
C0
C0
ENDCHAR
STARTCHAR uni04C1
ENCODING 1217
SWIDTH 844 0
DWIDTH 9 0
BBX 9 11 0 0
BITMAP
061800
02A000
000000
608180
248200
088900
02E400
06A800
088900
248200
908180
ENDCHAR
STARTCHAR uni04C2
ENCODING 1218
SWIDTH 735 0
DWIDTH 8 0
BBX 8 9 0 0
BITMAP
0830
0690
0000
6149
2558
0AA0
0AA0
2558
9146
ENDCHAR
STARTCHAR uni04C3
ENCODING 1219
SWIDTH 688 0
DWIDTH 8 0
BBX 6 11 1 -3
BITMAP
C090
C240
C900
D800
FA40
C090
C030
C030
0030
00A0
1A80
ENDCHAR
STARTCHAR uni04C4
ENCODING 1220
SWIDTH 548 0
DWIDTH 6 0
BBX 5 9 1 -3
BITMAP
8200
8900
A400
EA00
8240
8180
0180
0240
2A00
ENDCHAR
STARTCHAR uni04C5
ENCODING 1221
SWIDTH 706 0
DWIDTH 8 0
BBX 8 10 0 -2
BITMAP
0BB8
0818
0C18
0C18
1818
1818
2418
A01D
0009
000C
ENDCHAR
STARTCHAR uni04C6
ENCODING 1222
SWIDTH 571 0
DWIDTH 6 0
BBX 6 8 0 -2
BITMAP
0ED0
1890
1490
2490
2090
90B0
0020
0060
ENDCHAR
STARTCHAR uni04C7
ENCODING 1223
SWIDTH 727 0
DWIDTH 8 0
BBX 6 11 1 -3
BITMAP
C030
C030
C030
EAB0
C030
C030
C030
C030
0030
00A0
1F80
ENDCHAR
STARTCHAR uni04C8
ENCODING 1224
SWIDTH 616 0
DWIDTH 7 0
BBX 5 9 1 -3
BITMAP
C0C0
C0C0
EAC0
C0C0
C0C0
C0C0
00C0
0180
1A40
ENDCHAR
STARTCHAR uni04C9
ENCODING 1225
SWIDTH 745 0
DWIDTH 8 0
BBX 7 10 1 -2
BITMAP
C030
C030
C030
EAB0
C030
C030
C030
C038
0018
0024
ENDCHAR
STARTCHAR uni04CA
ENCODING 1226
SWIDTH 652 0
DWIDTH 7 0
BBX 6 8 1 -2
BITMAP
C0C0
C0C0
EAC0
C0C0
C0C0
C0E0
0020
0050
ENDCHAR
STARTCHAR uni04CB
ENCODING 1227
SWIDTH 694 0
DWIDTH 8 0
BBX 6 10 1 -2
BITMAP
8060
8060
8060
C0A0
6AA0
0060
0060
01E0
0180
0180
ENDCHAR
STARTCHAR uni04CC
ENCODING 1228
SWIDTH 607 0
DWIDTH 7 0
BBX 5 8 1 -2
BITMAP
8080
8080
C280
6980
0080
0280
0300
0300
ENDCHAR
STARTCHAR uni04CD
ENCODING 1229
SWIDTH 903 0
DWIDTH 10 0
BBX 9 10 1 -2
BITMAP
E00B00
B00B00
E41700
C82300
C86300
C69300
C38300
C24380
000140
000240
ENDCHAR
STARTCHAR uni04CE
ENCODING 1230
SWIDTH 735 0
DWIDTH 8 0
BBX 7 8 1 -2
BITMAP
D070
E0A0
A0A0
9560
8A20
8A28
0008
0018
ENDCHAR
STARTCHAR uni04CF
ENCODING 1231
SWIDTH 278 0
DWIDTH 3 0
BBX 1 8 1 0
BITMAP
C0
C0
C0
C0
C0
C0
C0
C0
ENDCHAR
STARTCHAR uni04D0
ENCODING 1232
SWIDTH 632 0
DWIDTH 7 0
BBX 7 11 0 0
BITMAP
1490
0A80
0000
0300
0640
0DC0
1890
2460
3AB0
6024
8018
ENDCHAR
STARTCHAR uni04D1
ENCODING 1233
SWIDTH 556 0
DWIDTH 6 0
BBX 6 9 0 0
BITMAP
20C0
1A40
0000
1A80
0080
2AD0
6090
60D0
2A90
ENDCHAR
STARTCHAR uni04D2
ENCODING 1234
SWIDTH 632 0
DWIDTH 7 0
BBX 7 10 0 0
BITMAP
0880
0000
0300
0640
0DC0
1890
2460
3AB0
6024
8018
ENDCHAR
STARTCHAR uni04D3
ENCODING 1235
SWIDTH 556 0
DWIDTH 6 0
BBX 6 8 0 0
BITMAP
1540
0000
1A80
0080
2AD0
6090
60D0
2A90
ENDCHAR
STARTCHAR uni04D4
ENCODING 1236
SWIDTH 873 0
DWIDTH 10 0
BBX 9 8 0 0
BITMAP
02FA80
032000
062000
0C3A80
182000
3EE000
602000
903A80
ENDCHAR
STARTCHAR uni04D5
ENCODING 1237
SWIDTH 857 0
DWIDTH 9 0
BBX 9 6 0 0
BITMAP
2AAA00
00D180
2AEA80
60D000
61E000
2A2A40
ENDCHAR
STARTCHAR uni04D6
ENCODING 1238
SWIDTH 556 0
DWIDTH 6 0
BBX 5 11 1 0
BITMAP
9200
6A00
0000
EA40
C000
C000
EA40
C000
C000
C000
EA40
ENDCHAR
STARTCHAR uni04D7
ENCODING 1239
SWIDTH 561 0
DWIDTH 6 0
BBX 6 9 0 0
BITMAP
2480
1A80
0000
1A80
2090
7A90
6000
3000
1A90
ENDCHAR
STARTCHAR uni04D8
ENCODING 1240
SWIDTH 729 0
DWIDTH 8 0
BBX 8 8 0 0
BITMAP
2AE0
0028
000C
0009
7AAD
6008
3418
0AE0
ENDCHAR
STARTCHAR uni04D9
ENCODING 1241
SWIDTH 559 0
DWIDTH 6 0
BBX 6 6 0 0
BITMAP
2A40
0090
0050
7AD0
6090
2A40
ENDCHAR
STARTCHAR uni04DA
ENCODING 1242
SWIDTH 729 0
DWIDTH 8 0
BBX 8 10 0 0
BITMAP
0550
0000
2AE0
0028
000C
0009
7AAD
6008
3418
0AE0
ENDCHAR
STARTCHAR uni04DB
ENCODING 1243
SWIDTH 559 0
DWIDTH 6 0
BBX 6 8 0 0
BITMAP
1540
0000
2A40
0090
0050
7AD0
6090
2A40
ENDCHAR
STARTCHAR uni04DC
ENCODING 1244
SWIDTH 844 0
DWIDTH 9 0
BBX 9 10 0 0
BITMAP
022000
000000
608180
248200
088900
02E400
06A800
088900
248200
908180
ENDCHAR
STARTCHAR uni04DD
ENCODING 1245
SWIDTH 735 0
DWIDTH 8 0
BBX 8 8 0 0
BITMAP
0550
0000
6149
2558
0AA0
0AA0
2558
9146
ENDCHAR
STARTCHAR uni04DE
ENCODING 1246
SWIDTH 581 0
DWIDTH 6 0
BBX 6 10 0 0
BITMAP
1540
0000
6A80
0060
0090
2B80
00A0
0060
00A0
6A80
ENDCHAR
STARTCHAR uni04DF
ENCODING 1247
SWIDTH 482 0
DWIDTH 5 0
BBX 5 8 0 0
BITMAP
2200
0000
6A40
0180
1B00
0180
0180
6A40
ENDCHAR
STARTCHAR uni04E0
ENCODING 1248
SWIDTH 583 0
DWIDTH 6 0
BBX 6 8 0 0
BITMAP
6AD0
0180
0900
1A80
00A0
0060
00A0
6A80
ENDCHAR
STARTCHAR uni04E1
ENCODING 1249
SWIDTH 488 0
DWIDTH 5 0
BBX 5 9 0 -3
BITMAP
AB80
0200
0900
1800
2A00
0180
00C0
0180
AA00
ENDCHAR
STARTCHAR uni04E2
ENCODING 1250
SWIDTH 762 0
DWIDTH 8 0
BBX 7 10 1 0
BITMAP
1A80
0000
C034
C0A4
C1A4
C324
C924
9824
F024
D024
ENDCHAR
STARTCHAR uni04E3
ENCODING 1251
SWIDTH 633 0
DWIDTH 7 0
BBX 5 8 1 0
BITMAP
2A00
0000
81C0
8280
8980
9880
A080
D080
ENDCHAR
STARTCHAR uni04E4
ENCODING 1252
SWIDTH 762 0
DWIDTH 8 0
BBX 7 10 1 0
BITMAP
1880
0000
C034
C0A4
C1A4
C324
C924
9824
F024
D024
ENDCHAR
STARTCHAR uni04E5
ENCODING 1253
SWIDTH 633 0
DWIDTH 7 0
BBX 5 8 1 0
BITMAP
2200
0000
81C0
8280
8980
9880
A080
D080
ENDCHAR
STARTCHAR uni04E6
ENCODING 1254
SWIDTH 778 0
DWIDTH 9 0
BBX 8 10 0 0
BITMAP
0220
0000
0BE4
280D
3006
6002
6002
3006
2809
0BA4
ENDCHAR
STARTCHAR uni04E7
ENCODING 1255
SWIDTH 604 0
DWIDTH 7 0
BBX 6 8 0 0
BITMAP
0880
0000
1A80
3060
6030
6030
3060
1A80
ENDCHAR
STARTCHAR uni04E8
ENCODING 1256
SWIDTH 779 0
DWIDTH 9 0
BBX 8 8 0 0
BITMAP
0BA4
2409
2006
7AAA
6006
3006
280D
0BA4
ENDCHAR
STARTCHAR uni04E9
ENCODING 1257
SWIDTH 604 0
DWIDTH 7 0
BBX 6 6 0 0
BITMAP
1A80
2020
7AB0
6030
3060
1A80
ENDCHAR
STARTCHAR uni04EA
ENCODING 1258
SWIDTH 779 0
DWIDTH 9 0
BBX 8 10 0 0
BITMAP
0220
0000
0BA4
2409
2006
7AAA
6006
3006
280D
0BA4
ENDCHAR
STARTCHAR uni04EB
ENCODING 1259
SWIDTH 604 0
DWIDTH 7 0
BBX 6 8 0 0
BITMAP
0880
0000
1A80
2020
7AB0
6030
3060
1A80
ENDCHAR
STARTCHAR uni04EC
ENCODING 1260
SWIDTH 629 0
DWIDTH 7 0
BBX 7 10 0 0
BITMAP
1540
0000
7A40
00A0
0030
1AB4
0030
0030
0090
6F40
ENDCHAR
STARTCHAR uni04ED
ENCODING 1261
SWIDTH 492 0
DWIDTH 5 0
BBX 5 8 0 0
BITMAP
2200
0000
6A00
0140
2A80
0180
0240
AA00
ENDCHAR
STARTCHAR uni04EE
ENCODING 1262
SWIDTH 621 0
DWIDTH 7 0
BBX 7 10 0 0
BITMAP
0A80
0000
9018
3020
2460
0C90
0A80
0340
0700
7900
ENDCHAR
STARTCHAR uni04EF
ENCODING 1263
SWIDTH 503 0
DWIDTH 6 0
BBX 6 11 0 -3
BITMAP
2A40
0000
8090
60C0
3180
2640
1B00
0E00
0900
0800
A400
ENDCHAR
STARTCHAR uni04F0
ENCODING 1264
SWIDTH 621 0
DWIDTH 7 0
BBX 7 10 0 0
BITMAP
0880
0000
9018
3020
2460
0C90
0A80
0340
0700
7900
ENDCHAR
STARTCHAR uni04F1
ENCODING 1265
SWIDTH 503 0
DWIDTH 6 0
BBX 6 11 0 -3
BITMAP
2240
0000
8090
60C0
3180
2640
1B00
0E00
0900
0800
A400
ENDCHAR
STARTCHAR uni04F2
ENCODING 1266
SWIDTH 621 0
DWIDTH 7 0
BBX 7 11 0 0
BITMAP
0660
0880
0000
9018
3020
2460
0C90
0A80
0340
0700
7900
ENDCHAR
STARTCHAR uni04F3
ENCODING 1267
SWIDTH 503 0
DWIDTH 6 0
BBX 6 12 0 -3
BITMAP
0DC0
2640
0000
8090
60C0
3180
2640
1B00
0E00
0900
0800
A400
ENDCHAR
STARTCHAR uni04F4
ENCODING 1268
SWIDTH 694 0
DWIDTH 8 0
BBX 6 10 1 0
BITMAP
2200
0000
8060
8060
8060
C060
7AA0
0060
0060
0060
ENDCHAR
STARTCHAR uni04F5
ENCODING 1269
SWIDTH 607 0
DWIDTH 7 0
BBX 5 8 1 0
BITMAP
2200
0000
8080
8080
C280
6980
0080
0080
ENDCHAR
STARTCHAR uni04F6
ENCODING 1270
SWIDTH 526 0
DWIDTH 6 0
BBX 5 10 1 -2
BITMAP
EA40
C000
C000
C000
C000
C000
C000
E000
3000
3000
ENDCHAR
STARTCHAR uni04F7
ENCODING 1271
SWIDTH 428 0
DWIDTH 5 0
BBX 4 8 1 -2
BITMAP
E9
C0
C0
C0
C0
D0
60
60
ENDCHAR
STARTCHAR uni04F8
ENCODING 1272
SWIDTH 853 0
DWIDTH 9 0
BBX 8 10 1 0
BITMAP
0880
0000
C009
C009
C009
EA49
C0C9
C0C9
C0C9
EA49
ENDCHAR
STARTCHAR uni04F9
ENCODING 1273
SWIDTH 770 0
DWIDTH 8 0
BBX 7 8 1 0
BITMAP
0880
0000
C018
C018
EA18
C198
C198
EA18
ENDCHAR
STARTCHAR uni04FA
ENCODING 1274
SWIDTH 526 0
DWIDTH 6 0
BBX 6 10 0 -2
BITMAP
3A90
3000
3000
3000
BA40
3000
3000
3800
0800
2400
ENDCHAR
STARTCHAR uni04FB
ENCODING 1275
SWIDTH 428 0
DWIDTH 5 0
BBX 5 8 0 -2
BITMAP
3A40
3000
3000
B900
3000
3800
1800
7400
ENDCHAR
STARTCHAR uni04FC
ENCODING 1276
SWIDTH 621 0
DWIDTH 7 0
BBX 7 10 0 -2
BITMAP
6060
2490
1980
0B00
0B00
1980
2090
9038
0018
0074
ENDCHAR
STARTCHAR uni04FD
ENCODING 1277
SWIDTH 540 0
DWIDTH 6 0
BBX 6 8 0 -2
BITMAP
6080
2640
0A00
0A00
2540
60B0
0020
0090
ENDCHAR
STARTCHAR uni04FE
ENCODING 1278
SWIDTH 577 0
DWIDTH 6 0
BBX 6 8 0 0
BITMAP
6060
2480
0A40
6FA0
0E40
24C0
2090
9030
ENDCHAR
STARTCHAR uni04FF
ENCODING 1279
SWIDTH 523 0
DWIDTH 6 0
BBX 6 6 0 0
BITMAP
6080
2580
1A00
6F80
2640
6090
ENDCHAR
STARTCHAR uni0500
ENCODING 1280
SWIDTH 612 0
DWIDTH 7 0
BBX 6 8 0 0
BITMAP
0020
0020
0020
1AE0
3020
6020
3020
1AA0
ENDCHAR
STARTCHAR uni0501
ENCODING 1281
SWIDTH 612 0
DWIDTH 7 0
BBX 6 8 0 0
BITMAP
0020
0020
1AA0
3060
6020
6020
3060
1A60
ENDCHAR
STARTCHAR uni0502
ENCODING 1282
SWIDTH 898 0
DWIDTH 10 0
BBX 9 8 0 0
BITMAP
006000
006000
006000
1AE0C0
3060C0
6060C0
30A180
1A6A40
ENDCHAR
STARTCHAR uni0503
ENCODING 1283
SWIDTH 895 0
DWIDTH 10 0
BBX 9 8 0 0
BITMAP
006000
006000
1AA000
30A000
6060C0
6060C0
20A0C0
1A5A40
ENDCHAR
STARTCHAR uni0504
ENCODING 1284
SWIDTH 903 0
DWIDTH 10 0
BBX 9 8 0 0
BITMAP
6A8000
009000
018000
2B40C0
0090C0
0060C0
006080
002A40
ENDCHAR
STARTCHAR uni0505
ENCODING 1285
SWIDTH 801 0
DWIDTH 9 0
BBX 8 6 0 0
BITMAP
6A00
0240
0243
1A03
0183
00A9
ENDCHAR
STARTCHAR uni0506
ENCODING 1286
SWIDTH 625 0
DWIDTH 7 0
BBX 7 10 0 -2
BITMAP
6A80
0090
0050
0180
2B40
0060
0060
0078
0018
0018
ENDCHAR
STARTCHAR uni0507
ENCODING 1287
SWIDTH 522 0
DWIDTH 6 0
BBX 6 8 0 -2
BITMAP
6A00
0140
0240
1A00
0180
00D0
0060
0060
ENDCHAR
STARTCHAR uni0508
ENCODING 1288
SWIDTH 980 0
DWIDTH 11 0
BBX 10 8 0 0
BITMAP
0BB400
081400
0C1400
0C1420
181420
181420
241860
A00A90
ENDCHAR
STARTCHAR uni0509
ENCODING 1289
SWIDTH 851 0
DWIDTH 9 0
BBX 9 6 0 0
BITMAP
0ED000
189000
149140
249140
209240
902A00
ENDCHAR
STARTCHAR uni050A
ENCODING 1290
SWIDTH 1012 0
DWIDTH 11 0
BBX 9 8 1 0
BITMAP
C02000
C02000
C02000
EAA080
C02080
C02080
C030C0
C01B40
ENDCHAR
STARTCHAR uni050B
ENCODING 1291
SWIDTH 913 0
DWIDTH 10 0
BBX 8 6 1 0
BITMAP
C0C0
C0C0
EAC2
C0C2
C083
C06A
ENDCHAR
STARTCHAR uni050C
ENCODING 1292
SWIDTH 755 0
DWIDTH 8 0
BBX 8 8 0 0
BITMAP
06B8
2800
3000
6000
606E
3006
2809
0BA4
ENDCHAR
STARTCHAR uni050D
ENCODING 1293
SWIDTH 640 0
DWIDTH 7 0
BBX 7 6 0 0
BITMAP
1AA0
3000
6000
61B4
3024
1A90
ENDCHAR
STARTCHAR uni050E
ENCODING 1294
SWIDTH 709 0
DWIDTH 8 0
BBX 7 8 0 0
BITMAP
AFA0
0900
0900
0908
0908
0508
0618
02A0
ENDCHAR
STARTCHAR uni050F
ENCODING 1295
SWIDTH 646 0
DWIDTH 7 0
BBX 7 6 0 0
BITMAP
AE80
0C00
0C24
0C24
0820
06A0
ENDCHAR
STARTCHAR uni0510
ENCODING 1296
SWIDTH 583 0
DWIDTH 6 0
BBX 6 8 0 0
BITMAP
1A90
3010
2400
1A80
3000
6000
7000
1AA0
ENDCHAR
STARTCHAR uni0511
ENCODING 1297
SWIDTH 475 0
DWIDTH 5 0
BBX 5 6 0 0
BITMAP
2A80
6000
2A00
6000
6000
2A80
ENDCHAR
STARTCHAR uni0512
ENCODING 1298
SWIDTH 700 0
DWIDTH 8 0
BBX 8 10 0 -2
BITMAP
0BB8
0818
0C18
0C18
1818
1818
2418
A01D
0005
001D
ENDCHAR
STARTCHAR uni0513
ENCODING 1299
SWIDTH 570 0
DWIDTH 6 0
BBX 6 8 0 -2
BITMAP
0ED0
1890
1490
2490
3090
90B0
0020
00A0
ENDCHAR
STARTCHAR uni1E00
ENCODING 7680
SWIDTH 632 0
DWIDTH 7 0
BBX 7 11 0 -3
BITMAP
0300
0640
0DC0
1890
2460
3AB0
6024
8018
0000
0640
0640
ENDCHAR
STARTCHAR uni1E01
ENCODING 7681
SWIDTH 556 0
DWIDTH 6 0
BBX 6 9 0 -3
BITMAP
1A80
0080
2AD0
6090
60D0
2A90
0000
0A00
0A00
ENDCHAR
STARTCHAR uni1E3E
ENCODING 7742
SWIDTH 902 0
DWIDTH 10 0
BBX 8 11 1 0
BITMAP
00D0
0140
0000
E00B
B00B
E417
C823
C863
C693
C383
C243
ENDCHAR
STARTCHAR uni1E3F
ENCODING 7743
SWIDTH 930 0
DWIDTH 10 0
BBX 9 9 1 0
BITMAP
009000
018000
000000
AA6A00
C1C240
C18240
C18240
C18240
C18240
ENDCHAR
STARTCHAR Wgrave
ENCODING 7808
SWIDTH 925 0
DWIDTH 10 0
BBX 10 11 0 0
BITMAP
00C000
005000
000000
90A030
50A060
60A490
315880
260CC0
160980
0E0740
0D0300
ENDCHAR
STARTCHAR wgrave
ENCODING 7809
SWIDTH 777 0
DWIDTH 9 0
BBX 9 9 0 0
BITMAP
030000
018000
000000
91C240
529300
626200
362500
292900
1C1C00
ENDCHAR
STARTCHAR Wacute
ENCODING 7810
SWIDTH 925 0
DWIDTH 10 0
BBX 10 11 0 0
BITMAP
002400
005000
000000
90A030
50A060
60A490
315880
260CC0
160980
0E0740
0D0300
ENDCHAR
STARTCHAR wacute
ENCODING 7811
SWIDTH 777 0
DWIDTH 9 0
BBX 9 9 0 0
BITMAP
009000
018000
000000
91C240
529300
626200
362500
292900
1C1C00
ENDCHAR
STARTCHAR Wdieresis
ENCODING 7812
SWIDTH 925 0
DWIDTH 10 0
BBX 10 10 0 0
BITMAP
015400
000000
90A030
50A060
60A490
315880
260CC0
160980
0E0740
0D0300
ENDCHAR
STARTCHAR wdieresis
ENCODING 7813
SWIDTH 777 0
DWIDTH 9 0
BBX 9 8 0 0
BITMAP
022000
000000
91C240
529300
626200
362500
292900
1C1C00
ENDCHAR
STARTCHAR uni1EA0
ENCODING 7840
SWIDTH 632 0
DWIDTH 7 0
BBX 7 10 0 -2
BITMAP
0300
0640
0DC0
1890
2460
3AB0
6024
8018
0000
0200
ENDCHAR
STARTCHAR uni1EA1
ENCODING 7841
SWIDTH 556 0
DWIDTH 6 0
BBX 6 8 0 -2
BITMAP
1A80
0080
2AD0
6090
60D0
2A90
0000
0900
ENDCHAR
STARTCHAR uni1EA2
ENCODING 7842
SWIDTH 632 0
DWIDTH 7 0
BBX 7 12 0 0
BITMAP
0240
0180
0200
0000
0300
0640
0DC0
1890
2460
3AB0
6024
8018
ENDCHAR
STARTCHAR uni1EA3
ENCODING 7843
SWIDTH 556 0
DWIDTH 6 0
BBX 6 10 0 0
BITMAP
0600
0200
0500
0000
1A80
0080
2AD0
6090
60D0
2A90
ENDCHAR
STARTCHAR uni1EA4
ENCODING 7844
SWIDTH 632 0
DWIDTH 7 0
BBX 7 12 0 0
BITMAP
0020
0760
0880
0000
0300
0640
0DC0
1890
2460
3AB0
6024
8018
ENDCHAR
STARTCHAR uni1EA5
ENCODING 7845
SWIDTH 556 0
DWIDTH 6 0
BBX 6 10 0 0
BITMAP
0060
0A80
1540
0000
1A80
0080
2AD0
6090
60D0
2A90
ENDCHAR
STARTCHAR uni1EA6
ENCODING 7846
SWIDTH 632 0
DWIDTH 7 0
BBX 7 12 0 0
BITMAP
6000
2740
0880
0000
0300
0640
0DC0
1890
2460
3AB0
6024
8018
ENDCHAR
STARTCHAR uni1EA7
ENCODING 7847
SWIDTH 556 0
DWIDTH 6 0
BBX 6 10 0 0
BITMAP
9000
2A00
1540
0000
1A80
0080
2AD0
6090
60D0
2A90
ENDCHAR
STARTCHAR uni1EA8
ENCODING 7848
SWIDTH 632 0
DWIDTH 7 0
BBX 7 12 0 0
BITMAP
0060
0750
0880
0000
0300
0640
0DC0
1890
2460
3AB0
6024
8018
ENDCHAR
STARTCHAR uni1EA9
ENCODING 7849
SWIDTH 556 0
DWIDTH 6 0
BBX 6 10 0 0
BITMAP
0050
0A50
1540
0000
1A80
0080
2AD0
6090
60D0
2A90
ENDCHAR
STARTCHAR uni1EAA
ENCODING 7850
SWIDTH 632 0
DWIDTH 7 0
BBX 7 12 0 0
BITMAP
0A80
0740
0880
0000
0300
0640
0DC0
1890
2460
3AB0
6024
8018
ENDCHAR
STARTCHAR uni1EAB
ENCODING 7851
SWIDTH 556 0
DWIDTH 6 0
BBX 6 10 0 0
BITMAP
1A40
0A00
1540
0000
1A80
0080
2AD0
6090
60D0
2A90
ENDCHAR
STARTCHAR uni1EAC
ENCODING 7852
SWIDTH 632 0
DWIDTH 7 0
BBX 7 13 0 -2
BITMAP
0740
0880
0000
0300
0640
0DC0
1890
2460
3AB0
6024
8018
0000
0200
ENDCHAR
STARTCHAR uni1EAD
ENCODING 7853
SWIDTH 556 0
DWIDTH 6 0
BBX 6 11 0 -2
BITMAP
0A00
1580
0000
1A80
0080
2AD0
6090
60D0
2A90
0000
0900
ENDCHAR
STARTCHAR uni1EAE
ENCODING 7854
SWIDTH 632 0
DWIDTH 7 0
BBX 7 12 0 0
BITMAP
0140
0880
0A40
0000
0300
0640
0DC0
1890
2460
3AB0
6024
8018
ENDCHAR
STARTCHAR uni1EAF
ENCODING 7855
SWIDTH 556 0
DWIDTH 6 0
BBX 6 10 0 0
BITMAP
0200
1080
0A00
0000
1A80
0080
2AD0
6090
60D0
2A90
ENDCHAR
STARTCHAR uni1EB0
ENCODING 7856
SWIDTH 632 0
DWIDTH 7 0
BBX 7 12 0 0
BITMAP
0500
0880
0A40
0000
0300
0640
0DC0
1890
2460
3AB0
6024
8018
ENDCHAR
STARTCHAR uni1EB1
ENCODING 7857
SWIDTH 556 0
DWIDTH 6 0
BBX 6 10 0 0
BITMAP
0800
1080
0A00
0000
1A80
0080
2AD0
6090
60D0
2A90
ENDCHAR
STARTCHAR uni1EB2
ENCODING 7858
SWIDTH 632 0
DWIDTH 7 0
BBX 7 13 0 0
BITMAP
0200
0200
0880
0A40
0000
0300
0640
0DC0
1890
2460
3AB0
6024
8018
ENDCHAR
STARTCHAR uni1EB3
ENCODING 7859
SWIDTH 556 0
DWIDTH 6 0
BBX 6 11 0 0
BITMAP
0600
0500
1080
0A00
0000
1A80
0080
2AD0
6090
60D0
2A90
ENDCHAR
STARTCHAR uni1EB4
ENCODING 7860
SWIDTH 632 0
DWIDTH 7 0
BBX 7 12 0 0
BITMAP
0A80
0880
0A40
0000
0300
0640
0DC0
1890
2460
3AB0
6024
8018
ENDCHAR
STARTCHAR uni1EB5
ENCODING 7861
SWIDTH 556 0
DWIDTH 6 0
BBX 6 10 0 0
BITMAP
1A40
1080
0A00
0000
1A80
0080
2AD0
6090
60D0
2A90
ENDCHAR
STARTCHAR uni1EB6
ENCODING 7862
SWIDTH 632 0
DWIDTH 7 0
BBX 7 13 0 -2
BITMAP
0480
0A40
0000
0300
0640
0DC0
1890
2460
3AB0
6024
8018
0000
0200
ENDCHAR
STARTCHAR uni1EB7
ENCODING 7863
SWIDTH 556 0
DWIDTH 6 0
BBX 6 11 0 -2
BITMAP
2080
0A00
0000
1A80
0080
2AD0
6090
60D0
2A90
0000
0900
ENDCHAR
STARTCHAR uni1EB8
ENCODING 7864
SWIDTH 556 0
DWIDTH 6 0
BBX 5 10 1 -2
BITMAP
EA40
C000
C000
EA40
C000
C000
C000
EA40
0000
0800
ENDCHAR
STARTCHAR uni1EB9
ENCODING 7865
SWIDTH 561 0
DWIDTH 6 0
BBX 6 8 0 -2
BITMAP
1A80
2090
7A90
6000
3000
1A90
0000
0600
ENDCHAR
STARTCHAR uni1EBA
ENCODING 7866
SWIDTH 556 0
DWIDTH 6 0
BBX 5 12 1 0
BITMAP
1900
0900
0800
0000
EA40
C000
C000
EA40
C000
C000
C000
EA40
ENDCHAR
STARTCHAR uni1EBB
ENCODING 7867
SWIDTH 561 0
DWIDTH 6 0
BBX 6 10 0 0
BITMAP
0640
0240
0200
0000
1A80
2090
7A90
6000
3000
1A90
ENDCHAR
STARTCHAR uni1EBC
ENCODING 7868
SWIDTH 556 0
DWIDTH 6 0
BBX 5 11 1 0
BITMAP
6540
8A00
0000
EA40
C000
C000
EA40
C000
C000
C000
EA40
ENDCHAR
STARTCHAR uni1EBD
ENCODING 7869
SWIDTH 561 0
DWIDTH 6 0
BBX 6 9 0 0
BITMAP
1940
2280
0000
1A80
2090
7A90
6000
3000
1A90
ENDCHAR
STARTCHAR uni1EBE
ENCODING 7870
SWIDTH 556 0
DWIDTH 6 0
BBX 5 12 1 0
BITMAP
0080
1E40
2200
0000
EA40
C000
C000
EA40
C000
C000
C000
EA40
ENDCHAR
STARTCHAR uni1EBF
ENCODING 7871
SWIDTH 561 0
DWIDTH 6 0
BBX 6 10 0 0
BITMAP
0020
0B90
1980
0000
1A80
2090
7A90
6000
3000
1A90
ENDCHAR
STARTCHAR uni1EC0
ENCODING 7872
SWIDTH 556 0
DWIDTH 6 0
BBX 6 12 0 0
BITMAP
6000
2700
0880
0000
3A90
3000
3000
3A90
3000
3000
3000
3A90
ENDCHAR
STARTCHAR uni1EC1
ENCODING 7873
SWIDTH 561 0
DWIDTH 6 0
BBX 6 10 0 0
BITMAP
6000
2B00
1980
0000
1A80
2090
7A90
6000
3000
1A90
ENDCHAR
STARTCHAR uni1EC2
ENCODING 7874
SWIDTH 556 0
DWIDTH 6 0
BBX 5 12 1 0
BITMAP
0180
2D40
6600
0000
EA40
C000
C000
EA40
C000
C000
C000
EA40
ENDCHAR
STARTCHAR uni1EC3
ENCODING 7875
SWIDTH 561 0
DWIDTH 6 0
BBX 6 10 0 0
BITMAP
0050
0B50
1540
0000
1A80
2090
7A90
6000
3000
1A90
ENDCHAR
STARTCHAR uni1EC4
ENCODING 7876
SWIDTH 556 0
DWIDTH 6 0
BBX 5 12 1 0
BITMAP
6A00
2C00
6600
0000
EA40
C000
C000
EA40
C000
C000
C000
EA40
ENDCHAR
STARTCHAR uni1EC5
ENCODING 7877
SWIDTH 561 0
DWIDTH 6 0
BBX 6 10 0 0
BITMAP
1A80
0B00
1580
0000
1A80
2090
7A90
6000
3000
1A90
ENDCHAR
STARTCHAR uni1EC6
ENCODING 7878
SWIDTH 556 0
DWIDTH 6 0
BBX 5 13 1 -2
BITMAP
2C00
6200
0000
EA40
C000
C000
EA40
C000
C000
C000
EA40
0000
1800
ENDCHAR
STARTCHAR uni1EC7
ENCODING 7879
SWIDTH 561 0
DWIDTH 6 0
BBX 6 11 0 -2
BITMAP
0A00
1580
0000
1A80
2090
7A90
6000
3000
1A90
0000
0600
ENDCHAR
STARTCHAR uni1EC8
ENCODING 7880
SWIDTH 278 0
DWIDTH 3 0
BBX 2 12 1 0
BITMAP
A0
60
80
00
C0
C0
C0
C0
C0
C0
C0
C0
ENDCHAR
STARTCHAR uni1EC9
ENCODING 7881
SWIDTH 252 0
DWIDTH 3 0
BBX 3 10 0 0
BITMAP
64
18
20
00
30
30
30
30
30
30
ENDCHAR
STARTCHAR uni1ECA
ENCODING 7882
SWIDTH 278 0
DWIDTH 3 0
BBX 1 10 1 -2
BITMAP
C0
C0
C0
C0
C0
C0
C0
C0
00
80
ENDCHAR
STARTCHAR uni1ECB
ENCODING 7883
SWIDTH 252 0
DWIDTH 3 0
BBX 1 10 1 -2
BITMAP
80
00
C0
C0
C0
C0
C0
C0
00
80
ENDCHAR
STARTCHAR uni1ECC
ENCODING 7884
SWIDTH 778 0
DWIDTH 9 0
BBX 8 10 0 -2
BITMAP
0BE4
280D
3006
6002
6002
3006
2809
0BA4
0000
0080
ENDCHAR
STARTCHAR uni1ECD
ENCODING 7885
SWIDTH 604 0
DWIDTH 7 0
BBX 6 8 0 -2
BITMAP
1A80
3060
6030
6030
3060
1A80
0000
0200
ENDCHAR
STARTCHAR uni1ECE
ENCODING 7886
SWIDTH 778 0
DWIDTH 9 0
BBX 8 12 0 0
BITMAP
0190
0090
0080
0000
0BE4
280D
3006
6002
6002
3006
2809
0BA4
ENDCHAR
STARTCHAR uni1ECF
ENCODING 7887
SWIDTH 604 0
DWIDTH 7 0
BBX 6 10 0 0
BITMAP
0640
0140
0200
0000
1A80
3060
6030
6030
3060
1A80
ENDCHAR
STARTCHAR uni1ED0
ENCODING 7888
SWIDTH 778 0
DWIDTH 9 0
BBX 8 12 0 0
BITMAP
000C
01D4
0220
0000
0BE4
280D
3006
6002
6002
3006
2809
0BA4
ENDCHAR
STARTCHAR uni1ED1
ENCODING 7889
SWIDTH 604 0
DWIDTH 7 0
BBX 6 10 0 0
BITMAP
0030
0750
0880
0000
1A80
3060
6030
6030
3060
1A80
ENDCHAR
STARTCHAR uni1ED2
ENCODING 7890
SWIDTH 778 0
DWIDTH 9 0
BBX 8 12 0 0
BITMAP
1800
09C0
0220
0000
0BE4
280D
3006
6002
6002
3006
2809
0BA4
ENDCHAR
STARTCHAR uni1ED3
ENCODING 7891
SWIDTH 604 0
DWIDTH 7 0
BBX 6 10 0 0
BITMAP
6000
2700
0880
0000
1A80
3060
6030
6030
3060
1A80
ENDCHAR
STARTCHAR uni1ED4
ENCODING 7892
SWIDTH 778 0
DWIDTH 9 0
BBX 8 12 0 0
BITMAP
0018
01D4
0220
0000
0BE4
280D
3006
6002
6002
3006
2809
0BA4
ENDCHAR
STARTCHAR uni1ED5
ENCODING 7893
SWIDTH 604 0
DWIDTH 7 0
BBX 6 10 0 0
BITMAP
0060
0750
0880
0000
1A80
3060
6030
6030
3060
1A80
ENDCHAR
STARTCHAR uni1ED6
ENCODING 7894
SWIDTH 778 0
DWIDTH 9 0
BBX 8 12 0 0
BITMAP
06A0
01C0
0260
0000
0BE4
280D
3006
6002
6002
3006
2809
0BA4
ENDCHAR
STARTCHAR uni1ED7
ENCODING 7895
SWIDTH 604 0
DWIDTH 7 0
BBX 6 10 0 0
BITMAP
0A80
0700
0880
0000
1A80
3060
6030
6030
3060
1A80
ENDCHAR
STARTCHAR uni1ED8
ENCODING 7896
SWIDTH 778 0
DWIDTH 9 0
BBX 8 13 0 -2
BITMAP
01C0
0620
0000
0BE4
280D
3006
6002
6002
3006
2809
0BA4
0000
0080
ENDCHAR
STARTCHAR uni1ED9
ENCODING 7897
SWIDTH 604 0
DWIDTH 7 0
BBX 6 11 0 -2
BITMAP
0700
1880
0000
1A80
3060
6030
6030
3060
1A80
0000
0200
ENDCHAR
STARTCHAR uni1EDA
ENCODING 7898
SWIDTH 779 0
DWIDTH 9 0
BBX 9 11 0 0
BITMAP
00A000
008000
000000
0BE580
280A00
300600
600300
600200
300600
280900
0BA400
ENDCHAR
STARTCHAR uni1EDB
ENCODING 7899
SWIDTH 608 0
DWIDTH 7 0
BBX 7 9 0 0
BITMAP
0280
0200
000C
1AA8
2060
6030
6030
3060
1A80
ENDCHAR
STARTCHAR uni1EDC
ENCODING 7900
SWIDTH 779 0
DWIDTH 9 0
BBX 9 11 0 0
BITMAP
030000
018000
000000
0BE580
280A00
300600
600300
600200
300600
280900
0BA400
ENDCHAR
STARTCHAR uni1EDD
ENCODING 7901
SWIDTH 608 0
DWIDTH 7 0
BBX 7 9 0 0
BITMAP
0900
0200
000C
1AA8
2060
6030
6030
3060
1A80
ENDCHAR
STARTCHAR uni1EDE
ENCODING 7902
SWIDTH 779 0
DWIDTH 9 0
BBX 9 12 0 0
BITMAP
019000
009000
008000
000000
0BE580
280A00
300600
600300
600200
300600
280900
0BA400
ENDCHAR
STARTCHAR uni1EDF
ENCODING 7903
SWIDTH 608 0
DWIDTH 7 0
BBX 7 10 0 0
BITMAP
0640
0140
0200
000C
1AA8
2060
6030
6030
3060
1A80
ENDCHAR
STARTCHAR uni1EE0
ENCODING 7904
SWIDTH 779 0
DWIDTH 9 0
BBX 9 11 0 0
BITMAP
065400
08A000
000000
0BE580
280A00
300600
600300
600200
300600
280900
0BA400
ENDCHAR
STARTCHAR uni1EE1
ENCODING 7905
SWIDTH 608 0
DWIDTH 7 0
BBX 7 9 0 0
BITMAP
1950
2280
000C
1AA8
2060
6030
6030
3060
1A80
ENDCHAR
STARTCHAR uni1EE2
ENCODING 7906
SWIDTH 779 0
DWIDTH 9 0
BBX 9 10 0 -2
BITMAP
0BE580
280A00
300600
600300
600200
300600
280900
0BA400
000000
008000
ENDCHAR
STARTCHAR uni1EE3
ENCODING 7907
SWIDTH 608 0
DWIDTH 7 0
BBX 7 9 0 -2
BITMAP
000C
1AA8
2060
6030
6030
3060
1A80
0000
0200
ENDCHAR
STARTCHAR uni1EE4
ENCODING 7908
SWIDTH 728 0
DWIDTH 8 0
BBX 6 10 1 -2
BITMAP
C030
C030
C030
C030
C030
C030
9060
2A80
0000
0500
ENDCHAR
STARTCHAR uni1EE5
ENCODING 7909
SWIDTH 613 0
DWIDTH 7 0
BBX 5 8 1 -2
BITMAP
8080
8080
8080
8080
C180
6980
0000
1800
ENDCHAR
STARTCHAR uni1EE6
ENCODING 7910
SWIDTH 728 0
DWIDTH 8 0
BBX 6 12 1 0
BITMAP
0600
0200
0500
0000
C030
C030
C030
C030
C030
C030
9060
2A80
ENDCHAR
STARTCHAR uni1EE7
ENCODING 7911
SWIDTH 613 0
DWIDTH 7 0
BBX 5 10 1 0
BITMAP
1900
0900
0800
0000
8080
8080
8080
8080
C180
6980
ENDCHAR
STARTCHAR uni1EE8
ENCODING 7912
SWIDTH 768 0
DWIDTH 8 0
BBX 8 11 1 0
BITMAP
0240
0500
0002
C035
C038
C030
C030
C030
C030
9060
2A80
ENDCHAR
STARTCHAR uni1EE9
ENCODING 7913
SWIDTH 665 0
DWIDTH 7 0
BBX 7 9 1 0
BITMAP
0600
0800
0018
80E4
80C0
8080
8080
C180
6A80
ENDCHAR
STARTCHAR uni1EEA
ENCODING 7914
SWIDTH 768 0
DWIDTH 8 0
BBX 8 11 1 0
BITMAP
1C00
0500
0002
C035
C038
C030
C030
C030
C030
9060
2A80
ENDCHAR
STARTCHAR uni1EEB
ENCODING 7915
SWIDTH 665 0
DWIDTH 7 0
BBX 7 9 1 0
BITMAP
3000
1800
0018
80E4
80C0
8080
8080
C180
6A80
ENDCHAR
STARTCHAR uni1EEC
ENCODING 7916
SWIDTH 768 0
DWIDTH 8 0
BBX 8 12 1 0
BITMAP
0600
0200
0500
0002
C035
C038
C030
C030
C030
C030
9060
2A80
ENDCHAR
STARTCHAR uni1EED
ENCODING 7917
SWIDTH 665 0
DWIDTH 7 0
BBX 7 10 1 0
BITMAP
1900
0500
0800
0018
80E4
80C0
8080
8080
C180
6A80
ENDCHAR
STARTCHAR uni1EEE
ENCODING 7918
SWIDTH 768 0
DWIDTH 8 0
BBX 8 11 1 0
BITMAP
1880
2280
0002
C035
C038
C030
C030
C030
C030
9060
2A80
ENDCHAR
STARTCHAR uni1EEF
ENCODING 7919
SWIDTH 665 0
DWIDTH 7 0
BBX 7 9 1 0
BITMAP
2540
4A00
0018
80E4
80C0
8080
8080
C180
6A80
ENDCHAR
STARTCHAR uni1EF0
ENCODING 7920
SWIDTH 768 0
DWIDTH 8 0
BBX 8 11 1 -2
BITMAP
0002
C035
C038
C030
C030
C030
C030
9060
2A80
0000
0500
ENDCHAR
STARTCHAR uni1EF1
ENCODING 7921
SWIDTH 665 0
DWIDTH 7 0
BBX 7 9 1 -2
BITMAP
0018
80E4
80C0
8080
8080
C180
6A80
0000
1800
ENDCHAR
STARTCHAR Ygrave
ENCODING 7922
SWIDTH 560 0
DWIDTH 6 0
BBX 6 11 0 0
BITMAP
1C00
0500
0000
9030
6090
2480
0A40
0A00
0600
0600
0600
ENDCHAR
STARTCHAR ygrave
ENCODING 7923
SWIDTH 503 0
DWIDTH 6 0
BBX 6 12 0 -3
BITMAP
1800
0800
0000
8090
60C0
3180
2640
1B00
0E00
0900
0800
A400
ENDCHAR
STARTCHAR uni1EF4
ENCODING 7924
SWIDTH 560 0
DWIDTH 6 0
BBX 6 10 0 -2
BITMAP
9030
6090
2480
0A40
0A00
0600
0600
0600
0000
0500
ENDCHAR
STARTCHAR uni1EF5
ENCODING 7925
SWIDTH 503 0
DWIDTH 6 0
BBX 6 9 0 -3
BITMAP
8090
60C0
3180
2640
1B00
0E00
0900
0880
A400
ENDCHAR
STARTCHAR uni1EF6
ENCODING 7926
SWIDTH 560 0
DWIDTH 6 0
BBX 6 12 0 0
BITMAP
0600
0200
0500
0000
9030
6090
2480
0A40
0A00
0600
0600
0600
ENDCHAR
STARTCHAR uni1EF7
ENCODING 7927
SWIDTH 503 0
DWIDTH 6 0
BBX 6 13 0 -3
BITMAP
0A00
0600
0800
0000
8090
60C0
3180
2640
1B00
0E00
0900
0800
A400
ENDCHAR
STARTCHAR uni1EF8
ENCODING 7928
SWIDTH 560 0
DWIDTH 6 0
BBX 6 11 0 0
BITMAP
1880
2280
0000
9030
6090
2480
0A40
0A00
0600
0600
0600
ENDCHAR
STARTCHAR uni1EF9
ENCODING 7929
SWIDTH 503 0
DWIDTH 6 0
BBX 6 12 0 -3
BITMAP
2880
1640
0000
8090
60C0
3180
2640
1B00
0E00
0900
0800
A400
ENDCHAR
STARTCHAR uni1F4D
ENCODING 8013
SWIDTH 790 0
DWIDTH 9 0
BBX 10 8 -2 0
BITMAP
59BE40
5A8090
030060
020030
020030
030060
028090
00BA40
ENDCHAR
STARTCHAR uni2000
ENCODING 8192
SWIDTH 500 0
DWIDTH 6 0
BBX 1 1 0 0
BITMAP
00
ENDCHAR
STARTCHAR uni2001
ENCODING 8193
SWIDTH 1000 0
DWIDTH 11 0
BBX 1 1 0 0
BITMAP
00
ENDCHAR
STARTCHAR uni2002
ENCODING 8194
SWIDTH 500 0
DWIDTH 6 0
BBX 1 1 0 0
BITMAP
00
ENDCHAR
STARTCHAR uni2003
ENCODING 8195
SWIDTH 1000 0
DWIDTH 11 0
BBX 1 1 0 0
BITMAP
00
ENDCHAR
STARTCHAR uni2004
ENCODING 8196
SWIDTH 333 0
DWIDTH 4 0
BBX 1 1 0 0
BITMAP
00
ENDCHAR
STARTCHAR uni2005
ENCODING 8197
SWIDTH 250 0
DWIDTH 3 0
BBX 1 1 0 0
BITMAP
00
ENDCHAR
STARTCHAR uni2006
ENCODING 8198
SWIDTH 166 0
DWIDTH 2 0
BBX 1 1 0 0
BITMAP
00
ENDCHAR
STARTCHAR uni2007
ENCODING 8199
SWIDTH 559 0
DWIDTH 6 0
BBX 1 1 0 0
BITMAP
00
ENDCHAR
STARTCHAR uni2008
ENCODING 8200
SWIDTH 266 0
DWIDTH 3 0
BBX 1 1 0 0
BITMAP
00
ENDCHAR
STARTCHAR uni2009
ENCODING 8201
SWIDTH 200 0
DWIDTH 2 0
BBX 1 1 0 0
BITMAP
00
ENDCHAR
STARTCHAR uni200A
ENCODING 8202
SWIDTH 100 0
DWIDTH 1 0
BBX 1 1 0 0
BITMAP
00
ENDCHAR
STARTCHAR uni200B
ENCODING 8203
SWIDTH 0 0
DWIDTH 0 0
BBX 1 1 0 0
BITMAP
00
ENDCHAR
STARTCHAR endash
ENCODING 8211
SWIDTH 500 0
DWIDTH 6 0
BBX 5 1 0 2
BITMAP
6A80
ENDCHAR
STARTCHAR emdash
ENCODING 8212
SWIDTH 1000 0
DWIDTH 11 0
BBX 11 1 0 2
BITMAP
6AAAA4
ENDCHAR
STARTCHAR afii00208
ENCODING 8213
SWIDTH 1000 0
DWIDTH 11 0
BBX 11 1 0 2
BITMAP
6AAAA4
ENDCHAR
STARTCHAR underscoredbl
ENCODING 8215
SWIDTH 411 0
DWIDTH 5 0
BBX 5 2 0 -2
BITMAP
AA40
AA40
ENDCHAR
STARTCHAR quoteleft
ENCODING 8216
SWIDTH 169 0
DWIDTH 2 0
BBX 2 3 0 5
BITMAP
20
50
90
ENDCHAR
STARTCHAR quoteright
ENCODING 8217
SWIDTH 169 0
DWIDTH 2 0
BBX 2 3 0 5
BITMAP
60
90
80
ENDCHAR
STARTCHAR quotesinglbase
ENCODING 8218
SWIDTH 245 0
DWIDTH 3 0
BBX 2 3 0 -2
BITMAP
70
60
90
ENDCHAR
STARTCHAR quotereversed
ENCODING 8219
SWIDTH 169 0
DWIDTH 2 0
BBX 2 3 0 5
BITMAP
90
50
20
ENDCHAR
STARTCHAR quotedblleft
ENCODING 8220
SWIDTH 350 0
DWIDTH 4 0
BBX 4 3 0 5
BITMAP
22
59
99
ENDCHAR
STARTCHAR quotedblright
ENCODING 8221
SWIDTH 350 0
DWIDTH 4 0
BBX 4 3 0 5
BITMAP
66
99
88
ENDCHAR
STARTCHAR quotedblbase
ENCODING 8222
SWIDTH 404 0
DWIDTH 4 0
BBX 4 3 0 -2
BITMAP
66
99
88
ENDCHAR
STARTCHAR dagger
ENCODING 8224
SWIDTH 501 0
DWIDTH 6 0
BBX 5 8 0 0
BITMAP
0800
0800
6A80
0800
0800
0800
0800
0900
ENDCHAR
STARTCHAR daggerdbl
ENCODING 8225
SWIDTH 509 0
DWIDTH 6 0
BBX 5 8 0 0
BITMAP
0900
0800
6A80
0900
0900
6A80
0800
0900
ENDCHAR
STARTCHAR bullet
ENCODING 8226
SWIDTH 375 0
DWIDTH 4 0
BBX 3 3 1 2
BITMAP
B0
F4
B0
ENDCHAR
STARTCHAR ellipsis
ENCODING 8230
SWIDTH 784 0
DWIDTH 9 0
BBX 7 2 1 0
BITMAP
4104
C618
ENDCHAR
STARTCHAR perthousand
ENCODING 8240
SWIDTH 1202 0
DWIDTH 13 0
BBX 13 8 0 0
BITMAP
29080000
52140000
52200000
525A4A00
29A4A180
0260A080
0214A180
080A4A00
ENDCHAR
STARTCHAR minute
ENCODING 8242
SWIDTH 221 0
DWIDTH 2 0
BBX 2 3 0 5
BITMAP
60
60
20
ENDCHAR
STARTCHAR second
ENCODING 8243
SWIDTH 393 0
DWIDTH 4 0
BBX 4 3 0 5
BITMAP
66
66
22
ENDCHAR
STARTCHAR guilsinglleft
ENCODING 8249
SWIDTH 304 0
DWIDTH 3 0
BBX 3 4 0 1
BITMAP
18
60
60
18
ENDCHAR
STARTCHAR guilsinglright
ENCODING 8250
SWIDTH 304 0
DWIDTH 3 0
BBX 3 4 0 1
BITMAP
60
14
14
60
ENDCHAR
STARTCHAR exclamdbl
ENCODING 8252
SWIDTH 485 0
DWIDTH 5 0
BBX 4 8 1 0
BITMAP
C9
C9
C9
89
85
85
44
C9
ENDCHAR
STARTCHAR fraction
ENCODING 8260
SWIDTH 129 0
DWIDTH 1 0
BBX 6 8 -2 0
BITMAP
0090
0180
0200
0500
0800
2400
6000
8000
ENDCHAR
STARTCHAR zerosuperior
ENCODING 8304
SWIDTH 347 0
DWIDTH 4 0
BBX 4 5 0 3
BITMAP
68
85
82
85
68
ENDCHAR
STARTCHAR foursuperior
ENCODING 8308
SWIDTH 347 0
DWIDTH 4 0
BBX 4 5 0 3
BITMAP
0C
28
58
AD
08
ENDCHAR
STARTCHAR fivesuperior
ENCODING 8309
SWIDTH 347 0
DWIDTH 4 0
BBX 4 5 0 3
BITMAP
68
40
68
05
68
ENDCHAR
STARTCHAR sixsuperior
ENCODING 8310
SWIDTH 347 0
DWIDTH 4 0
BBX 4 5 0 3
BITMAP
28
80
A9
82
69
ENDCHAR
STARTCHAR sevensuperior
ENCODING 8311
SWIDTH 347 0
DWIDTH 4 0
BBX 4 5 0 3
BITMAP
69
08
08
14
20
ENDCHAR
STARTCHAR eightsuperior
ENCODING 8312
SWIDTH 347 0
DWIDTH 4 0
BBX 4 5 0 3
BITMAP
68
59
68
85
69
ENDCHAR
STARTCHAR ninesuperior
ENCODING 8313
SWIDTH 347 0
DWIDTH 4 0
BBX 4 5 0 3
BITMAP
68
85
6A
05
68
ENDCHAR
STARTCHAR nsuperior
ENCODING 8319
SWIDTH 394 0
DWIDTH 4 0
BBX 4 4 0 4
BITMAP
69
52
52
52
ENDCHAR
STARTCHAR franc
ENCODING 8355
SWIDTH 571 0
DWIDTH 6 0
BBX 6 8 0 0
BITMAP
2EA0
2400
2400
2400
2E90
2400
7A00
2400
ENDCHAR
STARTCHAR afii08941
ENCODING 8356
SWIDTH 571 0
DWIDTH 6 0
BBX 6 8 0 0
BITMAP
0A90
1800
2400
7A40
2400
7A40
2400
BAA0
ENDCHAR
STARTCHAR peseta
ENCODING 8359
SWIDTH 763 0
DWIDTH 8 0
BBX 8 8 0 0
BITMAP
7A40
6180
60C8
61AE
7A18
6018
6018
600A
ENDCHAR
STARTCHAR uni20AB
ENCODING 8363
SWIDTH 612 0
DWIDTH 7 0
BBX 7 10 0 -2
BITMAP
06B4
0020
1AA0
3060
6020
6020
3060
1A60
0000
2AA0
ENDCHAR
STARTCHAR Euro
ENCODING 8364
SWIDTH 589 0
DWIDTH 6 0
BBX 6 8 0 0
BITMAP
0AA0
2400
7A80
3000
3000
7A40
1800
0AA0
ENDCHAR
STARTCHAR afii61248
ENCODING 8453
SWIDTH 824 0
DWIDTH 9 0
BBX 9 8 0 0
BITMAP
290800
202400
602000
298000
019A00
022240
062240
081A00
ENDCHAR
STARTCHAR afii61289
ENCODING 8467
SWIDTH 520 0
DWIDTH 6 0
BBX 5 8 0 0
BITMAP
0A40
1880
1940
1A00
6800
1800
1880
0A40
ENDCHAR
STARTCHAR afii61352
ENCODING 8470
SWIDTH 1019 0
DWIDTH 11 0
BBX 10 8 1 0
BITMAP
D06000
F06000
A86000
8D6690
866920
83A690
81E000
80A690
ENDCHAR
STARTCHAR uni2120
ENCODING 8480
SWIDTH 793 0
DWIDTH 9 0
BBX 8 4 0 4
BITMAP
69C6
619A
0966
6962
ENDCHAR
STARTCHAR trademark
ENCODING 8482
SWIDTH 775 0
DWIDTH 9 0
BBX 8 4 0 4
BITMAP
7A8A
228A
2266
2232
ENDCHAR
STARTCHAR Omega
ENCODING 8486
SWIDTH 782 0
DWIDTH 9 0
BBX 8 8 0 0
BITMAP
0AA4
2409
3006
6003
6006
3005
1818
6E3E
ENDCHAR
STARTCHAR estimated
ENCODING 8494
SWIDTH 619 0
DWIDTH 7 0
BBX 6 6 0 0
BITMAP
1590
2030
7550
6000
2010
1980
ENDCHAR
STARTCHAR oneeighth
ENCODING 8539
SWIDTH 779 0
DWIDTH 9 0
BBX 8 8 0 0
BITMAP
2814
5820
0890
08AA
0A22
052A
0822
242A
ENDCHAR
STARTCHAR threeeighths
ENCODING 8540
SWIDTH 779 0
DWIDTH 9 0
BBX 9 8 0 0
BITMAP
680800
092400
282000
05AA00
A96600
021A00
092240
182A00
ENDCHAR
STARTCHAR fiveeighths
ENCODING 8541
SWIDTH 779 0
DWIDTH 9 0
BBX 9 8 0 0
BITMAP
690800
502400
696000
06AA00
6A6200
021A00
092240
182A00
ENDCHAR
STARTCHAR seveneighths
ENCODING 8542
SWIDTH 779 0
DWIDTH 9 0
BBX 9 8 0 0
BITMAP
6A1400
052000
088000
19AA00
222200
051A00
082240
202A00
ENDCHAR
STARTCHAR partialdiff
ENCODING 8706
SWIDTH 581 0
DWIDTH 6 0
BBX 6 8 0 0
BITMAP
0A80
0060
1AA0
34A0
6060
5090
6180
2A00
ENDCHAR
STARTCHAR Delta
ENCODING 8710
SWIDTH 571 0
DWIDTH 6 0
BBX 6 8 0 0
BITMAP
0600
0A00
0940
1480
2080
2050
5020
BAB0
ENDCHAR
STARTCHAR product
ENCODING 8719
SWIDTH 738 0
DWIDTH 8 0
BBX 6 11 1 -3
BITMAP
EAB0
C030
C030
C030
C030
C030
C030
C030
C030
C030
C030
ENDCHAR
STARTCHAR summation
ENCODING 8721
SWIDTH 630 0
DWIDTH 7 0
BBX 7 11 0 -3
BITMAP
7AA4
2400
1C00
0600
0240
0180
0300
0900
1800
3000
BAA8
ENDCHAR
STARTCHAR minus
ENCODING 8722
SWIDTH 571 0
DWIDTH 6 0
BBX 6 1 0 3
BITMAP
6AA0
ENDCHAR
STARTCHAR radical
ENCODING 8730
SWIDTH 548 0
DWIDTH 6 0
BBX 7 9 0 0
BITMAP
0014
0020
0020
0050
B080
2580
1A40
0A00
0A00
ENDCHAR
STARTCHAR infinity
ENCODING 8734
SWIDTH 705 0
DWIDTH 8 0
BBX 7 4 0 2
BITMAP
2968
5248
5248
2968
ENDCHAR
STARTCHAR integral
ENCODING 8747
SWIDTH 383 0
DWIDTH 4 0
BBX 4 11 0 -3
BITMAP
0A
18
18
18
18
18
18
18
18
14
A0
ENDCHAR
STARTCHAR approxequal
ENCODING 8776
SWIDTH 571 0
DWIDTH 6 0
BBX 6 5 0 1
BITMAP
6910
4290
0000
6910
4290
ENDCHAR
STARTCHAR notequal
ENCODING 8800
SWIDTH 571 0
DWIDTH 6 0
BBX 6 7 0 0
BITMAP
0080
0140
6BA0
0600
6EA0
0800
1400
ENDCHAR
STARTCHAR lessequal
ENCODING 8804
SWIDTH 571 0
DWIDTH 6 0
BBX 6 7 0 0
BITMAP
0010
0190
1900
7400
1A40
01A0
6AA0
ENDCHAR
STARTCHAR greaterequal
ENCODING 8805
SWIDTH 571 0
DWIDTH 6 0
BBX 6 7 0 0
BITMAP
5000
2800
0680
00A0
0A40
6400
6AA0
ENDCHAR
STARTCHAR lozenge
ENCODING 9674
SWIDTH 583 0
DWIDTH 6 0
BBX 5 8 1 0
BITMAP
1800
2900
5200
8180
8180
9200
2900
1800
ENDCHAR
STARTCHAR ff
ENCODING 64256
SWIDTH 678 0
DWIDTH 7 0
BBX 8 8 0 0
BITMAP
1A2A
2030
79B9
2020
2020
2020
2020
2020
ENDCHAR
STARTCHAR uniFB01
ENCODING 64257
SWIDTH 591 0
DWIDTH 7 0
BBX 6 8 0 0
BITMAP
1A60
2000
7960
2060
2060
2060
2060
2060
ENDCHAR
STARTCHAR uniFB02
ENCODING 64258
SWIDTH 591 0
DWIDTH 7 0
BBX 6 8 0 0
BITMAP
1A60
2060
7960
2060
2060
2060
2060
2060
ENDCHAR
STARTCHAR uniFB03
ENCODING 64259
SWIDTH 932 0
DWIDTH 10 0
BBX 10 8 0 0
BITMAP
1A2A90
203000
79B990
202090
202090
202090
202090
202090
ENDCHAR
STARTCHAR uniFB04
ENCODING 64260
SWIDTH 932 0
DWIDTH 10 0
BBX 10 8 0 0
BITMAP
1A2A90
203090
79B990
202090
202090
202090
202090
202090
ENDCHAR
STARTCHAR uniFEFF
ENCODING 65279
SWIDTH 0 0
DWIDTH 0 0
BBX 1 1 0 0
BITMAP
00
ENDCHAR
STARTCHAR uniFFFC
ENCODING 65532
SWIDTH 1000 0
DWIDTH 11 0
BBX 11 10 0 -2
BITMAP
A66668
400004
400004
4A6884
98A888
4A6984
400004
400004
400004
A66668
ENDCHAR
STARTCHAR uniFFFD
ENCODING 65533
SWIDTH 1000 0
DWIDTH 11 0
BBX 9 10 1 -2
BITMAP
008000
03F000
091800
3ECB00
FF5FC0
FE3FC0
3FFF00
0E3C00
023000
008000
ENDCHAR
STARTCHAR .notdef
ENCODING -1
SWIDTH 600 0
DWIDTH 7 0
BBX 5 8 1 0
BITMAP
AA80
8080
8080
8080
8080
8080
8080
AA80
ENDCHAR
STARTCHAR null
ENCODING -1
SWIDTH 0 0
DWIDTH 0 0
BBX 1 1 0 0
BITMAP
00
ENDCHAR
STARTCHAR nonmarkingreturn
ENCODING -1
SWIDTH 509 0
DWIDTH 6 0
BBX 1 1 0 0
BITMAP
00
ENDCHAR
STARTCHAR I.alt
ENCODING -1
SWIDTH 333 0
DWIDTH 4 0
BBX 3 8 0 0
BITMAP
78
24
24
24
24
24
24
78
ENDCHAR
STARTCHAR Igrave.alt
ENCODING -1
SWIDTH 333 0
DWIDTH 4 0
BBX 3 11 0 0
BITMAP
60
24
00
78
24
24
24
24
24
24
78
ENDCHAR
STARTCHAR Iacute.alt
ENCODING -1
SWIDTH 333 0
DWIDTH 4 0
BBX 3 11 0 0
BITMAP
0C
24
00
78
24
24
24
24
24
24
78
ENDCHAR
STARTCHAR Icircumflex.alt
ENCODING -1
SWIDTH 333 0
DWIDTH 4 0
BBX 4 11 0 0
BITMAP
38
99
00
78
24
24
24
24
24
24
78
ENDCHAR
STARTCHAR Idieresis.alt
ENCODING -1
SWIDTH 333 0
DWIDTH 4 0
BBX 4 10 0 0
BITMAP
99
00
78
24
24
24
24
24
24
78
ENDCHAR
STARTCHAR Itilde.alt
ENCODING -1
SWIDTH 333 0
DWIDTH 4 0
BBX 4 11 0 0
BITMAP
A2
59
00
78
24
24
24
24
24
24
78
ENDCHAR
STARTCHAR Imacron.alt
ENCODING -1
SWIDTH 333 0
DWIDTH 4 0
BBX 4 10 0 0
BITMAP
A9
00
78
24
24
24
24
24
24
78
ENDCHAR
STARTCHAR Ibreve.alt
ENCODING -1
SWIDTH 333 0
DWIDTH 4 0
BBX 4 11 0 0
BITMAP
85
68
00
78
24
24
24
24
24
24
78
ENDCHAR
STARTCHAR Iogonek.alt
ENCODING -1
SWIDTH 333 0
DWIDTH 4 0
BBX 3 10 0 -2
BITMAP
78
24
24
24
24
24
24
78
20
24
ENDCHAR
STARTCHAR Idotaccent.alt
ENCODING -1
SWIDTH 333 0
DWIDTH 4 0
BBX 3 10 0 0
BITMAP
24
00
78
24
24
24
24
24
24
78
ENDCHAR
STARTCHAR IJ.alt
ENCODING -1
SWIDTH 600 0
DWIDTH 7 0
BBX 6 10 0 -2
BITMAP
7860
2460
2460
2460
2460
2460
2460
7860
0050
0280
ENDCHAR
STARTCHAR Iotatonos.alt
ENCODING -1
SWIDTH 449 0
DWIDTH 5 0
BBX 5 8 0 0
BITMAP
9B40
8600
0600
0600
0600
0600
0600
0B40
ENDCHAR
STARTCHAR Iota.alt
ENCODING -1
SWIDTH 333 0
DWIDTH 4 0
BBX 3 8 0 0
BITMAP
78
24
24
24
24
24
24
78
ENDCHAR
STARTCHAR Iotadieresis.alt
ENCODING -1
SWIDTH 333 0
DWIDTH 4 0
BBX 4 10 0 0
BITMAP
99
00
78
24
24
24
24
24
24
78
ENDCHAR
STARTCHAR afii10055.alt
ENCODING -1
SWIDTH 333 0
DWIDTH 4 0
BBX 3 8 0 0
BITMAP
78
24
24
24
24
24
24
78
ENDCHAR
STARTCHAR afii10056.alt
ENCODING -1
SWIDTH 333 0
DWIDTH 4 0
BBX 4 10 0 0
BITMAP
99
00
78
24
24
24
24
24
24
78
ENDCHAR
STARTCHAR cyrillicbreve
ENCODING -1
SWIDTH 577 0
DWIDTH 6 0
BBX 4 2 1 7
BITMAP
82
69
ENDCHAR
STARTCHAR caroncommaaccent
ENCODING -1
SWIDTH 500 0
DWIDTH 6 0
BBX 2 2 2 7
BITMAP
90
80
ENDCHAR
STARTCHAR commaaccent
ENCODING -1
SWIDTH 500 0
DWIDTH 6 0
BBX 2 2 2 -3
BITMAP
90
80
ENDCHAR
STARTCHAR commaaccentrotate
ENCODING -1
SWIDTH 500 0
DWIDTH 6 0
BBX 2 2 2 7
BITMAP
50
80
ENDCHAR
STARTCHAR dasiaoxia
ENCODING -1
SWIDTH 399 0
DWIDTH 4 0
BBX 3 2 1 6
BITMAP
98
A0
ENDCHAR
STARTCHAR uni04C0.alt
ENCODING -1
SWIDTH 333 0
DWIDTH 4 0
BBX 3 8 0 0
BITMAP
78
24
24
24
24
24
24
78
ENDCHAR
STARTCHAR uni04CF.alt
ENCODING -1
SWIDTH 333 0
DWIDTH 4 0
BBX 3 8 0 0
BITMAP
78
24
24
24
24
24
24
78
ENDCHAR
STARTCHAR uni1EC8.alt
ENCODING -1
SWIDTH 333 0
DWIDTH 4 0
BBX 3 12 0 0
BITMAP
18
08
14
00
78
24
24
24
24
24
24
78
ENDCHAR
STARTCHAR uni1ECA.alt
ENCODING -1
SWIDTH 333 0
DWIDTH 4 0
BBX 3 10 0 -2
BITMAP
78
24
24
24
24
24
24
78
00
24
ENDCHAR
STARTCHAR circumflexacutecomb
ENCODING -1
SWIDTH 0 0
DWIDTH 0 0
BBX 5 3 -5 7
BITMAP
0240
3A00
9900
ENDCHAR
STARTCHAR circumflexgravecomb
ENCODING -1
SWIDTH 0 0
DWIDTH 0 0
BBX 5 3 -6 7
BITMAP
8000
6E00
2640
ENDCHAR
STARTCHAR circumflexhookcomb
ENCODING -1
SWIDTH 0 0
DWIDTH 0 0
BBX 4 3 -5 7
BITMAP
02
3A
99
ENDCHAR
STARTCHAR circumflextildecomb
ENCODING -1
SWIDTH 0 0
DWIDTH 0 0
BBX 4 3 -5 7
BITMAP
A9
38
99
ENDCHAR
STARTCHAR breveacutecomb
ENCODING -1
SWIDTH 0 0
DWIDTH 0 0
BBX 4 3 -5 7
BITMAP
14
85
68
ENDCHAR
STARTCHAR brevegravecomb
ENCODING -1
SWIDTH 0 0
DWIDTH 0 0
BBX 4 3 -5 7
BITMAP
60
85
68
ENDCHAR
STARTCHAR brevehookcomb
ENCODING -1
SWIDTH 0 0
DWIDTH 0 0
BBX 4 4 -5 7
BITMAP
14
14
85
68
ENDCHAR
STARTCHAR brevetildecomb
ENCODING -1
SWIDTH 0 0
DWIDTH 0 0
BBX 4 3 -5 7
BITMAP
A9
85
68
ENDCHAR
STARTCHAR cyrillichookleft
ENCODING -1
SWIDTH 205 0
DWIDTH 2 0
BBX 2 2 0 -2
BITMAP
20
60
ENDCHAR
STARTCHAR cyrillicbighookUC
ENCODING -1
SWIDTH 205 0
DWIDTH 2 0
BBX 2 3 0 -2
BITMAP
20
20
A0
ENDCHAR
STARTCHAR cyrillicbighookLC
ENCODING -1
SWIDTH 205 0
DWIDTH 2 0
BBX 2 3 0 -2
BITMAP
20
20
A0
ENDCHAR
STARTCHAR one.pnum
ENCODING -1
SWIDTH 396 0
DWIDTH 4 0
BBX 3 8 0 0
BITMAP
1C
58
08
08
08
08
08
08
ENDCHAR
STARTCHAR zero.os
ENCODING -1
SWIDTH 566 0
DWIDTH 6 0
BBX 6 6 0 0
BITMAP
1A80
2090
6060
6060
2090
1A80
ENDCHAR
STARTCHAR one.os
ENCODING -1
SWIDTH 369 0
DWIDTH 4 0
BBX 3 6 0 0
BITMAP
1C
68
08
08
08
08
ENDCHAR
STARTCHAR two.os
ENCODING -1
SWIDTH 509 0
DWIDTH 6 0
BBX 6 6 0 0
BITMAP
2A40
00C0
0180
0600
2400
BA90
ENDCHAR
STARTCHAR three.os
ENCODING -1
SWIDTH 571 0
DWIDTH 6 0
BBX 6 8 0 -2
BITMAP
2A80
1090
0180
1B80
0090
0060
0090
6A80
ENDCHAR
STARTCHAR four.os
ENCODING -1
SWIDTH 569 0
DWIDTH 6 0
BBX 6 8 0 -2
BITMAP
01C0
0680
08C0
24C0
50C0
AAE0
00C0
00C0
ENDCHAR
STARTCHAR five.os
ENCODING -1
SWIDTH 571 0
DWIDTH 6 0
BBX 6 8 0 -2
BITMAP
3A80
3000
2000
2A80
0090
0060
0090
6A80
ENDCHAR
STARTCHAR six.os
ENCODING -1
SWIDTH 571 0
DWIDTH 6 0
BBX 6 8 0 0
BITMAP
0A80
2400
2000
6A80
6060
6020
2060
1A80
ENDCHAR
STARTCHAR seven.os
ENCODING -1
SWIDTH 571 0
DWIDTH 6 0
BBX 6 8 0 -2
BITMAP
6AE0
0090
00C0
0180
0300
0600
0900
1800
ENDCHAR
STARTCHAR eight.os
ENCODING -1
SWIDTH 571 0
DWIDTH 6 0
BBX 6 8 0 0
BITMAP
2A80
2090
2480
1F40
2090
5060
6060
2A80
ENDCHAR
STARTCHAR nine.os
ENCODING -1
SWIDTH 571 0
DWIDTH 6 0
BBX 6 8 0 -2
BITMAP
1A80
6090
5060
60A0
2AA0
0050
00C0
2A40
ENDCHAR
STARTCHAR g.alt
ENCODING -1
SWIDTH 612 0
DWIDTH 7 0
BBX 6 9 0 -3
BITMAP
1A60
3060
6020
6020
3060
1AA0
0020
0060
2A80
ENDCHAR
STARTCHAR gcircumflex.alt
ENCODING -1
SWIDTH 612 0
DWIDTH 7 0
BBX 6 12 0 -3
BITMAP
0700
1880
0000
1A60
3060
6020
6020
3060
1AA0
0020
0060
2A80
ENDCHAR
STARTCHAR gbreve.alt
ENCODING -1
SWIDTH 612 0
DWIDTH 7 0
BBX 6 12 0 -3
BITMAP
1480
0A40
0000
1A60
3060
6020
6020
3060
1AA0
0020
0060
2A80
ENDCHAR
STARTCHAR gdot.alt
ENCODING -1
SWIDTH 612 0
DWIDTH 7 0
BBX 6 11 0 -3
BITMAP
0200
0000
1A60
3060
6020
6020
3060
1AA0
0020
0060
2A80
ENDCHAR
STARTCHAR gcommaaccent.alt
ENCODING -1
SWIDTH 612 0
DWIDTH 7 0
BBX 6 12 0 -3
BITMAP
0200
0200
0000
1A60
3060
6020
6020
3060
1AA0
0020
0060
2A80
ENDCHAR
ENDFONT
